ISO-10303-21;
HEADER;
/* Generated by software containing ST-Developer
 * from STEP Tools, Inc. (www.steptools.com) 
 */
/* OPTION: using custom schema-name function */

FILE_DESCRIPTION(
/* description */ (''),
/* implementation_level */ '2;1');

FILE_NAME(
/* name */ 'Diffuser.stp',
/* time_stamp */ '2026-08-30T12:17:44-04:00',
/* author */ (''),
/* organization */ (''),
/* preprocessor_version */ 'ST-DEVELOPER v18.102',
/* originating_system */ 'SIEMENS PLM Software NX 2027',
/* authorisation */ '');

FILE_SCHEMA (('AUTOMOTIVE_DESIGN { 1 0 10303 214 3 1 1 1 }'));
ENDSEC;

DATA;
#10=PROPERTY_DEFINITION_REPRESENTATION(#14,#12);
#11=PROPERTY_DEFINITION_REPRESENTATION(#15,#13);
#12=REPRESENTATION('',(#16),#1794);
#13=REPRESENTATION('',(#17),#1794);
#14=PROPERTY_DEFINITION('pmi validation property','',#21);
#15=PROPERTY_DEFINITION('pmi validation property','',#21);
#16=VALUE_REPRESENTATION_ITEM('number of annotations',COUNT_MEASURE(0.));
#17=VALUE_REPRESENTATION_ITEM('number of views',COUNT_MEASURE(0.));
#18=SHAPE_REPRESENTATION_RELATIONSHIP('None',
'relationship between A_objects-None and A_objects-None',#30,#19);
#19=ADVANCED_BREP_SHAPE_REPRESENTATION('A_objects-None',(#40),#1794);
#20=SHAPE_DEFINITION_REPRESENTATION(#21,#30);
#21=PRODUCT_DEFINITION_SHAPE('','',#22);
#22=PRODUCT_DEFINITION(' ','',#24,#23);
#23=PRODUCT_DEFINITION_CONTEXT('part definition',#29,'design');
#24=PRODUCT_DEFINITION_FORMATION_WITH_SPECIFIED_SOURCE(' ',' ',#26,
 .NOT_KNOWN.);
#25=PRODUCT_RELATED_PRODUCT_CATEGORY('part','',(#26));
#26=PRODUCT('A_objects','A_objects',' ',(#27));
#27=PRODUCT_CONTEXT(' ',#29,'mechanical');
#28=APPLICATION_PROTOCOL_DEFINITION('international standard',
'automotive_design',2010,#29);
#29=APPLICATION_CONTEXT(
'core data for automotive mechanical design processes');
#30=SHAPE_REPRESENTATION('A_objects-None',(#1121),#1794);
#31=PRESENTATION_LAYER_ASSIGNMENT('1','Layer 1',(#40));
#32=STYLED_ITEM('',(#33),#40);
#33=PRESENTATION_STYLE_ASSIGNMENT((#34));
#34=SURFACE_STYLE_USAGE(.BOTH.,#35);
#35=SURFACE_SIDE_STYLE('',(#36));
#36=SURFACE_STYLE_FILL_AREA(#37);
#37=FILL_AREA_STYLE('',(#38));
#38=FILL_AREA_STYLE_COLOUR('',#39);
#39=DRAUGHTING_PRE_DEFINED_COLOUR('cyan');
#40=MANIFOLD_SOLID_BREP('',#41);
#41=CLOSED_SHELL('',(#134,#135,#136,#137,#138,#139,#140,#141,#142,#143,
#144,#145,#146,#147,#148,#149,#150,#151,#152,#153,#154,#155,#156,#157,#158,
#159,#160,#161,#162,#163,#164,#165,#166,#167,#168,#169,#170,#171,#172,#173,
#174,#175,#176,#177,#178,#179,#180,#181,#182,#183,#184,#185,#186,#187,#188,
#189,#190,#191,#192));
#42=CONICAL_SURFACE('',#1157,0.,45.);
#43=CONICAL_SURFACE('',#1158,0.,45.);
#44=CONICAL_SURFACE('',#1162,0.,45.);
#45=CONICAL_SURFACE('',#1163,0.,45.);
#46=CONICAL_SURFACE('',#1178,0.,45.);
#47=CONICAL_SURFACE('',#1179,0.,45.);
#48=CONICAL_SURFACE('',#1183,0.,45.);
#49=CONICAL_SURFACE('',#1184,0.,45.);
#50=CONICAL_SURFACE('',#1198,0.,45.);
#51=CONICAL_SURFACE('',#1199,0.,45.);
#52=CONICAL_SURFACE('',#1203,0.,45.);
#53=CONICAL_SURFACE('',#1204,0.,45.);
#54=CYLINDRICAL_SURFACE('',#1156,0.0703);
#55=CYLINDRICAL_SURFACE('',#1161,0.0703);
#56=CYLINDRICAL_SURFACE('',#1177,0.0703);
#57=CYLINDRICAL_SURFACE('',#1182,0.0703);
#58=CYLINDRICAL_SURFACE('',#1197,0.0703);
#59=CYLINDRICAL_SURFACE('',#1202,0.0703);
#60=FACE_BOUND('',#274,.T.);
#61=FACE_BOUND('',#275,.T.);
#62=FACE_BOUND('',#276,.T.);
#63=FACE_BOUND('',#277,.T.);
#64=FACE_BOUND('',#278,.T.);
#65=FACE_BOUND('',#279,.T.);
#66=FACE_BOUND('',#280,.T.);
#67=FACE_BOUND('',#281,.T.);
#68=FACE_BOUND('',#282,.T.);
#69=FACE_BOUND('',#283,.T.);
#70=FACE_BOUND('',#284,.T.);
#71=FACE_BOUND('',#285,.T.);
#72=FACE_BOUND('',#286,.T.);
#73=FACE_BOUND('',#287,.T.);
#74=FACE_BOUND('',#305,.T.);
#75=FACE_BOUND('',#306,.T.);
#76=FACE_BOUND('',#307,.T.);
#77=FACE_BOUND('',#308,.T.);
#78=FACE_BOUND('',#309,.T.);
#79=FACE_BOUND('',#310,.T.);
#80=FACE_BOUND('',#311,.T.);
#81=FACE_BOUND('',#312,.T.);
#82=FACE_BOUND('',#313,.T.);
#83=FACE_BOUND('',#314,.T.);
#84=FACE_BOUND('',#315,.T.);
#85=FACE_BOUND('',#316,.T.);
#86=FACE_BOUND('',#328,.T.);
#87=FACE_BOUND('',#329,.T.);
#88=FACE_BOUND('',#330,.T.);
#89=FACE_BOUND('',#331,.T.);
#90=FACE_BOUND('',#332,.T.);
#91=FACE_BOUND('',#333,.T.);
#92=FACE_BOUND('',#334,.T.);
#93=FACE_BOUND('',#335,.T.);
#94=FACE_BOUND('',#336,.T.);
#95=FACE_BOUND('',#337,.T.);
#96=FACE_BOUND('',#338,.T.);
#97=FACE_BOUND('',#339,.T.);
#98=FACE_BOUND('',#350,.T.);
#99=FACE_BOUND('',#351,.T.);
#100=FACE_BOUND('',#352,.T.);
#101=FACE_BOUND('',#353,.T.);
#102=FACE_BOUND('',#354,.T.);
#103=FACE_BOUND('',#355,.T.);
#104=FACE_BOUND('',#356,.T.);
#105=FACE_BOUND('',#357,.T.);
#106=FACE_BOUND('',#358,.T.);
#107=FACE_BOUND('',#359,.T.);
#108=FACE_BOUND('',#360,.T.);
#109=FACE_BOUND('',#361,.T.);
#110=CIRCLE('',#1123,0.0852999999999959);
#111=CIRCLE('',#1124,0.0853000000000017);
#112=CIRCLE('',#1125,0.0852999999999974);
#113=CIRCLE('',#1126,0.0853000000000011);
#114=CIRCLE('',#1127,0.0853000000000036);
#115=CIRCLE('',#1128,0.0853000000000033);
#116=CIRCLE('',#1130,0.0853);
#117=CIRCLE('',#1131,0.0853);
#118=CIRCLE('',#1132,0.0852999999999998);
#119=CIRCLE('',#1133,0.0853);
#120=CIRCLE('',#1134,0.0853000000000001);
#121=CIRCLE('',#1135,0.0853);
#122=CIRCLE('',#1154,0.0703);
#123=CIRCLE('',#1155,0.0703);
#124=CIRCLE('',#1159,0.0703);
#125=CIRCLE('',#1160,0.0703);
#126=CIRCLE('',#1175,0.0703);
#127=CIRCLE('',#1176,0.0703);
#128=CIRCLE('',#1180,0.0703);
#129=CIRCLE('',#1181,0.0703);
#130=CIRCLE('',#1195,0.0703);
#131=CIRCLE('',#1196,0.0703);
#132=CIRCLE('',#1200,0.0703);
#133=CIRCLE('',#1201,0.0703);
#134=ADVANCED_FACE('',(#234),#193,.F.);
#135=ADVANCED_FACE('',(#60,#61,#62,#63,#64,#65,#66),#194,.T.);
#136=ADVANCED_FACE('',(#67,#68,#69,#70,#71,#72,#73),#195,.F.);
#137=ADVANCED_FACE('',(#235),#196,.F.);
#138=ADVANCED_FACE('',(#236),#197,.F.);
#139=ADVANCED_FACE('',(#237),#198,.F.);
#140=ADVANCED_FACE('',(#238),#199,.F.);
#141=ADVANCED_FACE('',(#239),#200,.F.);
#142=ADVANCED_FACE('',(#240),#201,.F.);
#143=ADVANCED_FACE('',(#241),#202,.F.);
#144=ADVANCED_FACE('',(#242),#203,.F.);
#145=ADVANCED_FACE('',(#243),#204,.T.);
#146=ADVANCED_FACE('',(#244),#205,.T.);
#147=ADVANCED_FACE('',(#245),#206,.T.);
#148=ADVANCED_FACE('',(#246),#207,.F.);
#149=ADVANCED_FACE('',(#247),#208,.F.);
#150=ADVANCED_FACE('',(#248),#209,.F.);
#151=ADVANCED_FACE('',(#249),#210,.F.);
#152=ADVANCED_FACE('',(#250),#211,.F.);
#153=ADVANCED_FACE('',(#251),#212,.F.);
#154=ADVANCED_FACE('',(#74,#75),#54,.F.);
#155=ADVANCED_FACE('',(#76,#77),#42,.F.);
#156=ADVANCED_FACE('',(#78,#79),#43,.F.);
#157=ADVANCED_FACE('',(#80,#81),#55,.F.);
#158=ADVANCED_FACE('',(#82,#83),#44,.F.);
#159=ADVANCED_FACE('',(#84,#85),#45,.F.);
#160=ADVANCED_FACE('',(#252),#213,.T.);
#161=ADVANCED_FACE('',(#253),#214,.T.);
#162=ADVANCED_FACE('',(#254),#215,.T.);
#163=ADVANCED_FACE('',(#255),#216,.F.);
#164=ADVANCED_FACE('',(#256),#217,.F.);
#165=ADVANCED_FACE('',(#257),#218,.F.);
#166=ADVANCED_FACE('',(#258),#219,.F.);
#167=ADVANCED_FACE('',(#259),#220,.F.);
#168=ADVANCED_FACE('',(#260),#221,.F.);
#169=ADVANCED_FACE('',(#261),#222,.F.);
#170=ADVANCED_FACE('',(#262),#223,.F.);
#171=ADVANCED_FACE('',(#86,#87),#56,.F.);
#172=ADVANCED_FACE('',(#88,#89),#46,.F.);
#173=ADVANCED_FACE('',(#90,#91),#47,.F.);
#174=ADVANCED_FACE('',(#92,#93),#57,.F.);
#175=ADVANCED_FACE('',(#94,#95),#48,.F.);
#176=ADVANCED_FACE('',(#96,#97),#49,.F.);
#177=ADVANCED_FACE('',(#263),#224,.T.);
#178=ADVANCED_FACE('',(#264),#225,.T.);
#179=ADVANCED_FACE('',(#265),#226,.F.);
#180=ADVANCED_FACE('',(#266),#227,.F.);
#181=ADVANCED_FACE('',(#267),#228,.F.);
#182=ADVANCED_FACE('',(#268),#229,.F.);
#183=ADVANCED_FACE('',(#269),#230,.F.);
#184=ADVANCED_FACE('',(#270),#231,.F.);
#185=ADVANCED_FACE('',(#271),#232,.F.);
#186=ADVANCED_FACE('',(#272),#233,.F.);
#187=ADVANCED_FACE('',(#98,#99),#58,.F.);
#188=ADVANCED_FACE('',(#100,#101),#50,.F.);
#189=ADVANCED_FACE('',(#102,#103),#51,.F.);
#190=ADVANCED_FACE('',(#104,#105),#59,.F.);
#191=ADVANCED_FACE('',(#106,#107),#52,.F.);
#192=ADVANCED_FACE('',(#108,#109),#53,.F.);
#193=PLANE('',#1122);
#194=PLANE('',#1129);
#195=PLANE('',#1136);
#196=PLANE('',#1137);
#197=PLANE('',#1138);
#198=PLANE('',#1139);
#199=PLANE('',#1140);
#200=PLANE('',#1141);
#201=PLANE('',#1142);
#202=PLANE('',#1143);
#203=PLANE('',#1144);
#204=PLANE('',#1145);
#205=PLANE('',#1146);
#206=PLANE('',#1147);
#207=PLANE('',#1148);
#208=PLANE('',#1149);
#209=PLANE('',#1150);
#210=PLANE('',#1151);
#211=PLANE('',#1152);
#212=PLANE('',#1153);
#213=PLANE('',#1164);
#214=PLANE('',#1165);
#215=PLANE('',#1166);
#216=PLANE('',#1167);
#217=PLANE('',#1168);
#218=PLANE('',#1169);
#219=PLANE('',#1170);
#220=PLANE('',#1171);
#221=PLANE('',#1172);
#222=PLANE('',#1173);
#223=PLANE('',#1174);
#224=PLANE('',#1185);
#225=PLANE('',#1186);
#226=PLANE('',#1187);
#227=PLANE('',#1188);
#228=PLANE('',#1189);
#229=PLANE('',#1190);
#230=PLANE('',#1191);
#231=PLANE('',#1192);
#232=PLANE('',#1193);
#233=PLANE('',#1194);
#234=FACE_OUTER_BOUND('',#273,.T.);
#235=FACE_OUTER_BOUND('',#288,.T.);
#236=FACE_OUTER_BOUND('',#289,.T.);
#237=FACE_OUTER_BOUND('',#290,.T.);
#238=FACE_OUTER_BOUND('',#291,.T.);
#239=FACE_OUTER_BOUND('',#292,.T.);
#240=FACE_OUTER_BOUND('',#293,.T.);
#241=FACE_OUTER_BOUND('',#294,.T.);
#242=FACE_OUTER_BOUND('',#295,.T.);
#243=FACE_OUTER_BOUND('',#296,.T.);
#244=FACE_OUTER_BOUND('',#297,.T.);
#245=FACE_OUTER_BOUND('',#298,.T.);
#246=FACE_OUTER_BOUND('',#299,.T.);
#247=FACE_OUTER_BOUND('',#300,.T.);
#248=FACE_OUTER_BOUND('',#301,.T.);
#249=FACE_OUTER_BOUND('',#302,.T.);
#250=FACE_OUTER_BOUND('',#303,.T.);
#251=FACE_OUTER_BOUND('',#304,.T.);
#252=FACE_OUTER_BOUND('',#317,.T.);
#253=FACE_OUTER_BOUND('',#318,.T.);
#254=FACE_OUTER_BOUND('',#319,.T.);
#255=FACE_OUTER_BOUND('',#320,.T.);
#256=FACE_OUTER_BOUND('',#321,.T.);
#257=FACE_OUTER_BOUND('',#322,.T.);
#258=FACE_OUTER_BOUND('',#323,.T.);
#259=FACE_OUTER_BOUND('',#324,.T.);
#260=FACE_OUTER_BOUND('',#325,.T.);
#261=FACE_OUTER_BOUND('',#326,.T.);
#262=FACE_OUTER_BOUND('',#327,.T.);
#263=FACE_OUTER_BOUND('',#340,.T.);
#264=FACE_OUTER_BOUND('',#341,.T.);
#265=FACE_OUTER_BOUND('',#342,.T.);
#266=FACE_OUTER_BOUND('',#343,.T.);
#267=FACE_OUTER_BOUND('',#344,.T.);
#268=FACE_OUTER_BOUND('',#345,.T.);
#269=FACE_OUTER_BOUND('',#346,.T.);
#270=FACE_OUTER_BOUND('',#347,.T.);
#271=FACE_OUTER_BOUND('',#348,.T.);
#272=FACE_OUTER_BOUND('',#349,.T.);
#273=EDGE_LOOP('',(#362,#363,#364,#365));
#274=EDGE_LOOP('',(#366));
#275=EDGE_LOOP('',(#367));
#276=EDGE_LOOP('',(#368,#369,#370,#371,#372,#373,#374,#375,#376,#377,#378,
#379,#380,#381,#382,#383,#384,#385,#386,#387,#388,#389,#390,#391,#392,#393,
#394,#395,#396,#397,#398,#399,#400,#401,#402,#403,#404,#405,#406));
#277=EDGE_LOOP('',(#407));
#278=EDGE_LOOP('',(#408));
#279=EDGE_LOOP('',(#409));
#280=EDGE_LOOP('',(#410));
#281=EDGE_LOOP('',(#411));
#282=EDGE_LOOP('',(#412));
#283=EDGE_LOOP('',(#413,#414,#415,#416,#417,#418,#419,#420,#421,#422,#423,
#424,#425,#426,#427,#428,#429,#430,#431,#432,#433,#434,#435,#436,#437,#438,
#439,#440,#441,#442,#443,#444,#445,#446,#447,#448,#449,#450,#451));
#284=EDGE_LOOP('',(#452));
#285=EDGE_LOOP('',(#453));
#286=EDGE_LOOP('',(#454));
#287=EDGE_LOOP('',(#455));
#288=EDGE_LOOP('',(#456,#457,#458,#459));
#289=EDGE_LOOP('',(#460,#461,#462,#463));
#290=EDGE_LOOP('',(#464,#465,#466,#467));
#291=EDGE_LOOP('',(#468,#469,#470,#471));
#292=EDGE_LOOP('',(#472,#473,#474,#475));
#293=EDGE_LOOP('',(#476,#477,#478,#479));
#294=EDGE_LOOP('',(#480,#481,#482,#483));
#295=EDGE_LOOP('',(#484,#485,#486,#487));
#296=EDGE_LOOP('',(#488,#489,#490,#491));
#297=EDGE_LOOP('',(#492,#493,#494,#495));
#298=EDGE_LOOP('',(#496,#497,#498,#499));
#299=EDGE_LOOP('',(#500,#501,#502,#503));
#300=EDGE_LOOP('',(#504,#505,#506,#507));
#301=EDGE_LOOP('',(#508,#509,#510,#511));
#302=EDGE_LOOP('',(#512,#513,#514,#515));
#303=EDGE_LOOP('',(#516,#517,#518,#519));
#304=EDGE_LOOP('',(#520,#521,#522,#523));
#305=EDGE_LOOP('',(#524));
#306=EDGE_LOOP('',(#525));
#307=EDGE_LOOP('',(#526));
#308=EDGE_LOOP('',(#527));
#309=EDGE_LOOP('',(#528));
#310=EDGE_LOOP('',(#529));
#311=EDGE_LOOP('',(#530));
#312=EDGE_LOOP('',(#531));
#313=EDGE_LOOP('',(#532));
#314=EDGE_LOOP('',(#533));
#315=EDGE_LOOP('',(#534));
#316=EDGE_LOOP('',(#535));
#317=EDGE_LOOP('',(#536,#537,#538,#539));
#318=EDGE_LOOP('',(#540,#541,#542,#543));
#319=EDGE_LOOP('',(#544,#545,#546,#547));
#320=EDGE_LOOP('',(#548,#549,#550,#551));
#321=EDGE_LOOP('',(#552,#553,#554,#555));
#322=EDGE_LOOP('',(#556,#557,#558,#559));
#323=EDGE_LOOP('',(#560,#561,#562,#563));
#324=EDGE_LOOP('',(#564,#565,#566,#567));
#325=EDGE_LOOP('',(#568,#569,#570,#571));
#326=EDGE_LOOP('',(#572,#573,#574,#575));
#327=EDGE_LOOP('',(#576,#577,#578,#579));
#328=EDGE_LOOP('',(#580));
#329=EDGE_LOOP('',(#581));
#330=EDGE_LOOP('',(#582));
#331=EDGE_LOOP('',(#583));
#332=EDGE_LOOP('',(#584));
#333=EDGE_LOOP('',(#585));
#334=EDGE_LOOP('',(#586));
#335=EDGE_LOOP('',(#587));
#336=EDGE_LOOP('',(#588));
#337=EDGE_LOOP('',(#589));
#338=EDGE_LOOP('',(#590));
#339=EDGE_LOOP('',(#591));
#340=EDGE_LOOP('',(#592,#593,#594,#595));
#341=EDGE_LOOP('',(#596,#597,#598,#599));
#342=EDGE_LOOP('',(#600,#601,#602,#603));
#343=EDGE_LOOP('',(#604,#605,#606,#607));
#344=EDGE_LOOP('',(#608,#609,#610,#611));
#345=EDGE_LOOP('',(#612,#613,#614,#615));
#346=EDGE_LOOP('',(#616,#617,#618,#619));
#347=EDGE_LOOP('',(#620,#621,#622,#623));
#348=EDGE_LOOP('',(#624,#625,#626,#627));
#349=EDGE_LOOP('',(#628,#629,#630,#631));
#350=EDGE_LOOP('',(#632));
#351=EDGE_LOOP('',(#633));
#352=EDGE_LOOP('',(#634));
#353=EDGE_LOOP('',(#635));
#354=EDGE_LOOP('',(#636));
#355=EDGE_LOOP('',(#637));
#356=EDGE_LOOP('',(#638));
#357=EDGE_LOOP('',(#639));
#358=EDGE_LOOP('',(#640));
#359=EDGE_LOOP('',(#641));
#360=EDGE_LOOP('',(#642));
#361=EDGE_LOOP('',(#643));
#362=ORIENTED_EDGE('',*,*,#746,.F.);
#363=ORIENTED_EDGE('',*,*,#747,.F.);
#364=ORIENTED_EDGE('',*,*,#748,.T.);
#365=ORIENTED_EDGE('',*,*,#749,.T.);
#366=ORIENTED_EDGE('',*,*,#750,.F.);
#367=ORIENTED_EDGE('',*,*,#751,.F.);
#368=ORIENTED_EDGE('',*,*,#752,.F.);
#369=ORIENTED_EDGE('',*,*,#753,.T.);
#370=ORIENTED_EDGE('',*,*,#754,.T.);
#371=ORIENTED_EDGE('',*,*,#755,.T.);
#372=ORIENTED_EDGE('',*,*,#756,.T.);
#373=ORIENTED_EDGE('',*,*,#757,.T.);
#374=ORIENTED_EDGE('',*,*,#758,.T.);
#375=ORIENTED_EDGE('',*,*,#759,.T.);
#376=ORIENTED_EDGE('',*,*,#760,.T.);
#377=ORIENTED_EDGE('',*,*,#761,.T.);
#378=ORIENTED_EDGE('',*,*,#762,.T.);
#379=ORIENTED_EDGE('',*,*,#763,.T.);
#380=ORIENTED_EDGE('',*,*,#764,.T.);
#381=ORIENTED_EDGE('',*,*,#765,.T.);
#382=ORIENTED_EDGE('',*,*,#766,.T.);
#383=ORIENTED_EDGE('',*,*,#767,.F.);
#384=ORIENTED_EDGE('',*,*,#768,.F.);
#385=ORIENTED_EDGE('',*,*,#769,.F.);
#386=ORIENTED_EDGE('',*,*,#770,.F.);
#387=ORIENTED_EDGE('',*,*,#771,.F.);
#388=ORIENTED_EDGE('',*,*,#772,.T.);
#389=ORIENTED_EDGE('',*,*,#773,.F.);
#390=ORIENTED_EDGE('',*,*,#774,.T.);
#391=ORIENTED_EDGE('',*,*,#775,.F.);
#392=ORIENTED_EDGE('',*,*,#776,.F.);
#393=ORIENTED_EDGE('',*,*,#777,.F.);
#394=ORIENTED_EDGE('',*,*,#778,.F.);
#395=ORIENTED_EDGE('',*,*,#779,.F.);
#396=ORIENTED_EDGE('',*,*,#780,.F.);
#397=ORIENTED_EDGE('',*,*,#781,.F.);
#398=ORIENTED_EDGE('',*,*,#782,.F.);
#399=ORIENTED_EDGE('',*,*,#747,.T.);
#400=ORIENTED_EDGE('',*,*,#783,.F.);
#401=ORIENTED_EDGE('',*,*,#784,.F.);
#402=ORIENTED_EDGE('',*,*,#785,.F.);
#403=ORIENTED_EDGE('',*,*,#786,.F.);
#404=ORIENTED_EDGE('',*,*,#787,.F.);
#405=ORIENTED_EDGE('',*,*,#788,.F.);
#406=ORIENTED_EDGE('',*,*,#789,.F.);
#407=ORIENTED_EDGE('',*,*,#790,.F.);
#408=ORIENTED_EDGE('',*,*,#791,.F.);
#409=ORIENTED_EDGE('',*,*,#792,.F.);
#410=ORIENTED_EDGE('',*,*,#793,.F.);
#411=ORIENTED_EDGE('',*,*,#794,.T.);
#412=ORIENTED_EDGE('',*,*,#795,.T.);
#413=ORIENTED_EDGE('',*,*,#796,.F.);
#414=ORIENTED_EDGE('',*,*,#797,.T.);
#415=ORIENTED_EDGE('',*,*,#798,.T.);
#416=ORIENTED_EDGE('',*,*,#799,.T.);
#417=ORIENTED_EDGE('',*,*,#800,.T.);
#418=ORIENTED_EDGE('',*,*,#801,.T.);
#419=ORIENTED_EDGE('',*,*,#802,.T.);
#420=ORIENTED_EDGE('',*,*,#803,.T.);
#421=ORIENTED_EDGE('',*,*,#804,.T.);
#422=ORIENTED_EDGE('',*,*,#749,.F.);
#423=ORIENTED_EDGE('',*,*,#805,.T.);
#424=ORIENTED_EDGE('',*,*,#806,.T.);
#425=ORIENTED_EDGE('',*,*,#807,.T.);
#426=ORIENTED_EDGE('',*,*,#808,.T.);
#427=ORIENTED_EDGE('',*,*,#809,.T.);
#428=ORIENTED_EDGE('',*,*,#810,.T.);
#429=ORIENTED_EDGE('',*,*,#811,.T.);
#430=ORIENTED_EDGE('',*,*,#812,.T.);
#431=ORIENTED_EDGE('',*,*,#813,.F.);
#432=ORIENTED_EDGE('',*,*,#814,.T.);
#433=ORIENTED_EDGE('',*,*,#815,.F.);
#434=ORIENTED_EDGE('',*,*,#816,.T.);
#435=ORIENTED_EDGE('',*,*,#817,.T.);
#436=ORIENTED_EDGE('',*,*,#818,.T.);
#437=ORIENTED_EDGE('',*,*,#819,.T.);
#438=ORIENTED_EDGE('',*,*,#820,.T.);
#439=ORIENTED_EDGE('',*,*,#821,.F.);
#440=ORIENTED_EDGE('',*,*,#822,.F.);
#441=ORIENTED_EDGE('',*,*,#823,.F.);
#442=ORIENTED_EDGE('',*,*,#824,.F.);
#443=ORIENTED_EDGE('',*,*,#825,.F.);
#444=ORIENTED_EDGE('',*,*,#826,.F.);
#445=ORIENTED_EDGE('',*,*,#827,.F.);
#446=ORIENTED_EDGE('',*,*,#828,.F.);
#447=ORIENTED_EDGE('',*,*,#829,.F.);
#448=ORIENTED_EDGE('',*,*,#830,.F.);
#449=ORIENTED_EDGE('',*,*,#831,.F.);
#450=ORIENTED_EDGE('',*,*,#832,.F.);
#451=ORIENTED_EDGE('',*,*,#833,.F.);
#452=ORIENTED_EDGE('',*,*,#834,.T.);
#453=ORIENTED_EDGE('',*,*,#835,.T.);
#454=ORIENTED_EDGE('',*,*,#836,.T.);
#455=ORIENTED_EDGE('',*,*,#837,.T.);
#456=ORIENTED_EDGE('',*,*,#838,.F.);
#457=ORIENTED_EDGE('',*,*,#754,.F.);
#458=ORIENTED_EDGE('',*,*,#839,.T.);
#459=ORIENTED_EDGE('',*,*,#833,.T.);
#460=ORIENTED_EDGE('',*,*,#840,.F.);
#461=ORIENTED_EDGE('',*,*,#774,.F.);
#462=ORIENTED_EDGE('',*,*,#841,.T.);
#463=ORIENTED_EDGE('',*,*,#813,.T.);
#464=ORIENTED_EDGE('',*,*,#757,.F.);
#465=ORIENTED_EDGE('',*,*,#842,.T.);
#466=ORIENTED_EDGE('',*,*,#830,.T.);
#467=ORIENTED_EDGE('',*,*,#843,.F.);
#468=ORIENTED_EDGE('',*,*,#844,.F.);
#469=ORIENTED_EDGE('',*,*,#766,.F.);
#470=ORIENTED_EDGE('',*,*,#845,.T.);
#471=ORIENTED_EDGE('',*,*,#821,.T.);
#472=ORIENTED_EDGE('',*,*,#772,.F.);
#473=ORIENTED_EDGE('',*,*,#846,.T.);
#474=ORIENTED_EDGE('',*,*,#815,.T.);
#475=ORIENTED_EDGE('',*,*,#847,.F.);
#476=ORIENTED_EDGE('',*,*,#761,.F.);
#477=ORIENTED_EDGE('',*,*,#848,.T.);
#478=ORIENTED_EDGE('',*,*,#826,.T.);
#479=ORIENTED_EDGE('',*,*,#849,.F.);
#480=ORIENTED_EDGE('',*,*,#765,.F.);
#481=ORIENTED_EDGE('',*,*,#850,.T.);
#482=ORIENTED_EDGE('',*,*,#822,.T.);
#483=ORIENTED_EDGE('',*,*,#845,.F.);
#484=ORIENTED_EDGE('',*,*,#753,.F.);
#485=ORIENTED_EDGE('',*,*,#851,.T.);
#486=ORIENTED_EDGE('',*,*,#796,.T.);
#487=ORIENTED_EDGE('',*,*,#839,.F.);
#488=ORIENTED_EDGE('',*,*,#852,.T.);
#489=ORIENTED_EDGE('',*,*,#824,.T.);
#490=ORIENTED_EDGE('',*,*,#853,.F.);
#491=ORIENTED_EDGE('',*,*,#763,.F.);
#492=ORIENTED_EDGE('',*,*,#853,.T.);
#493=ORIENTED_EDGE('',*,*,#823,.T.);
#494=ORIENTED_EDGE('',*,*,#850,.F.);
#495=ORIENTED_EDGE('',*,*,#764,.F.);
#496=ORIENTED_EDGE('',*,*,#762,.F.);
#497=ORIENTED_EDGE('',*,*,#849,.T.);
#498=ORIENTED_EDGE('',*,*,#825,.T.);
#499=ORIENTED_EDGE('',*,*,#852,.F.);
#500=ORIENTED_EDGE('',*,*,#844,.T.);
#501=ORIENTED_EDGE('',*,*,#820,.F.);
#502=ORIENTED_EDGE('',*,*,#854,.F.);
#503=ORIENTED_EDGE('',*,*,#767,.T.);
#504=ORIENTED_EDGE('',*,*,#854,.T.);
#505=ORIENTED_EDGE('',*,*,#819,.F.);
#506=ORIENTED_EDGE('',*,*,#855,.F.);
#507=ORIENTED_EDGE('',*,*,#768,.T.);
#508=ORIENTED_EDGE('',*,*,#855,.T.);
#509=ORIENTED_EDGE('',*,*,#818,.F.);
#510=ORIENTED_EDGE('',*,*,#856,.F.);
#511=ORIENTED_EDGE('',*,*,#769,.T.);
#512=ORIENTED_EDGE('',*,*,#856,.T.);
#513=ORIENTED_EDGE('',*,*,#817,.F.);
#514=ORIENTED_EDGE('',*,*,#857,.F.);
#515=ORIENTED_EDGE('',*,*,#770,.T.);
#516=ORIENTED_EDGE('',*,*,#857,.T.);
#517=ORIENTED_EDGE('',*,*,#816,.F.);
#518=ORIENTED_EDGE('',*,*,#846,.F.);
#519=ORIENTED_EDGE('',*,*,#771,.T.);
#520=ORIENTED_EDGE('',*,*,#847,.T.);
#521=ORIENTED_EDGE('',*,*,#814,.F.);
#522=ORIENTED_EDGE('',*,*,#841,.F.);
#523=ORIENTED_EDGE('',*,*,#773,.T.);
#524=ORIENTED_EDGE('',*,*,#858,.T.);
#525=ORIENTED_EDGE('',*,*,#859,.T.);
#526=ORIENTED_EDGE('',*,*,#793,.T.);
#527=ORIENTED_EDGE('',*,*,#859,.F.);
#528=ORIENTED_EDGE('',*,*,#858,.F.);
#529=ORIENTED_EDGE('',*,*,#835,.F.);
#530=ORIENTED_EDGE('',*,*,#860,.T.);
#531=ORIENTED_EDGE('',*,*,#861,.T.);
#532=ORIENTED_EDGE('',*,*,#792,.T.);
#533=ORIENTED_EDGE('',*,*,#861,.F.);
#534=ORIENTED_EDGE('',*,*,#860,.F.);
#535=ORIENTED_EDGE('',*,*,#834,.F.);
#536=ORIENTED_EDGE('',*,*,#862,.T.);
#537=ORIENTED_EDGE('',*,*,#828,.T.);
#538=ORIENTED_EDGE('',*,*,#863,.F.);
#539=ORIENTED_EDGE('',*,*,#759,.F.);
#540=ORIENTED_EDGE('',*,*,#863,.T.);
#541=ORIENTED_EDGE('',*,*,#827,.T.);
#542=ORIENTED_EDGE('',*,*,#848,.F.);
#543=ORIENTED_EDGE('',*,*,#760,.F.);
#544=ORIENTED_EDGE('',*,*,#758,.F.);
#545=ORIENTED_EDGE('',*,*,#843,.T.);
#546=ORIENTED_EDGE('',*,*,#829,.T.);
#547=ORIENTED_EDGE('',*,*,#862,.F.);
#548=ORIENTED_EDGE('',*,*,#840,.T.);
#549=ORIENTED_EDGE('',*,*,#812,.F.);
#550=ORIENTED_EDGE('',*,*,#864,.F.);
#551=ORIENTED_EDGE('',*,*,#775,.T.);
#552=ORIENTED_EDGE('',*,*,#864,.T.);
#553=ORIENTED_EDGE('',*,*,#811,.F.);
#554=ORIENTED_EDGE('',*,*,#865,.F.);
#555=ORIENTED_EDGE('',*,*,#776,.T.);
#556=ORIENTED_EDGE('',*,*,#865,.T.);
#557=ORIENTED_EDGE('',*,*,#810,.F.);
#558=ORIENTED_EDGE('',*,*,#866,.F.);
#559=ORIENTED_EDGE('',*,*,#777,.T.);
#560=ORIENTED_EDGE('',*,*,#866,.T.);
#561=ORIENTED_EDGE('',*,*,#809,.F.);
#562=ORIENTED_EDGE('',*,*,#867,.F.);
#563=ORIENTED_EDGE('',*,*,#778,.T.);
#564=ORIENTED_EDGE('',*,*,#867,.T.);
#565=ORIENTED_EDGE('',*,*,#808,.F.);
#566=ORIENTED_EDGE('',*,*,#868,.F.);
#567=ORIENTED_EDGE('',*,*,#779,.T.);
#568=ORIENTED_EDGE('',*,*,#868,.T.);
#569=ORIENTED_EDGE('',*,*,#807,.F.);
#570=ORIENTED_EDGE('',*,*,#869,.F.);
#571=ORIENTED_EDGE('',*,*,#780,.T.);
#572=ORIENTED_EDGE('',*,*,#869,.T.);
#573=ORIENTED_EDGE('',*,*,#806,.F.);
#574=ORIENTED_EDGE('',*,*,#870,.F.);
#575=ORIENTED_EDGE('',*,*,#781,.T.);
#576=ORIENTED_EDGE('',*,*,#870,.T.);
#577=ORIENTED_EDGE('',*,*,#805,.F.);
#578=ORIENTED_EDGE('',*,*,#748,.F.);
#579=ORIENTED_EDGE('',*,*,#782,.T.);
#580=ORIENTED_EDGE('',*,*,#871,.T.);
#581=ORIENTED_EDGE('',*,*,#872,.T.);
#582=ORIENTED_EDGE('',*,*,#791,.T.);
#583=ORIENTED_EDGE('',*,*,#872,.F.);
#584=ORIENTED_EDGE('',*,*,#871,.F.);
#585=ORIENTED_EDGE('',*,*,#836,.F.);
#586=ORIENTED_EDGE('',*,*,#873,.T.);
#587=ORIENTED_EDGE('',*,*,#874,.T.);
#588=ORIENTED_EDGE('',*,*,#790,.T.);
#589=ORIENTED_EDGE('',*,*,#874,.F.);
#590=ORIENTED_EDGE('',*,*,#837,.F.);
#591=ORIENTED_EDGE('',*,*,#873,.F.);
#592=ORIENTED_EDGE('',*,*,#875,.T.);
#593=ORIENTED_EDGE('',*,*,#831,.T.);
#594=ORIENTED_EDGE('',*,*,#842,.F.);
#595=ORIENTED_EDGE('',*,*,#756,.F.);
#596=ORIENTED_EDGE('',*,*,#755,.F.);
#597=ORIENTED_EDGE('',*,*,#838,.T.);
#598=ORIENTED_EDGE('',*,*,#832,.T.);
#599=ORIENTED_EDGE('',*,*,#875,.F.);
#600=ORIENTED_EDGE('',*,*,#746,.T.);
#601=ORIENTED_EDGE('',*,*,#804,.F.);
#602=ORIENTED_EDGE('',*,*,#876,.F.);
#603=ORIENTED_EDGE('',*,*,#783,.T.);
#604=ORIENTED_EDGE('',*,*,#876,.T.);
#605=ORIENTED_EDGE('',*,*,#803,.F.);
#606=ORIENTED_EDGE('',*,*,#877,.F.);
#607=ORIENTED_EDGE('',*,*,#784,.T.);
#608=ORIENTED_EDGE('',*,*,#877,.T.);
#609=ORIENTED_EDGE('',*,*,#802,.F.);
#610=ORIENTED_EDGE('',*,*,#878,.F.);
#611=ORIENTED_EDGE('',*,*,#785,.T.);
#612=ORIENTED_EDGE('',*,*,#878,.T.);
#613=ORIENTED_EDGE('',*,*,#801,.F.);
#614=ORIENTED_EDGE('',*,*,#879,.F.);
#615=ORIENTED_EDGE('',*,*,#786,.T.);
#616=ORIENTED_EDGE('',*,*,#879,.T.);
#617=ORIENTED_EDGE('',*,*,#800,.F.);
#618=ORIENTED_EDGE('',*,*,#880,.F.);
#619=ORIENTED_EDGE('',*,*,#787,.T.);
#620=ORIENTED_EDGE('',*,*,#880,.T.);
#621=ORIENTED_EDGE('',*,*,#799,.F.);
#622=ORIENTED_EDGE('',*,*,#881,.F.);
#623=ORIENTED_EDGE('',*,*,#788,.T.);
#624=ORIENTED_EDGE('',*,*,#881,.T.);
#625=ORIENTED_EDGE('',*,*,#798,.F.);
#626=ORIENTED_EDGE('',*,*,#882,.F.);
#627=ORIENTED_EDGE('',*,*,#789,.T.);
#628=ORIENTED_EDGE('',*,*,#882,.T.);
#629=ORIENTED_EDGE('',*,*,#797,.F.);
#630=ORIENTED_EDGE('',*,*,#851,.F.);
#631=ORIENTED_EDGE('',*,*,#752,.T.);
#632=ORIENTED_EDGE('',*,*,#883,.T.);
#633=ORIENTED_EDGE('',*,*,#884,.T.);
#634=ORIENTED_EDGE('',*,*,#751,.T.);
#635=ORIENTED_EDGE('',*,*,#884,.F.);
#636=ORIENTED_EDGE('',*,*,#883,.F.);
#637=ORIENTED_EDGE('',*,*,#795,.F.);
#638=ORIENTED_EDGE('',*,*,#885,.T.);
#639=ORIENTED_EDGE('',*,*,#886,.T.);
#640=ORIENTED_EDGE('',*,*,#750,.T.);
#641=ORIENTED_EDGE('',*,*,#886,.F.);
#642=ORIENTED_EDGE('',*,*,#885,.F.);
#643=ORIENTED_EDGE('',*,*,#794,.F.);
#644=VERTEX_POINT('',#1492);
#645=VERTEX_POINT('',#1493);
#646=VERTEX_POINT('',#1495);
#647=VERTEX_POINT('',#1497);
#648=VERTEX_POINT('',#1501);
#649=VERTEX_POINT('',#1503);
#650=VERTEX_POINT('',#1505);
#651=VERTEX_POINT('',#1506);
#652=VERTEX_POINT('',#1508);
#653=VERTEX_POINT('',#1510);
#654=VERTEX_POINT('',#1512);
#655=VERTEX_POINT('',#1514);
#656=VERTEX_POINT('',#1516);
#657=VERTEX_POINT('',#1518);
#658=VERTEX_POINT('',#1520);
#659=VERTEX_POINT('',#1522);
#660=VERTEX_POINT('',#1524);
#661=VERTEX_POINT('',#1526);
#662=VERTEX_POINT('',#1528);
#663=VERTEX_POINT('',#1530);
#664=VERTEX_POINT('',#1532);
#665=VERTEX_POINT('',#1534);
#666=VERTEX_POINT('',#1536);
#667=VERTEX_POINT('',#1538);
#668=VERTEX_POINT('',#1540);
#669=VERTEX_POINT('',#1542);
#670=VERTEX_POINT('',#1544);
#671=VERTEX_POINT('',#1546);
#672=VERTEX_POINT('',#1548);
#673=VERTEX_POINT('',#1550);
#674=VERTEX_POINT('',#1552);
#675=VERTEX_POINT('',#1554);
#676=VERTEX_POINT('',#1556);
#677=VERTEX_POINT('',#1558);
#678=VERTEX_POINT('',#1560);
#679=VERTEX_POINT('',#1562);
#680=VERTEX_POINT('',#1564);
#681=VERTEX_POINT('',#1567);
#682=VERTEX_POINT('',#1569);
#683=VERTEX_POINT('',#1571);
#684=VERTEX_POINT('',#1573);
#685=VERTEX_POINT('',#1575);
#686=VERTEX_POINT('',#1577);
#687=VERTEX_POINT('',#1580);
#688=VERTEX_POINT('',#1582);
#689=VERTEX_POINT('',#1584);
#690=VERTEX_POINT('',#1586);
#691=VERTEX_POINT('',#1589);
#692=VERTEX_POINT('',#1591);
#693=VERTEX_POINT('',#1593);
#694=VERTEX_POINT('',#1594);
#695=VERTEX_POINT('',#1596);
#696=VERTEX_POINT('',#1598);
#697=VERTEX_POINT('',#1600);
#698=VERTEX_POINT('',#1602);
#699=VERTEX_POINT('',#1604);
#700=VERTEX_POINT('',#1606);
#701=VERTEX_POINT('',#1608);
#702=VERTEX_POINT('',#1611);
#703=VERTEX_POINT('',#1613);
#704=VERTEX_POINT('',#1615);
#705=VERTEX_POINT('',#1617);
#706=VERTEX_POINT('',#1619);
#707=VERTEX_POINT('',#1621);
#708=VERTEX_POINT('',#1623);
#709=VERTEX_POINT('',#1625);
#710=VERTEX_POINT('',#1627);
#711=VERTEX_POINT('',#1629);
#712=VERTEX_POINT('',#1631);
#713=VERTEX_POINT('',#1633);
#714=VERTEX_POINT('',#1635);
#715=VERTEX_POINT('',#1637);
#716=VERTEX_POINT('',#1639);
#717=VERTEX_POINT('',#1641);
#718=VERTEX_POINT('',#1643);
#719=VERTEX_POINT('',#1645);
#720=VERTEX_POINT('',#1647);
#721=VERTEX_POINT('',#1649);
#722=VERTEX_POINT('',#1651);
#723=VERTEX_POINT('',#1653);
#724=VERTEX_POINT('',#1655);
#725=VERTEX_POINT('',#1657);
#726=VERTEX_POINT('',#1659);
#727=VERTEX_POINT('',#1661);
#728=VERTEX_POINT('',#1663);
#729=VERTEX_POINT('',#1665);
#730=VERTEX_POINT('',#1668);
#731=VERTEX_POINT('',#1670);
#732=VERTEX_POINT('',#1672);
#733=VERTEX_POINT('',#1674);
#734=VERTEX_POINT('',#1714);
#735=VERTEX_POINT('',#1716);
#736=VERTEX_POINT('',#1721);
#737=VERTEX_POINT('',#1723);
#738=VERTEX_POINT('',#1748);
#739=VERTEX_POINT('',#1750);
#740=VERTEX_POINT('',#1755);
#741=VERTEX_POINT('',#1757);
#742=VERTEX_POINT('',#1780);
#743=VERTEX_POINT('',#1782);
#744=VERTEX_POINT('',#1787);
#745=VERTEX_POINT('',#1789);
#746=EDGE_CURVE('',#644,#645,#887,.T.);
#747=EDGE_CURVE('',#646,#644,#888,.T.);
#748=EDGE_CURVE('',#646,#647,#889,.T.);
#749=EDGE_CURVE('',#647,#645,#890,.T.);
#750=EDGE_CURVE('',#648,#648,#110,.T.);
#751=EDGE_CURVE('',#649,#649,#111,.T.);
#752=EDGE_CURVE('',#650,#651,#891,.T.);
#753=EDGE_CURVE('',#650,#652,#892,.T.);
#754=EDGE_CURVE('',#652,#653,#893,.T.);
#755=EDGE_CURVE('',#653,#654,#894,.T.);
#756=EDGE_CURVE('',#654,#655,#895,.T.);
#757=EDGE_CURVE('',#655,#656,#896,.T.);
#758=EDGE_CURVE('',#656,#657,#897,.T.);
#759=EDGE_CURVE('',#657,#658,#898,.T.);
#760=EDGE_CURVE('',#658,#659,#899,.T.);
#761=EDGE_CURVE('',#659,#660,#900,.T.);
#762=EDGE_CURVE('',#660,#661,#901,.T.);
#763=EDGE_CURVE('',#661,#662,#902,.T.);
#764=EDGE_CURVE('',#662,#663,#903,.T.);
#765=EDGE_CURVE('',#663,#664,#904,.T.);
#766=EDGE_CURVE('',#664,#665,#905,.T.);
#767=EDGE_CURVE('',#666,#665,#906,.T.);
#768=EDGE_CURVE('',#667,#666,#907,.T.);
#769=EDGE_CURVE('',#668,#667,#908,.T.);
#770=EDGE_CURVE('',#669,#668,#909,.T.);
#771=EDGE_CURVE('',#670,#669,#910,.T.);
#772=EDGE_CURVE('',#670,#671,#911,.T.);
#773=EDGE_CURVE('',#672,#671,#912,.T.);
#774=EDGE_CURVE('',#672,#673,#913,.T.);
#775=EDGE_CURVE('',#674,#673,#914,.T.);
#776=EDGE_CURVE('',#675,#674,#915,.T.);
#777=EDGE_CURVE('',#676,#675,#916,.T.);
#778=EDGE_CURVE('',#677,#676,#917,.T.);
#779=EDGE_CURVE('',#678,#677,#918,.T.);
#780=EDGE_CURVE('',#679,#678,#919,.T.);
#781=EDGE_CURVE('',#680,#679,#920,.T.);
#782=EDGE_CURVE('',#646,#680,#921,.T.);
#783=EDGE_CURVE('',#681,#644,#922,.T.);
#784=EDGE_CURVE('',#682,#681,#923,.T.);
#785=EDGE_CURVE('',#683,#682,#924,.T.);
#786=EDGE_CURVE('',#684,#683,#925,.T.);
#787=EDGE_CURVE('',#685,#684,#926,.T.);
#788=EDGE_CURVE('',#686,#685,#927,.T.);
#789=EDGE_CURVE('',#651,#686,#928,.T.);
#790=EDGE_CURVE('',#687,#687,#112,.T.);
#791=EDGE_CURVE('',#688,#688,#113,.T.);
#792=EDGE_CURVE('',#689,#689,#114,.T.);
#793=EDGE_CURVE('',#690,#690,#115,.T.);
#794=EDGE_CURVE('',#691,#691,#116,.T.);
#795=EDGE_CURVE('',#692,#692,#117,.T.);
#796=EDGE_CURVE('',#693,#694,#929,.T.);
#797=EDGE_CURVE('',#693,#695,#930,.T.);
#798=EDGE_CURVE('',#695,#696,#931,.T.);
#799=EDGE_CURVE('',#696,#697,#932,.T.);
#800=EDGE_CURVE('',#697,#698,#933,.T.);
#801=EDGE_CURVE('',#698,#699,#934,.T.);
#802=EDGE_CURVE('',#699,#700,#935,.T.);
#803=EDGE_CURVE('',#700,#701,#936,.T.);
#804=EDGE_CURVE('',#701,#645,#937,.T.);
#805=EDGE_CURVE('',#647,#702,#938,.T.);
#806=EDGE_CURVE('',#702,#703,#939,.T.);
#807=EDGE_CURVE('',#703,#704,#940,.T.);
#808=EDGE_CURVE('',#704,#705,#941,.T.);
#809=EDGE_CURVE('',#705,#706,#942,.T.);
#810=EDGE_CURVE('',#706,#707,#943,.T.);
#811=EDGE_CURVE('',#707,#708,#944,.T.);
#812=EDGE_CURVE('',#708,#709,#945,.T.);
#813=EDGE_CURVE('',#710,#709,#946,.T.);
#814=EDGE_CURVE('',#710,#711,#947,.T.);
#815=EDGE_CURVE('',#712,#711,#948,.T.);
#816=EDGE_CURVE('',#712,#713,#949,.T.);
#817=EDGE_CURVE('',#713,#714,#950,.T.);
#818=EDGE_CURVE('',#714,#715,#951,.T.);
#819=EDGE_CURVE('',#715,#716,#952,.T.);
#820=EDGE_CURVE('',#716,#717,#953,.T.);
#821=EDGE_CURVE('',#718,#717,#954,.T.);
#822=EDGE_CURVE('',#719,#718,#955,.T.);
#823=EDGE_CURVE('',#720,#719,#956,.T.);
#824=EDGE_CURVE('',#721,#720,#957,.T.);
#825=EDGE_CURVE('',#722,#721,#958,.T.);
#826=EDGE_CURVE('',#723,#722,#959,.T.);
#827=EDGE_CURVE('',#724,#723,#960,.T.);
#828=EDGE_CURVE('',#725,#724,#961,.T.);
#829=EDGE_CURVE('',#726,#725,#962,.T.);
#830=EDGE_CURVE('',#727,#726,#963,.T.);
#831=EDGE_CURVE('',#728,#727,#964,.T.);
#832=EDGE_CURVE('',#729,#728,#965,.T.);
#833=EDGE_CURVE('',#694,#729,#966,.T.);
#834=EDGE_CURVE('',#730,#730,#118,.T.);
#835=EDGE_CURVE('',#731,#731,#119,.T.);
#836=EDGE_CURVE('',#732,#732,#120,.T.);
#837=EDGE_CURVE('',#733,#733,#121,.T.);
#838=EDGE_CURVE('',#653,#729,#967,.T.);
#839=EDGE_CURVE('',#652,#694,#968,.T.);
#840=EDGE_CURVE('',#673,#709,#969,.T.);
#841=EDGE_CURVE('',#672,#710,#970,.T.);
#842=EDGE_CURVE('',#655,#727,#971,.T.);
#843=EDGE_CURVE('',#656,#726,#972,.T.);
#844=EDGE_CURVE('',#665,#717,#973,.T.);
#845=EDGE_CURVE('',#664,#718,#974,.T.);
#846=EDGE_CURVE('',#670,#712,#975,.T.);
#847=EDGE_CURVE('',#671,#711,#976,.T.);
#848=EDGE_CURVE('',#659,#723,#977,.T.);
#849=EDGE_CURVE('',#660,#722,#978,.T.);
#850=EDGE_CURVE('',#663,#719,#979,.T.);
#851=EDGE_CURVE('',#650,#693,#980,.T.);
#852=EDGE_CURVE('',#661,#721,#981,.T.);
#853=EDGE_CURVE('',#662,#720,#982,.T.);
#854=EDGE_CURVE('',#666,#716,#983,.T.);
#855=EDGE_CURVE('',#667,#715,#984,.T.);
#856=EDGE_CURVE('',#668,#714,#985,.T.);
#857=EDGE_CURVE('',#669,#713,#986,.T.);
#858=EDGE_CURVE('',#734,#734,#122,.T.);
#859=EDGE_CURVE('',#735,#735,#123,.T.);
#860=EDGE_CURVE('',#736,#736,#124,.T.);
#861=EDGE_CURVE('',#737,#737,#125,.T.);
#862=EDGE_CURVE('',#657,#725,#987,.T.);
#863=EDGE_CURVE('',#658,#724,#988,.T.);
#864=EDGE_CURVE('',#674,#708,#989,.T.);
#865=EDGE_CURVE('',#675,#707,#990,.T.);
#866=EDGE_CURVE('',#676,#706,#991,.T.);
#867=EDGE_CURVE('',#677,#705,#992,.T.);
#868=EDGE_CURVE('',#678,#704,#993,.T.);
#869=EDGE_CURVE('',#679,#703,#994,.T.);
#870=EDGE_CURVE('',#680,#702,#995,.T.);
#871=EDGE_CURVE('',#738,#738,#126,.T.);
#872=EDGE_CURVE('',#739,#739,#127,.T.);
#873=EDGE_CURVE('',#740,#740,#128,.T.);
#874=EDGE_CURVE('',#741,#741,#129,.T.);
#875=EDGE_CURVE('',#654,#728,#996,.T.);
#876=EDGE_CURVE('',#681,#701,#997,.T.);
#877=EDGE_CURVE('',#682,#700,#998,.T.);
#878=EDGE_CURVE('',#683,#699,#999,.T.);
#879=EDGE_CURVE('',#684,#698,#1000,.T.);
#880=EDGE_CURVE('',#685,#697,#1001,.T.);
#881=EDGE_CURVE('',#686,#696,#1002,.T.);
#882=EDGE_CURVE('',#651,#695,#1003,.T.);
#883=EDGE_CURVE('',#742,#742,#130,.T.);
#884=EDGE_CURVE('',#743,#743,#131,.T.);
#885=EDGE_CURVE('',#744,#744,#132,.T.);
#886=EDGE_CURVE('',#745,#745,#133,.T.);
#887=LINE('',#1491,#1004);
#888=LINE('',#1494,#1005);
#889=LINE('',#1496,#1006);
#890=LINE('',#1498,#1007);
#891=LINE('',#1504,#1008);
#892=LINE('',#1507,#1009);
#893=LINE('',#1509,#1010);
#894=LINE('',#1511,#1011);
#895=LINE('',#1513,#1012);
#896=LINE('',#1515,#1013);
#897=LINE('',#1517,#1014);
#898=LINE('',#1519,#1015);
#899=LINE('',#1521,#1016);
#900=LINE('',#1523,#1017);
#901=LINE('',#1525,#1018);
#902=LINE('',#1527,#1019);
#903=LINE('',#1529,#1020);
#904=LINE('',#1531,#1021);
#905=LINE('',#1533,#1022);
#906=LINE('',#1535,#1023);
#907=LINE('',#1537,#1024);
#908=LINE('',#1539,#1025);
#909=LINE('',#1541,#1026);
#910=LINE('',#1543,#1027);
#911=LINE('',#1545,#1028);
#912=LINE('',#1547,#1029);
#913=LINE('',#1549,#1030);
#914=LINE('',#1551,#1031);
#915=LINE('',#1553,#1032);
#916=LINE('',#1555,#1033);
#917=LINE('',#1557,#1034);
#918=LINE('',#1559,#1035);
#919=LINE('',#1561,#1036);
#920=LINE('',#1563,#1037);
#921=LINE('',#1565,#1038);
#922=LINE('',#1566,#1039);
#923=LINE('',#1568,#1040);
#924=LINE('',#1570,#1041);
#925=LINE('',#1572,#1042);
#926=LINE('',#1574,#1043);
#927=LINE('',#1576,#1044);
#928=LINE('',#1578,#1045);
#929=LINE('',#1592,#1046);
#930=LINE('',#1595,#1047);
#931=LINE('',#1597,#1048);
#932=LINE('',#1599,#1049);
#933=LINE('',#1601,#1050);
#934=LINE('',#1603,#1051);
#935=LINE('',#1605,#1052);
#936=LINE('',#1607,#1053);
#937=LINE('',#1609,#1054);
#938=LINE('',#1610,#1055);
#939=LINE('',#1612,#1056);
#940=LINE('',#1614,#1057);
#941=LINE('',#1616,#1058);
#942=LINE('',#1618,#1059);
#943=LINE('',#1620,#1060);
#944=LINE('',#1622,#1061);
#945=LINE('',#1624,#1062);
#946=LINE('',#1626,#1063);
#947=LINE('',#1628,#1064);
#948=LINE('',#1630,#1065);
#949=LINE('',#1632,#1066);
#950=LINE('',#1634,#1067);
#951=LINE('',#1636,#1068);
#952=LINE('',#1638,#1069);
#953=LINE('',#1640,#1070);
#954=LINE('',#1642,#1071);
#955=LINE('',#1644,#1072);
#956=LINE('',#1646,#1073);
#957=LINE('',#1648,#1074);
#958=LINE('',#1650,#1075);
#959=LINE('',#1652,#1076);
#960=LINE('',#1654,#1077);
#961=LINE('',#1656,#1078);
#962=LINE('',#1658,#1079);
#963=LINE('',#1660,#1080);
#964=LINE('',#1662,#1081);
#965=LINE('',#1664,#1082);
#966=LINE('',#1666,#1083);
#967=LINE('',#1676,#1084);
#968=LINE('',#1677,#1085);
#969=LINE('',#1679,#1086);
#970=LINE('',#1680,#1087);
#971=LINE('',#1682,#1088);
#972=LINE('',#1683,#1089);
#973=LINE('',#1685,#1090);
#974=LINE('',#1686,#1091);
#975=LINE('',#1688,#1092);
#976=LINE('',#1689,#1093);
#977=LINE('',#1691,#1094);
#978=LINE('',#1692,#1095);
#979=LINE('',#1694,#1096);
#980=LINE('',#1696,#1097);
#981=LINE('',#1698,#1098);
#982=LINE('',#1699,#1099);
#983=LINE('',#1703,#1100);
#984=LINE('',#1705,#1101);
#985=LINE('',#1707,#1102);
#986=LINE('',#1709,#1103);
#987=LINE('',#1727,#1104);
#988=LINE('',#1728,#1105);
#989=LINE('',#1732,#1106);
#990=LINE('',#1734,#1107);
#991=LINE('',#1736,#1108);
#992=LINE('',#1738,#1109);
#993=LINE('',#1740,#1110);
#994=LINE('',#1742,#1111);
#995=LINE('',#1744,#1112);
#996=LINE('',#1761,#1113);
#997=LINE('',#1764,#1114);
#998=LINE('',#1766,#1115);
#999=LINE('',#1768,#1116);
#1000=LINE('',#1770,#1117);
#1001=LINE('',#1772,#1118);
#1002=LINE('',#1774,#1119);
#1003=LINE('',#1776,#1120);
#1004=VECTOR('',#1207,1.);
#1005=VECTOR('',#1208,1.);
#1006=VECTOR('',#1209,1.);
#1007=VECTOR('',#1210,1.);
#1008=VECTOR('',#1217,1.);
#1009=VECTOR('',#1218,1.);
#1010=VECTOR('',#1219,1.);
#1011=VECTOR('',#1220,1.);
#1012=VECTOR('',#1221,1.);
#1013=VECTOR('',#1222,1.);
#1014=VECTOR('',#1223,1.);
#1015=VECTOR('',#1224,1.);
#1016=VECTOR('',#1225,1.);
#1017=VECTOR('',#1226,1.);
#1018=VECTOR('',#1227,1.);
#1019=VECTOR('',#1228,1.);
#1020=VECTOR('',#1229,1.);
#1021=VECTOR('',#1230,1.);
#1022=VECTOR('',#1231,1.);
#1023=VECTOR('',#1232,1.);
#1024=VECTOR('',#1233,1.);
#1025=VECTOR('',#1234,1.);
#1026=VECTOR('',#1235,1.);
#1027=VECTOR('',#1236,1.);
#1028=VECTOR('',#1237,1.);
#1029=VECTOR('',#1238,1.);
#1030=VECTOR('',#1239,1.);
#1031=VECTOR('',#1240,1.);
#1032=VECTOR('',#1241,1.);
#1033=VECTOR('',#1242,1.);
#1034=VECTOR('',#1243,1.);
#1035=VECTOR('',#1244,1.);
#1036=VECTOR('',#1245,1.);
#1037=VECTOR('',#1246,1.);
#1038=VECTOR('',#1247,1.);
#1039=VECTOR('',#1248,1.);
#1040=VECTOR('',#1249,1.);
#1041=VECTOR('',#1250,1.);
#1042=VECTOR('',#1251,1.);
#1043=VECTOR('',#1252,1.);
#1044=VECTOR('',#1253,1.);
#1045=VECTOR('',#1254,1.);
#1046=VECTOR('',#1269,1.);
#1047=VECTOR('',#1270,1.);
#1048=VECTOR('',#1271,1.);
#1049=VECTOR('',#1272,1.);
#1050=VECTOR('',#1273,1.);
#1051=VECTOR('',#1274,1.);
#1052=VECTOR('',#1275,1.);
#1053=VECTOR('',#1276,1.);
#1054=VECTOR('',#1277,1.);
#1055=VECTOR('',#1278,1.);
#1056=VECTOR('',#1279,1.);
#1057=VECTOR('',#1280,1.);
#1058=VECTOR('',#1281,1.);
#1059=VECTOR('',#1282,1.);
#1060=VECTOR('',#1283,1.);
#1061=VECTOR('',#1284,1.);
#1062=VECTOR('',#1285,1.);
#1063=VECTOR('',#1286,1.);
#1064=VECTOR('',#1287,1.);
#1065=VECTOR('',#1288,1.);
#1066=VECTOR('',#1289,1.);
#1067=VECTOR('',#1290,1.);
#1068=VECTOR('',#1291,1.);
#1069=VECTOR('',#1292,1.);
#1070=VECTOR('',#1293,1.);
#1071=VECTOR('',#1294,1.);
#1072=VECTOR('',#1295,1.);
#1073=VECTOR('',#1296,1.);
#1074=VECTOR('',#1297,1.);
#1075=VECTOR('',#1298,1.);
#1076=VECTOR('',#1299,1.);
#1077=VECTOR('',#1300,1.);
#1078=VECTOR('',#1301,1.);
#1079=VECTOR('',#1302,1.);
#1080=VECTOR('',#1303,1.);
#1081=VECTOR('',#1304,1.);
#1082=VECTOR('',#1305,1.);
#1083=VECTOR('',#1306,1.);
#1084=VECTOR('',#1317,1.);
#1085=VECTOR('',#1318,1.);
#1086=VECTOR('',#1321,1.);
#1087=VECTOR('',#1322,1.);
#1088=VECTOR('',#1325,1.);
#1089=VECTOR('',#1326,1.);
#1090=VECTOR('',#1329,1.);
#1091=VECTOR('',#1330,1.);
#1092=VECTOR('',#1333,1.);
#1093=VECTOR('',#1334,1.);
#1094=VECTOR('',#1337,1.);
#1095=VECTOR('',#1338,1.);
#1096=VECTOR('',#1341,1.);
#1097=VECTOR('',#1344,1.);
#1098=VECTOR('',#1347,1.);
#1099=VECTOR('',#1348,1.);
#1100=VECTOR('',#1355,1.);
#1101=VECTOR('',#1358,1.);
#1102=VECTOR('',#1361,1.);
#1103=VECTOR('',#1364,1.);
#1104=VECTOR('',#1391,1.);
#1105=VECTOR('',#1392,1.);
#1106=VECTOR('',#1399,1.);
#1107=VECTOR('',#1402,1.);
#1108=VECTOR('',#1405,1.);
#1109=VECTOR('',#1408,1.);
#1110=VECTOR('',#1411,1.);
#1111=VECTOR('',#1414,1.);
#1112=VECTOR('',#1417,1.);
#1113=VECTOR('',#1442,1.);
#1114=VECTOR('',#1447,1.);
#1115=VECTOR('',#1450,1.);
#1116=VECTOR('',#1453,1.);
#1117=VECTOR('',#1456,1.);
#1118=VECTOR('',#1459,1.);
#1119=VECTOR('',#1462,1.);
#1120=VECTOR('',#1465,1.);
#1121=AXIS2_PLACEMENT_3D('',#1490,#1205,#1206);
#1122=AXIS2_PLACEMENT_3D('',#1499,#1211,#1212);
#1123=AXIS2_PLACEMENT_3D('',#1500,#1213,#1214);
#1124=AXIS2_PLACEMENT_3D('',#1502,#1215,#1216);
#1125=AXIS2_PLACEMENT_3D('',#1579,#1255,#1256);
#1126=AXIS2_PLACEMENT_3D('',#1581,#1257,#1258);
#1127=AXIS2_PLACEMENT_3D('',#1583,#1259,#1260);
#1128=AXIS2_PLACEMENT_3D('',#1585,#1261,#1262);
#1129=AXIS2_PLACEMENT_3D('',#1587,#1263,#1264);
#1130=AXIS2_PLACEMENT_3D('',#1588,#1265,#1266);
#1131=AXIS2_PLACEMENT_3D('',#1590,#1267,#1268);
#1132=AXIS2_PLACEMENT_3D('',#1667,#1307,#1308);
#1133=AXIS2_PLACEMENT_3D('',#1669,#1309,#1310);
#1134=AXIS2_PLACEMENT_3D('',#1671,#1311,#1312);
#1135=AXIS2_PLACEMENT_3D('',#1673,#1313,#1314);
#1136=AXIS2_PLACEMENT_3D('',#1675,#1315,#1316);
#1137=AXIS2_PLACEMENT_3D('',#1678,#1319,#1320);
#1138=AXIS2_PLACEMENT_3D('',#1681,#1323,#1324);
#1139=AXIS2_PLACEMENT_3D('',#1684,#1327,#1328);
#1140=AXIS2_PLACEMENT_3D('',#1687,#1331,#1332);
#1141=AXIS2_PLACEMENT_3D('',#1690,#1335,#1336);
#1142=AXIS2_PLACEMENT_3D('',#1693,#1339,#1340);
#1143=AXIS2_PLACEMENT_3D('',#1695,#1342,#1343);
#1144=AXIS2_PLACEMENT_3D('',#1697,#1345,#1346);
#1145=AXIS2_PLACEMENT_3D('',#1700,#1349,#1350);
#1146=AXIS2_PLACEMENT_3D('',#1701,#1351,#1352);
#1147=AXIS2_PLACEMENT_3D('',#1702,#1353,#1354);
#1148=AXIS2_PLACEMENT_3D('',#1704,#1356,#1357);
#1149=AXIS2_PLACEMENT_3D('',#1706,#1359,#1360);
#1150=AXIS2_PLACEMENT_3D('',#1708,#1362,#1363);
#1151=AXIS2_PLACEMENT_3D('',#1710,#1365,#1366);
#1152=AXIS2_PLACEMENT_3D('',#1711,#1367,#1368);
#1153=AXIS2_PLACEMENT_3D('',#1712,#1369,#1370);
#1154=AXIS2_PLACEMENT_3D('',#1713,#1371,#1372);
#1155=AXIS2_PLACEMENT_3D('',#1715,#1373,#1374);
#1156=AXIS2_PLACEMENT_3D('',#1717,#1375,#1376);
#1157=AXIS2_PLACEMENT_3D('',#1718,#1377,#1378);
#1158=AXIS2_PLACEMENT_3D('',#1719,#1379,#1380);
#1159=AXIS2_PLACEMENT_3D('',#1720,#1381,#1382);
#1160=AXIS2_PLACEMENT_3D('',#1722,#1383,#1384);
#1161=AXIS2_PLACEMENT_3D('',#1724,#1385,#1386);
#1162=AXIS2_PLACEMENT_3D('',#1725,#1387,#1388);
#1163=AXIS2_PLACEMENT_3D('',#1726,#1389,#1390);
#1164=AXIS2_PLACEMENT_3D('',#1729,#1393,#1394);
#1165=AXIS2_PLACEMENT_3D('',#1730,#1395,#1396);
#1166=AXIS2_PLACEMENT_3D('',#1731,#1397,#1398);
#1167=AXIS2_PLACEMENT_3D('',#1733,#1400,#1401);
#1168=AXIS2_PLACEMENT_3D('',#1735,#1403,#1404);
#1169=AXIS2_PLACEMENT_3D('',#1737,#1406,#1407);
#1170=AXIS2_PLACEMENT_3D('',#1739,#1409,#1410);
#1171=AXIS2_PLACEMENT_3D('',#1741,#1412,#1413);
#1172=AXIS2_PLACEMENT_3D('',#1743,#1415,#1416);
#1173=AXIS2_PLACEMENT_3D('',#1745,#1418,#1419);
#1174=AXIS2_PLACEMENT_3D('',#1746,#1420,#1421);
#1175=AXIS2_PLACEMENT_3D('',#1747,#1422,#1423);
#1176=AXIS2_PLACEMENT_3D('',#1749,#1424,#1425);
#1177=AXIS2_PLACEMENT_3D('',#1751,#1426,#1427);
#1178=AXIS2_PLACEMENT_3D('',#1752,#1428,#1429);
#1179=AXIS2_PLACEMENT_3D('',#1753,#1430,#1431);
#1180=AXIS2_PLACEMENT_3D('',#1754,#1432,#1433);
#1181=AXIS2_PLACEMENT_3D('',#1756,#1434,#1435);
#1182=AXIS2_PLACEMENT_3D('',#1758,#1436,#1437);
#1183=AXIS2_PLACEMENT_3D('',#1759,#1438,#1439);
#1184=AXIS2_PLACEMENT_3D('',#1760,#1440,#1441);
#1185=AXIS2_PLACEMENT_3D('',#1762,#1443,#1444);
#1186=AXIS2_PLACEMENT_3D('',#1763,#1445,#1446);
#1187=AXIS2_PLACEMENT_3D('',#1765,#1448,#1449);
#1188=AXIS2_PLACEMENT_3D('',#1767,#1451,#1452);
#1189=AXIS2_PLACEMENT_3D('',#1769,#1454,#1455);
#1190=AXIS2_PLACEMENT_3D('',#1771,#1457,#1458);
#1191=AXIS2_PLACEMENT_3D('',#1773,#1460,#1461);
#1192=AXIS2_PLACEMENT_3D('',#1775,#1463,#1464);
#1193=AXIS2_PLACEMENT_3D('',#1777,#1466,#1467);
#1194=AXIS2_PLACEMENT_3D('',#1778,#1468,#1469);
#1195=AXIS2_PLACEMENT_3D('',#1779,#1470,#1471);
#1196=AXIS2_PLACEMENT_3D('',#1781,#1472,#1473);
#1197=AXIS2_PLACEMENT_3D('',#1783,#1474,#1475);
#1198=AXIS2_PLACEMENT_3D('',#1784,#1476,#1477);
#1199=AXIS2_PLACEMENT_3D('',#1785,#1478,#1479);
#1200=AXIS2_PLACEMENT_3D('',#1786,#1480,#1481);
#1201=AXIS2_PLACEMENT_3D('',#1788,#1482,#1483);
#1202=AXIS2_PLACEMENT_3D('',#1790,#1484,#1485);
#1203=AXIS2_PLACEMENT_3D('',#1791,#1486,#1487);
#1204=AXIS2_PLACEMENT_3D('',#1792,#1488,#1489);
#1205=DIRECTION('',(0.,0.,1.));
#1206=DIRECTION('',(1.,0.,0.));
#1207=DIRECTION('',(-0.187500000000003,0.982264602843856,-8.46080154287722E-17));
#1208=DIRECTION('',(-0.982264602843857,-0.187500000000003,-2.1574366711486E-14));
#1209=DIRECTION('',(-0.187500000000003,0.982264602843856,-8.46080154287722E-17));
#1210=DIRECTION('',(-0.982264602843857,-0.187500000000003,-2.1574366711486E-14));
#1211=DIRECTION('',(2.11917367494655E-14,4.04519375840368E-15,-1.));
#1212=DIRECTION('',(-1.,0.,-2.1094237467878E-14));
#1213=DIRECTION('',(0.187500000000003,-0.982264602843856,8.46080154287722E-17));
#1214=DIRECTION('',(0.982264602843859,0.187500000000003,0.));
#1215=DIRECTION('',(0.187500000000003,-0.982264602843856,8.46080154287722E-17));
#1216=DIRECTION('',(0.982264602843857,0.187500000000003,0.));
#1217=DIRECTION('',(0.94580891662305,0.180541140700165,-0.269908113533136));
#1218=DIRECTION('',(-0.982264602843857,-0.187500000000003,-2.1574366711486E-14));
#1219=DIRECTION('',(1.95131999547442E-15,3.90263999094883E-16,-1.));
#1220=DIRECTION('',(0.982264602843856,0.187500000000003,0.));
#1221=DIRECTION('',(1.5864002892895E-17,-8.31074586725498E-17,-1.));
#1222=DIRECTION('',(0.982264602843856,0.187500000000003,0.));
#1223=DIRECTION('',(-1.5864002892895E-17,8.31074586725498E-17,1.));
#1224=DIRECTION('',(0.982264602843856,0.187500000000003,0.));
#1225=DIRECTION('',(1.5864002892895E-17,-8.31074586725498E-17,-1.));
#1226=DIRECTION('',(0.982264602843856,0.187500000000003,0.));
#1227=DIRECTION('',(-1.5864002892895E-17,8.31074586725498E-17,1.));
#1228=DIRECTION('',(0.982264602843856,0.187500000000003,0.));
#1229=DIRECTION('',(1.5864002892895E-17,-8.31074586725498E-17,-1.));
#1230=DIRECTION('',(0.982264602843856,0.187500000000003,0.));
#1231=DIRECTION('',(-4.51242748953445E-16,0.,1.));
#1232=DIRECTION('',(0.982264602843856,0.187500000000003,0.));
#1233=DIRECTION('',(1.5864002892895E-17,-8.31074586725498E-17,-1.));
#1234=DIRECTION('',(-0.982264602843856,-0.187500000000003,0.));
#1235=DIRECTION('',(-1.5864002892895E-17,8.31074586725498E-17,1.));
#1236=DIRECTION('',(-0.982264602843856,-0.187500000000003,0.));
#1237=DIRECTION('',(-4.51242748953445E-16,0.,1.));
#1238=DIRECTION('',(0.945808916623046,0.180541140700164,-0.26990811353315));
#1239=DIRECTION('',(-0.982264602843857,-0.187500000000003,-2.1574366711486E-14));
#1240=DIRECTION('',(-1.5864002892895E-17,8.31074586725498E-17,1.));
#1241=DIRECTION('',(0.982264602843856,0.187500000000003,0.));
#1242=DIRECTION('',(1.5864002892895E-17,-8.31074586725498E-17,-1.));
#1243=DIRECTION('',(-0.982264602843856,-0.187500000000003,0.));
#1244=DIRECTION('',(-1.5864002892895E-17,8.31074586725498E-17,1.));
#1245=DIRECTION('',(-0.982264602843856,-0.187500000000003,0.));
#1246=DIRECTION('',(1.5864002892895E-17,-8.31074586725498E-17,-1.));
#1247=DIRECTION('',(0.94580891662305,0.180541140700165,-0.269908113533136));
#1248=DIRECTION('',(-1.5864002892895E-17,8.31074586725498E-17,1.));
#1249=DIRECTION('',(0.982264602843856,0.187500000000003,0.));
#1250=DIRECTION('',(1.5864002892895E-17,-8.31074586725498E-17,-1.));
#1251=DIRECTION('',(-0.982264602843856,-0.187500000000003,0.));
#1252=DIRECTION('',(-1.5864002892895E-17,8.31074586725498E-17,1.));
#1253=DIRECTION('',(-0.982264602843856,-0.187500000000003,0.));
#1254=DIRECTION('',(1.5864002892895E-17,-8.31074586725498E-17,-1.));
#1255=DIRECTION('',(0.187500000000003,-0.982264602843856,8.46080154287722E-17));
#1256=DIRECTION('',(0.982264602843858,0.187500000000003,0.));
#1257=DIRECTION('',(0.187500000000003,-0.982264602843856,8.46080154287722E-17));
#1258=DIRECTION('',(0.982264602843858,0.187500000000002,0.));
#1259=DIRECTION('',(0.187500000000003,-0.982264602843856,8.46080154287722E-17));
#1260=DIRECTION('',(0.982264602843856,0.187500000000002,0.));
#1261=DIRECTION('',(0.187500000000003,-0.982264602843856,8.46080154287722E-17));
#1262=DIRECTION('',(0.982264602843857,0.187500000000003,0.));
#1263=DIRECTION('',(0.187500000000003,-0.982264602843856,8.46080154287722E-17));
#1264=DIRECTION('',(0.982264602843856,0.187500000000003,0.));
#1265=DIRECTION('',(0.187500000000003,-0.982264602843856,8.46080154287722E-17));
#1266=DIRECTION('',(0.982264602843857,0.187500000000004,0.));
#1267=DIRECTION('',(0.187500000000003,-0.982264602843856,8.46080154287722E-17));
#1268=DIRECTION('',(0.982264602843857,0.187500000000004,0.));
#1269=DIRECTION('',(-0.982264602843857,-0.187500000000003,-2.1574366711486E-14));
#1270=DIRECTION('',(0.94580891662305,0.180541140700165,-0.269908113533136));
#1271=DIRECTION('',(1.72947872660781E-14,3.21518721922524E-15,-1.));
#1272=DIRECTION('',(-0.982264602843856,-0.187500000000003,-8.32001735975286E-32));
#1273=DIRECTION('',(-1.93184177895326E-14,-3.60146879961529E-15,1.));
#1274=DIRECTION('',(-0.982264602843856,-0.187500000000003,-4.00593428432545E-32));
#1275=DIRECTION('',(9.79327842662804E-15,1.78325848706416E-15,-1.));
#1276=DIRECTION('',(0.982264602843856,0.187500000000003,2.39864180718784E-14));
#1277=DIRECTION('',(-2.11821812182092E-14,-3.9572340810528E-15,1.));
#1278=DIRECTION('',(0.94580891662305,0.180541140700165,-0.269908113533136));
#1279=DIRECTION('',(1.7658346778166E-14,3.28458543261816E-15,-1.));
#1280=DIRECTION('',(-0.982264602843856,-0.187500000000003,-2.1854783949314E-14));
#1281=DIRECTION('',(-1.99041525590075E-14,-3.71327703230389E-15,1.));
#1282=DIRECTION('',(-0.982264602843856,-0.187500000000003,-6.77927340424307E-32));
#1283=DIRECTION('',(9.88399913472389E-15,1.80057574833849E-15,-1.));
#1284=DIRECTION('',(0.982264602843856,0.187500000000003,1.19932090359392E-14));
#1285=DIRECTION('',(-2.09198074910902E-14,-3.90715075962152E-15,1.));
#1286=DIRECTION('',(-0.982264602843857,-0.187500000000003,-2.1574366711486E-14));
#1287=DIRECTION('',(0.945808916623046,0.180541140700164,-0.26990811353315));
#1288=DIRECTION('',(-4.51242748953445E-16,0.,1.));
#1289=DIRECTION('',(-0.982264602843856,-0.187500000000003,6.16297582203915E-33));
#1290=DIRECTION('',(-4.15459877572134E-15,-7.0691670351209E-16,1.));
#1291=DIRECTION('',(-0.982264602843856,-0.187500000000003,-5.8548270309372E-32));
#1292=DIRECTION('',(-4.99165886271778E-15,-1.03897060856483E-15,-1.));
#1293=DIRECTION('',(0.982264602843856,0.187500000000003,1.19932090359392E-14));
#1294=DIRECTION('',(-4.51242748953445E-16,0.,1.));
#1295=DIRECTION('',(0.982264602843856,0.187500000000003,0.));
#1296=DIRECTION('',(8.71099371335596E-15,1.57666610538717E-15,-1.));
#1297=DIRECTION('',(0.982264602843856,0.187500000000003,9.92800335946477E-15));
#1298=DIRECTION('',(-9.22116641759881E-15,-1.67405064084593E-15,1.));
#1299=DIRECTION('',(0.982264602843856,0.187500000000003,0.));
#1300=DIRECTION('',(2.36980817575786E-14,4.4374828345618E-15,-1.));
#1301=DIRECTION('',(0.982264602843856,0.187500000000003,2.48200083986619E-14));
#1302=DIRECTION('',(-2.2903335777883E-14,-4.28577740736683E-15,1.));
#1303=DIRECTION('',(0.982264602843856,0.187500000000003,0.));
#1304=DIRECTION('',(2.36142255830618E-14,4.42147591272385E-15,-1.));
#1305=DIRECTION('',(0.982264602843856,0.187500000000003,2.48200083986619E-14));
#1306=DIRECTION('',(1.95131999547442E-15,3.90263999094883E-16,-1.));
#1307=DIRECTION('',(0.187500000000003,-0.982264602843856,8.46080154287722E-17));
#1308=DIRECTION('',(0.982264602843856,0.187500000000003,0.));
#1309=DIRECTION('',(0.187500000000003,-0.982264602843856,8.46080154287722E-17));
#1310=DIRECTION('',(0.982264602843857,0.187500000000002,0.));
#1311=DIRECTION('',(0.187500000000003,-0.982264602843856,8.46080154287722E-17));
#1312=DIRECTION('',(0.982264602843856,0.187500000000004,0.));
#1313=DIRECTION('',(0.187500000000003,-0.982264602843856,8.46080154287722E-17));
#1314=DIRECTION('',(0.982264602843857,0.187500000000004,0.));
#1315=DIRECTION('',(0.187500000000003,-0.982264602843856,8.46080154287722E-17));
#1316=DIRECTION('',(0.982264602843856,0.187500000000003,0.));
#1317=DIRECTION('',(-0.187500000000003,0.982264602843856,-8.46080154287722E-17));
#1318=DIRECTION('',(-0.187500000000003,0.982264602843856,0.));
#1319=DIRECTION('',(0.982264602843856,0.187500000000003,1.98988706020625E-15));
#1320=DIRECTION('',(-0.187500000000003,0.982264602843856,0.));
#1321=DIRECTION('',(-0.187500000000003,0.982264602843856,-8.46080154287722E-17));
#1322=DIRECTION('',(-0.187500000000003,0.982264602843856,-8.46080154287722E-17));
#1323=DIRECTION('',(2.11917367494655E-14,4.04519375840368E-15,-1.));
#1324=DIRECTION('',(-1.,0.,-2.1094237467878E-14));
#1325=DIRECTION('',(-0.187500000000003,0.982264602843856,-8.46080154287722E-17));
#1326=DIRECTION('',(-0.187500000000003,0.982264602843856,-8.46080154287722E-17));
#1327=DIRECTION('',(0.,0.,1.));
#1328=DIRECTION('',(1.,0.,0.));
#1329=DIRECTION('',(-0.187500000000003,0.982264602843856,-8.46080154287722E-17));
#1330=DIRECTION('',(-0.187500000000003,0.982264602843856,0.));
#1331=DIRECTION('',(-0.982264602843856,-0.187500000000003,-4.43239779586925E-16));
#1332=DIRECTION('',(0.187500000000003,-0.982264602843856,0.));
#1333=DIRECTION('',(-0.187500000000003,0.982264602843856,-8.46080154287722E-17));
#1334=DIRECTION('',(-0.187500000000003,0.982264602843856,-8.46080154287722E-17));
#1335=DIRECTION('',(-0.982264602843856,-0.187500000000003,-4.43239779586925E-16));
#1336=DIRECTION('',(0.187500000000003,-0.982264602843856,0.));
#1337=DIRECTION('',(-0.187500000000003,0.982264602843856,-8.46080154287722E-17));
#1338=DIRECTION('',(-0.187500000000003,0.982264602843856,-8.46080154287722E-17));
#1339=DIRECTION('',(0.,0.,1.));
#1340=DIRECTION('',(1.,0.,0.));
#1341=DIRECTION('',(-0.187500000000003,0.982264602843856,-8.46080154287722E-17));
#1342=DIRECTION('',(0.,0.,1.));
#1343=DIRECTION('',(1.,0.,0.));
#1344=DIRECTION('',(-0.187500000000003,0.982264602843856,-8.46080154287722E-17));
#1345=DIRECTION('',(2.11917367494655E-14,4.04519375840368E-15,-1.));
#1346=DIRECTION('',(-1.,0.,-2.1094237467878E-14));
#1347=DIRECTION('',(-0.187500000000003,0.982264602843856,-8.46080154287722E-17));
#1348=DIRECTION('',(-0.187500000000003,0.982264602843856,-8.46080154287722E-17));
#1349=DIRECTION('',(9.76779027981003E-15,1.77839317122712E-15,-1.));
#1350=DIRECTION('',(0.982264602843856,0.187500000000003,9.99200722162641E-15));
#1351=DIRECTION('',(-0.982264602843856,-0.187500000000003,-8.85212567498502E-15));
#1352=DIRECTION('',(8.71091393461754E-15,1.57512891618694E-15,-1.));
#1353=DIRECTION('',(0.982264602843856,0.187500000000003,9.37150986409841E-15));
#1354=DIRECTION('',(-9.22178999829271E-15,-1.67227343084164E-15,1.));
#1355=DIRECTION('',(-0.187500000000003,0.982264602843856,-8.46080154287722E-17));
#1356=DIRECTION('',(1.17963687134031E-14,2.16561923556609E-15,-1.));
#1357=DIRECTION('',(0.982264602843856,0.187500000000003,1.19904086659517E-14));
#1358=DIRECTION('',(-0.187500000000003,0.982264602843856,-8.46080154287722E-17));
#1359=DIRECTION('',(-0.982264602843856,-0.187500000000003,5.0979367994254E-15));
#1360=DIRECTION('',(-4.99079944038527E-15,-1.03736463863413E-15,-1.));
#1361=DIRECTION('',(-0.187500000000003,0.982264602843856,-8.46080154287722E-17));
#1362=DIRECTION('',(-1.58640028928951E-17,8.31074586725497E-17,1.));
#1363=DIRECTION('',(-0.982264602843856,-0.187500000000003,0.));
#1364=DIRECTION('',(-0.187500000000003,0.982264602843856,-8.46080154287722E-17));
#1365=DIRECTION('',(0.982264602843856,0.187500000000003,4.21346219831801E-15));
#1366=DIRECTION('',(-4.15466272496445E-15,-7.07767178198537E-16,1.));
#1367=DIRECTION('',(-1.5864002892895E-17,8.31074586725498E-17,1.));
#1368=DIRECTION('',(-0.982264602843856,-0.187500000000003,0.));
#1369=DIRECTION('',(-0.265121185943974,-0.0506077712874664,-0.962886083734196));
#1370=DIRECTION('',(0.945808916623046,0.180541140700164,-0.26990811353315));
#1371=DIRECTION('',(-0.187500000000003,0.982264602843857,0.));
#1372=DIRECTION('',(-0.982264602843856,-0.187500000000003,0.));
#1373=DIRECTION('',(0.187500000000003,-0.982264602843856,0.));
#1374=DIRECTION('',(0.982264602843857,0.187500000000003,0.));
#1375=DIRECTION('',(-0.187500000000003,0.982264602843856,0.));
#1376=DIRECTION('',(-0.982264602843856,-0.187500000000003,0.));
#1377=DIRECTION('',(0.187500000000003,-0.982264602843856,0.));
#1378=DIRECTION('',(-0.982264602843856,-0.187500000000003,0.));
#1379=DIRECTION('',(-0.187500000000003,0.982264602843857,0.));
#1380=DIRECTION('',(0.982264602843856,0.187500000000003,0.));
#1381=DIRECTION('',(-0.187500000000002,0.982264602843856,0.));
#1382=DIRECTION('',(-0.982264602843857,-0.187500000000003,0.));
#1383=DIRECTION('',(0.187500000000003,-0.982264602843856,0.));
#1384=DIRECTION('',(0.982264602843857,0.187500000000003,0.));
#1385=DIRECTION('',(-0.187500000000003,0.982264602843857,-9.11163243079111E-17));
#1386=DIRECTION('',(-0.982264602843856,-0.187500000000003,0.));
#1387=DIRECTION('',(0.187500000000003,-0.982264602843856,0.));
#1388=DIRECTION('',(-0.982264602843856,-0.187500000000003,0.));
#1389=DIRECTION('',(-0.187500000000002,0.982264602843856,0.));
#1390=DIRECTION('',(0.982264602843857,0.187500000000003,0.));
#1391=DIRECTION('',(-0.187500000000003,0.982264602843856,-8.46080154287722E-17));
#1392=DIRECTION('',(-0.187500000000003,0.982264602843856,-8.46080154287722E-17));
#1393=DIRECTION('',(2.43956796951857E-14,4.57064411607663E-15,-1.));
#1394=DIRECTION('',(0.982264602843856,0.187500000000003,2.48689957516035E-14));
#1395=DIRECTION('',(-0.982264602843856,-0.187500000000003,-2.41098148972495E-14));
#1396=DIRECTION('',(2.36963226818432E-14,4.44089209850063E-15,-1.));
#1397=DIRECTION('',(0.982264602843856,0.187500000000003,2.3300719285543E-14));
#1398=DIRECTION('',(-2.28983498828939E-14,-4.28823643261467E-15,1.));
#1399=DIRECTION('',(-0.187500000000003,0.982264602843856,-8.46080154287722E-17));
#1400=DIRECTION('',(0.982264602843856,0.187500000000003,2.12813771642347E-14));
#1401=DIRECTION('',(-2.09207651202803E-14,-3.90659726789977E-15,1.));
#1402=DIRECTION('',(-0.187500000000003,0.982264602843856,-8.46080154287722E-17));
#1403=DIRECTION('',(1.17963687134031E-14,2.16561923556609E-15,-1.));
#1404=DIRECTION('',(0.982264602843856,0.187500000000003,1.19904086659517E-14));
#1405=DIRECTION('',(-0.187500000000003,0.982264602843856,-8.46080154287722E-17));
#1406=DIRECTION('',(-0.982264602843856,-0.187500000000003,-1.0046310437392E-14));
#1407=DIRECTION('',(9.88098491916389E-15,1.79717352111197E-15,-1.));
#1408=DIRECTION('',(-0.187500000000003,0.982264602843856,-8.46080154287722E-17));
#1409=DIRECTION('',(-1.58640028928951E-17,8.31074586725497E-17,1.));
#1410=DIRECTION('',(-0.982264602843856,-0.187500000000003,0.));
#1411=DIRECTION('',(-0.187500000000003,0.982264602843856,-8.46080154287722E-17));
#1412=DIRECTION('',(0.982264602843856,0.187500000000003,2.02473839518741E-14));
#1413=DIRECTION('',(-1.99007477164059E-14,-3.71230823859037E-15,1.));
#1414=DIRECTION('',(-0.187500000000003,0.982264602843856,-8.46080154287722E-17));
#1415=DIRECTION('',(-2.14830446791041E-14,-4.01466453182389E-15,1.));
#1416=DIRECTION('',(-0.982264602843856,-0.187500000000003,-2.17603712826531E-14));
#1417=DIRECTION('',(-0.187500000000003,0.982264602843856,-8.46080154287722E-17));
#1418=DIRECTION('',(-0.982264602843856,-0.187500000000003,-1.79610287535502E-14));
#1419=DIRECTION('',(1.76594849854439E-14,3.28209681654812E-15,-1.));
#1420=DIRECTION('',(-0.26512118594396,-0.0506077712874638,-0.962886083734199));
#1421=DIRECTION('',(0.94580891662305,0.180541140700165,-0.269908113533136));
#1422=DIRECTION('',(-0.187500000000003,0.982264602843857,0.));
#1423=DIRECTION('',(-0.982264602843855,-0.187500000000001,0.));
#1424=DIRECTION('',(0.187500000000003,-0.982264602843856,0.));
#1425=DIRECTION('',(0.982264602843855,0.187500000000005,0.));
#1426=DIRECTION('',(-0.187500000000003,0.982264602843856,0.));
#1427=DIRECTION('',(-0.982264602843855,-0.187500000000005,0.));
#1428=DIRECTION('',(0.187500000000003,-0.982264602843856,0.));
#1429=DIRECTION('',(-0.982264602843856,-0.187500000000003,0.));
#1430=DIRECTION('',(-0.187500000000003,0.982264602843857,0.));
#1431=DIRECTION('',(0.982264602843856,0.187500000000002,0.));
#1432=DIRECTION('',(-0.187500000000003,0.982264602843856,0.));
#1433=DIRECTION('',(-0.982264602843855,-0.187500000000005,0.));
#1434=DIRECTION('',(0.187500000000004,-0.982264602843856,0.));
#1435=DIRECTION('',(0.982264602843855,0.187500000000005,0.));
#1436=DIRECTION('',(-0.187500000000003,0.982264602843857,-9.11163243079111E-17));
#1437=DIRECTION('',(-0.982264602843855,-0.187500000000005,0.));
#1438=DIRECTION('',(0.187500000000004,-0.982264602843856,0.));
#1439=DIRECTION('',(-0.982264602843856,-0.187500000000004,0.));
#1440=DIRECTION('',(-0.187500000000003,0.982264602843856,0.));
#1441=DIRECTION('',(0.982264602843856,0.187500000000003,0.));
#1442=DIRECTION('',(-0.187500000000003,0.982264602843856,-8.46080154287722E-17));
#1443=DIRECTION('',(-0.982264602843856,-0.187500000000003,-2.40244446474471E-14));
#1444=DIRECTION('',(2.36199948489002E-14,4.4200754167889E-15,-1.));
#1445=DIRECTION('',(2.43956796951857E-14,4.57064411607663E-15,-1.));
#1446=DIRECTION('',(0.982264602843856,0.187500000000003,2.48689957516035E-14));
#1447=DIRECTION('',(-0.187500000000003,0.982264602843856,-8.46080154287722E-17));
#1448=DIRECTION('',(0.982264602843856,0.187500000000003,2.15484882118682E-14));
#1449=DIRECTION('',(-2.11775041947249E-14,-3.95516952522712E-15,1.));
#1450=DIRECTION('',(-0.187500000000003,0.982264602843856,-8.46080154287722E-17));
#1451=DIRECTION('',(2.35768734239133E-14,4.41434592980472E-15,-1.));
#1452=DIRECTION('',(0.982264602843856,0.187500000000003,2.39808173319034E-14));
#1453=DIRECTION('',(-0.187500000000003,0.982264602843856,-8.46080154287722E-17));
#1454=DIRECTION('',(-0.982264602843856,-0.187500000000003,-9.95395171059564E-15));
#1455=DIRECTION('',(9.79771819231701E-15,1.78329573330416E-15,-1.));
#1456=DIRECTION('',(-0.187500000000003,0.982264602843856,-8.46080154287722E-17));
#1457=DIRECTION('',(-1.58640028928951E-17,8.31074586725497E-17,1.));
#1458=DIRECTION('',(-0.982264602843856,-0.187500000000003,0.));
#1459=DIRECTION('',(-0.187500000000003,0.982264602843856,-8.46080154287722E-17));
#1460=DIRECTION('',(0.982264602843856,0.187500000000003,1.96510733775349E-14));
#1461=DIRECTION('',(-1.93178806284777E-14,-3.60128593612785E-15,1.));
#1462=DIRECTION('',(-0.187500000000003,0.982264602843856,-8.46080154287722E-17));
#1463=DIRECTION('',(-1.58640028928951E-17,8.31074586725497E-17,1.));
#1464=DIRECTION('',(-0.982264602843856,-0.187500000000003,0.));
#1465=DIRECTION('',(-0.187500000000003,0.982264602843856,-8.46080154287722E-17));
#1466=DIRECTION('',(-0.982264602843856,-0.187500000000003,-1.75909049487879E-14));
#1467=DIRECTION('',(1.72917236085368E-14,3.21270787750905E-15,-1.));
#1468=DIRECTION('',(-0.26512118594396,-0.0506077712874638,-0.962886083734199));
#1469=DIRECTION('',(0.94580891662305,0.180541140700165,-0.269908113533136));
#1470=DIRECTION('',(-0.187500000000003,0.982264602843856,0.));
#1471=DIRECTION('',(-0.982264602843859,-0.187500000000005,0.));
#1472=DIRECTION('',(0.187500000000012,-0.982264602843855,0.));
#1473=DIRECTION('',(0.982264602843851,0.187500000000012,0.));
#1474=DIRECTION('',(-0.187500000000003,0.982264602843856,0.));
#1475=DIRECTION('',(-0.982264602843859,-0.187500000000005,0.));
#1476=DIRECTION('',(0.187500000000012,-0.982264602843855,0.));
#1477=DIRECTION('',(-0.982264602843855,-0.187500000000012,0.));
#1478=DIRECTION('',(-0.187500000000003,0.982264602843856,0.));
#1479=DIRECTION('',(0.982264602843856,0.187500000000003,0.));
#1480=DIRECTION('',(-0.18750000000001,0.982264602843855,0.));
#1481=DIRECTION('',(-0.982264602843859,-0.187500000000008,0.));
#1482=DIRECTION('',(0.187500000000002,-0.982264602843857,0.));
#1483=DIRECTION('',(0.982264602843859,0.187500000000001,0.));
#1484=DIRECTION('',(-0.187500000000003,0.982264602843857,-9.11163243079111E-17));
#1485=DIRECTION('',(-0.982264602843859,-0.187500000000005,0.));
#1486=DIRECTION('',(0.187500000000002,-0.982264602843857,0.));
#1487=DIRECTION('',(-0.982264602843857,-0.187500000000002,0.));
#1488=DIRECTION('',(-0.18750000000001,0.982264602843855,0.));
#1489=DIRECTION('',(0.982264602843855,0.18750000000001,0.));
#1490=CARTESIAN_POINT('',(0.,0.,0.));
#1491=CARTESIAN_POINT('',(-3.95522408315579,-1.77305026624132,56.2478395625985));
#1492=CARTESIAN_POINT('',(-3.93561158315579,-1.87579514369878,56.2478395625985));
#1493=CARTESIAN_POINT('',(-3.95522408315579,-1.77305026624132,56.2478395625985));
#1494=CARTESIAN_POINT('',(0.207112500000003,-1.08500948030132,56.2478395625986));
#1495=CARTESIAN_POINT('',(-2.52885497372198,-1.60726580495932,56.2478395625985));
#1496=CARTESIAN_POINT('',(-2.54846747372199,-1.50452092750185,56.2478395625985));
#1497=CARTESIAN_POINT('',(-2.54846747372199,-1.50452092750185,56.2478395625985));
#1498=CARTESIAN_POINT('',(0.187500000000003,-0.982264602843856,56.2478395625986));
#1499=CARTESIAN_POINT('',(0.207112500000003,-1.08500948030132,56.2478395625986));
#1500=CARTESIAN_POINT('',(-4.23480938118198,-1.93290764369878,53.6478395625984));
#1501=CARTESIAN_POINT('',(-4.1510222105594,-1.91691389369878,53.6478395625984));
#1502=CARTESIAN_POINT('',(-4.23480938118201,-1.93290764369878,55.5478395625985));
#1503=CARTESIAN_POINT('',(-4.15102221055943,-1.91691389369878,55.5478395625985));
#1504=CARTESIAN_POINT('',(14.2121870494942,1.58835518175362,50.8646313471849));
#1505=CARTESIAN_POINT('',(-4.65158945402861,-2.01246488665805,56.2478395625985));
#1506=CARTESIAN_POINT('',(-4.03835646061325,-1.89540764369878,56.0728395625984));
#1507=CARTESIAN_POINT('',(0.207112500000003,-1.08500948030132,56.2478395625986));
#1508=CARTESIAN_POINT('',(-6.16109094091988,-2.30060672539751,56.2478395625984));
#1509=CARTESIAN_POINT('',(-6.16109094091988,-2.30060672539752,56.2478395625985));
#1510=CARTESIAN_POINT('',(-6.16109094091988,-2.30060672539752,54.0478395625984));
#1511=CARTESIAN_POINT('',(0.207112500000003,-1.08500948030132,54.0478395625984));
#1512=CARTESIAN_POINT('',(-4.43126230175077,-1.97040764369878,54.0478395625984));
#1513=CARTESIAN_POINT('',(-4.43126230175076,-1.97040764369878,9.34580138426221E-17));
#1514=CARTESIAN_POINT('',(-4.43126230175075,-1.97040764369878,53.4478395625984));
#1515=CARTESIAN_POINT('',(-6.16109094091988,-2.30060672539751,53.4478395625984));
#1516=CARTESIAN_POINT('',(-4.03835646061321,-1.89540764369878,53.4478395625984));
#1517=CARTESIAN_POINT('',(-4.03835646061321,-1.89540764369878,9.34580138426221E-17));
#1518=CARTESIAN_POINT('',(-4.03835646061322,-1.89540764369878,54.0478395625984));
#1519=CARTESIAN_POINT('',(0.207112500000003,-1.08500948030132,54.0478395625984));
#1520=CARTESIAN_POINT('',(-2.30852782144414,-1.56520856200005,54.0478395625984));
#1521=CARTESIAN_POINT('',(-2.30852782144414,-1.56520856200005,9.34580138426221E-17));
#1522=CARTESIAN_POINT('',(-2.30852782144412,-1.56520856200005,53.4478395625984));
#1523=CARTESIAN_POINT('',(-6.16109094091988,-2.30060672539751,53.4478395625984));
#1524=CARTESIAN_POINT('',(-1.91562198030662,-1.49020856200005,53.4478395625984));
#1525=CARTESIAN_POINT('',(-1.91562198030662,-1.49020856200006,9.34580138426221E-17));
#1526=CARTESIAN_POINT('',(-1.91562198030663,-1.49020856200005,54.0478395625984));
#1527=CARTESIAN_POINT('',(0.207112500000003,-1.08500948030132,54.0478395625984));
#1528=CARTESIAN_POINT('',(-0.185793341137544,-1.16000948030133,54.0478395625984));
#1529=CARTESIAN_POINT('',(-0.185793341137543,-1.16000948030133,9.34580138426221E-17));
#1530=CARTESIAN_POINT('',(-0.185793341137538,-1.16000948030132,53.4478395625984));
#1531=CARTESIAN_POINT('',(-6.16109094091988,-2.30060672539751,53.4478395625984));
#1532=CARTESIAN_POINT('',(0.207112500000004,-1.08500948030132,53.4478395625984));
#1533=CARTESIAN_POINT('',(0.207112500000004,-1.08500948030132,53.4478395625984));
#1534=CARTESIAN_POINT('',(0.207112500000003,-1.08500948030132,55.2432395625984));
#1535=CARTESIAN_POINT('',(0.207112500000003,-1.08500948030132,55.2432395625984));
#1536=CARTESIAN_POINT('',(-0.406120493415352,-1.20206672326059,55.2432395625984));
#1537=CARTESIAN_POINT('',(-0.406120493415349,-1.20206672326059,9.34580138426221E-17));
#1538=CARTESIAN_POINT('',(-0.406120493415349,-1.20206672326059,55.7978395625985));
#1539=CARTESIAN_POINT('',(0.207112500000003,-1.08500948030132,55.7978395625985));
#1540=CARTESIAN_POINT('',(-0.185793341137538,-1.16000948030132,55.7978395625985));
#1541=CARTESIAN_POINT('',(-0.185793341137536,-1.16000948030133,9.34580138426221E-17));
#1542=CARTESIAN_POINT('',(-0.185793341137537,-1.16000948030132,55.3478395625985));
#1543=CARTESIAN_POINT('',(0.207112500000003,-1.08500948030132,55.3478395625985));
#1544=CARTESIAN_POINT('',(0.207112500000003,-1.08500948030132,55.3478395625985));
#1545=CARTESIAN_POINT('',(0.207112500000004,-1.08500948030132,53.4478395625984));
#1546=CARTESIAN_POINT('',(0.207112500000003,-1.08500948030132,56.0728395625985));
#1547=CARTESIAN_POINT('',(14.5214711179514,1.64739300381077,51.9879113460166));
#1548=CARTESIAN_POINT('',(-0.406120493415357,-1.20206672326059,56.2478395625986));
#1549=CARTESIAN_POINT('',(0.207112500000003,-1.08500948030132,56.2478395625986));
#1550=CARTESIAN_POINT('',(-1.81287710284916,-1.47059606200005,56.2478395625985));
#1551=CARTESIAN_POINT('',(-1.81287710284914,-1.47059606200005,9.34580138426221E-17));
#1552=CARTESIAN_POINT('',(-1.81287710284914,-1.47059606200005,55.2432395625984));
#1553=CARTESIAN_POINT('',(0.207112500000003,-1.08500948030132,55.2432395625984));
#1554=CARTESIAN_POINT('',(-2.52885497372196,-1.60726580495932,55.2432395625984));
#1555=CARTESIAN_POINT('',(-2.52885497372197,-1.60726580495932,9.34580138426221E-17));
#1556=CARTESIAN_POINT('',(-2.52885497372197,-1.60726580495932,55.7978395625984));
#1557=CARTESIAN_POINT('',(0.207112500000003,-1.08500948030132,55.7978395625984));
#1558=CARTESIAN_POINT('',(-2.30852782144416,-1.56520856200005,55.7978395625984));
#1559=CARTESIAN_POINT('',(-2.30852782144415,-1.56520856200006,9.34580138426221E-17));
#1560=CARTESIAN_POINT('',(-2.30852782144415,-1.56520856200005,55.3478395625984));
#1561=CARTESIAN_POINT('',(0.207112500000003,-1.08500948030132,55.3478395625984));
#1562=CARTESIAN_POINT('',(-1.91562198030661,-1.49020856200005,55.3478395625984));
#1563=CARTESIAN_POINT('',(-1.91562198030662,-1.49020856200006,9.34580138426221E-17));
#1564=CARTESIAN_POINT('',(-1.91562198030662,-1.49020856200005,56.0728395625984));
#1565=CARTESIAN_POINT('',(14.3668290837225,1.61787409278213,51.4262713466009));
#1566=CARTESIAN_POINT('',(-3.93561158315576,-1.87579514369878,9.34580138426221E-17));
#1567=CARTESIAN_POINT('',(-3.93561158315576,-1.87579514369878,55.2432395625984));
#1568=CARTESIAN_POINT('',(0.207112500000003,-1.08500948030132,55.2432395625984));
#1569=CARTESIAN_POINT('',(-4.65158945402859,-2.01246488665805,55.2432395625984));
#1570=CARTESIAN_POINT('',(-4.6515894540286,-2.01246488665805,9.34580138426221E-17));
#1571=CARTESIAN_POINT('',(-4.6515894540286,-2.01246488665805,55.7978395625984));
#1572=CARTESIAN_POINT('',(0.207112500000003,-1.08500948030132,55.7978395625984));
#1573=CARTESIAN_POINT('',(-4.43126230175079,-1.97040764369878,55.7978395625984));
#1574=CARTESIAN_POINT('',(-4.43126230175078,-1.97040764369879,9.34580138426221E-17));
#1575=CARTESIAN_POINT('',(-4.43126230175078,-1.97040764369878,55.3478395625984));
#1576=CARTESIAN_POINT('',(0.207112500000003,-1.08500948030132,55.3478395625984));
#1577=CARTESIAN_POINT('',(-4.03835646061323,-1.89540764369878,55.3478395625984));
#1578=CARTESIAN_POINT('',(-4.03835646061325,-1.89540764369879,9.34580138426221E-17));
#1579=CARTESIAN_POINT('',(-2.11207490087536,-1.52770856200005,53.6478395625984));
#1580=CARTESIAN_POINT('',(-2.02828773025278,-1.51171481200005,53.6478395625984));
#1581=CARTESIAN_POINT('',(-2.11207490087538,-1.52770856200005,55.5478395625985));
#1582=CARTESIAN_POINT('',(-2.0282877302528,-1.51171481200005,55.5478395625985));
#1583=CARTESIAN_POINT('',(0.0106595794312343,-1.12250948030132,53.6478395625984));
#1584=CARTESIAN_POINT('',(0.0944467500538188,-1.10651573030132,53.6478395625984));
#1585=CARTESIAN_POINT('',(0.0106595794312352,-1.12250948030132,55.5478395625985));
#1586=CARTESIAN_POINT('',(0.0944467500538193,-1.10651573030132,55.5478395625985));
#1587=CARTESIAN_POINT('',(0.207112500000004,-1.08500948030133,8.46080154287725E-17));
#1588=CARTESIAN_POINT('',(-4.25442188118198,-1.83016276624131,53.6478395625984));
#1589=CARTESIAN_POINT('',(-4.1706347105594,-1.81416901624131,53.6478395625984));
#1590=CARTESIAN_POINT('',(-4.25442188118201,-1.83016276624131,55.5478395625985));
#1591=CARTESIAN_POINT('',(-4.17063471055943,-1.81416901624131,55.5478395625985));
#1592=CARTESIAN_POINT('',(0.187500000000003,-0.982264602843856,56.2478395625986));
#1593=CARTESIAN_POINT('',(-4.67120195402861,-1.90972000920058,56.2478395625985));
#1594=CARTESIAN_POINT('',(-6.18070344091988,-2.19786184794005,56.2478395625984));
#1595=CARTESIAN_POINT('',(14.1925745494942,1.69110005921109,50.8646313471849));
#1596=CARTESIAN_POINT('',(-4.05796896061325,-1.79266276624132,56.0728395625984));
#1597=CARTESIAN_POINT('',(-4.05796896061228,-1.79266276624114,-7.59454563205369E-14));
#1598=CARTESIAN_POINT('',(-4.05796896061323,-1.79266276624131,55.3478395625984));
#1599=CARTESIAN_POINT('',(0.187500000000003,-0.982264602843856,55.3478395625984));
#1600=CARTESIAN_POINT('',(-4.45087480175078,-1.86766276624131,55.3478395625984));
#1601=CARTESIAN_POINT('',(-4.45087480174971,-1.86766276624111,-9.27101881299247E-14));
#1602=CARTESIAN_POINT('',(-4.45087480175079,-1.86766276624132,55.7978395625984));
#1603=CARTESIAN_POINT('',(0.187500000000003,-0.982264602843856,55.7978395625984));
#1604=CARTESIAN_POINT('',(-4.6712019540286,-1.90972000920058,55.7978395625984));
#1605=CARTESIAN_POINT('',(-4.67120195402805,-1.90972000920048,-4.91519057371287E-14));
#1606=CARTESIAN_POINT('',(-4.67120195402859,-1.90972000920058,55.2432395625984));
#1607=CARTESIAN_POINT('',(0.187499999998701,-0.982264602844104,55.2432395625985));
#1608=CARTESIAN_POINT('',(-3.95522408315576,-1.77305026624131,55.2432395625984));
#1609=CARTESIAN_POINT('',(-3.95522408315459,-1.77305026624109,-9.07966482289948E-14));
#1610=CARTESIAN_POINT('',(14.3472165837225,1.7206189702396,51.4262713466009));
#1611=CARTESIAN_POINT('',(-1.93523448030662,-1.38746368454259,56.0728395625984));
#1612=CARTESIAN_POINT('',(-1.93523448030563,-1.3874636845424,-3.87302845568353E-14));
#1613=CARTESIAN_POINT('',(-1.93523448030661,-1.38746368454258,55.3478395625984));
#1614=CARTESIAN_POINT('',(0.187499999998815,-0.982264602844083,55.3478395625985));
#1615=CARTESIAN_POINT('',(-2.32814032144415,-1.46246368454258,55.3478395625984));
#1616=CARTESIAN_POINT('',(-2.32814032144305,-1.46246368454238,-5.17701929471691E-14));
#1617=CARTESIAN_POINT('',(-2.32814032144416,-1.46246368454259,55.7978395625984));
#1618=CARTESIAN_POINT('',(0.187500000000003,-0.982264602843856,55.7978395625984));
#1619=CARTESIAN_POINT('',(-2.54846747372197,-1.50452092750185,55.7978395625984));
#1620=CARTESIAN_POINT('',(-2.54846747372142,-1.50452092750175,-2.78980542000618E-14));
#1621=CARTESIAN_POINT('',(-2.54846747372196,-1.50452092750185,55.2432395625984));
#1622=CARTESIAN_POINT('',(0.187499999999352,-0.98226460284398,55.2432395625985));
#1623=CARTESIAN_POINT('',(-1.83248960284914,-1.36785118454258,55.2432395625984));
#1624=CARTESIAN_POINT('',(-1.83248960284798,-1.36785118454237,-4.3679730515738E-14));
#1625=CARTESIAN_POINT('',(-1.83248960284916,-1.36785118454259,56.2478395625985));
#1626=CARTESIAN_POINT('',(0.187500000000003,-0.982264602843856,56.2478395625986));
#1627=CARTESIAN_POINT('',(-0.425732993415357,-1.09932184580312,56.2478395625986));
#1628=CARTESIAN_POINT('',(14.5018586179514,1.75013788126824,51.9879113460166));
#1629=CARTESIAN_POINT('',(0.187500000000003,-0.982264602843856,56.0728395625985));
#1630=CARTESIAN_POINT('',(0.187500000000004,-0.982264602843856,53.4478395625984));
#1631=CARTESIAN_POINT('',(0.187500000000003,-0.982264602843856,55.3478395625985));
#1632=CARTESIAN_POINT('',(0.187500000000003,-0.982264602843856,55.3478395625985));
#1633=CARTESIAN_POINT('',(-0.205405841137537,-1.05726460284386,55.3478395625985));
#1634=CARTESIAN_POINT('',(-0.205405841137307,-1.05726460284382,-1.60077686389744E-15));
#1635=CARTESIAN_POINT('',(-0.205405841137539,-1.05726460284386,55.7978395625985));
#1636=CARTESIAN_POINT('',(0.187500000000003,-0.982264602843856,55.7978395625985));
#1637=CARTESIAN_POINT('',(-0.42573299341535,-1.09932184580312,55.7978395625985));
#1638=CARTESIAN_POINT('',(-0.425732993415628,-1.09932184580318,3.26727695687723E-15));
#1639=CARTESIAN_POINT('',(-0.425732993415352,-1.09932184580312,55.2432395625984));
#1640=CARTESIAN_POINT('',(0.187499999999352,-0.98226460284398,55.2432395625985));
#1641=CARTESIAN_POINT('',(0.187500000000003,-0.982264602843856,55.2432395625984));
#1642=CARTESIAN_POINT('',(0.187500000000004,-0.982264602843856,53.4478395625984));
#1643=CARTESIAN_POINT('',(0.187500000000004,-0.982264602843856,53.4478395625984));
#1644=CARTESIAN_POINT('',(-6.18070344091988,-2.19786184794005,53.4478395625984));
#1645=CARTESIAN_POINT('',(-0.205405841137539,-1.05726460284386,53.4478395625984));
#1646=CARTESIAN_POINT('',(-0.205405841137074,-1.05726460284377,-3.45624225456104E-15));
#1647=CARTESIAN_POINT('',(-0.205405841137544,-1.05726460284386,54.0478395625984));
#1648=CARTESIAN_POINT('',(0.187499999999476,-0.982264602843957,54.0478395625984));
#1649=CARTESIAN_POINT('',(-1.93523448030663,-1.38746368454259,54.0478395625984));
#1650=CARTESIAN_POINT('',(-1.93523448030613,-1.3874636845425,-2.0167803670237E-14));
#1651=CARTESIAN_POINT('',(-1.93523448030662,-1.38746368454259,53.4478395625984));
#1652=CARTESIAN_POINT('',(-6.18070344091988,-2.19786184794005,53.4478395625984));
#1653=CARTESIAN_POINT('',(-2.32814032144412,-1.46246368454258,53.4478395625984));
#1654=CARTESIAN_POINT('',(-2.32814032144286,-1.46246368454234,-6.16621171769947E-14));
#1655=CARTESIAN_POINT('',(-2.32814032144414,-1.46246368454258,54.0478395625984));
#1656=CARTESIAN_POINT('',(0.187499999998685,-0.982264602844108,54.0478395625985));
#1657=CARTESIAN_POINT('',(-4.05796896061322,-1.79266276624131,54.0478395625984));
#1658=CARTESIAN_POINT('',(-4.05796896061199,-1.79266276624108,-1.00623979263707E-13));
#1659=CARTESIAN_POINT('',(-4.05796896061321,-1.79266276624131,53.4478395625984));
#1660=CARTESIAN_POINT('',(-6.18070344091988,-2.19786184794005,53.4478395625984));
#1661=CARTESIAN_POINT('',(-4.45087480175075,-1.86766276624131,53.4478395625984));
#1662=CARTESIAN_POINT('',(-4.45087480174949,-1.86766276624107,-1.13361787544504E-13));
#1663=CARTESIAN_POINT('',(-4.45087480175077,-1.86766276624131,54.0478395625984));
#1664=CARTESIAN_POINT('',(0.187499999998685,-0.982264602844108,54.0478395625985));
#1665=CARTESIAN_POINT('',(-6.18070344091988,-2.19786184794005,54.0478395625984));
#1666=CARTESIAN_POINT('',(-6.18070344091988,-2.19786184794005,56.2478395625985));
#1667=CARTESIAN_POINT('',(-0.00895292056876595,-1.01976460284386,53.6478395625984));
#1668=CARTESIAN_POINT('',(0.0748342500538148,-1.00377085284386,53.6478395625984));
#1669=CARTESIAN_POINT('',(-0.00895292056876509,-1.01976460284386,55.5478395625985));
#1670=CARTESIAN_POINT('',(0.0748342500538158,-1.00377085284386,55.5478395625985));
#1671=CARTESIAN_POINT('',(-2.13168740087538,-1.42496368454258,55.5478395625985));
#1672=CARTESIAN_POINT('',(-2.0479002302528,-1.40896993454258,55.5478395625985));
#1673=CARTESIAN_POINT('',(-2.13168740087536,-1.42496368454258,53.6478395625984));
#1674=CARTESIAN_POINT('',(-2.04790023025278,-1.40896993454258,53.6478395625984));
#1675=CARTESIAN_POINT('',(0.187500000000004,-0.982264602843861,8.46080154287725E-17));
#1676=CARTESIAN_POINT('',(-6.18070344091988,-2.19786184794005,54.0478395625984));
#1677=CARTESIAN_POINT('',(-6.16109094091988,-2.30060672539751,56.2478395625984));
#1678=CARTESIAN_POINT('',(-6.16109094091988,-2.30060672539752,56.2478395625985));
#1679=CARTESIAN_POINT('',(-1.83248960284916,-1.36785118454259,56.2478395625985));
#1680=CARTESIAN_POINT('',(-0.425732993415357,-1.09932184580312,56.2478395625986));
#1681=CARTESIAN_POINT('',(0.207112500000003,-1.08500948030132,56.2478395625986));
#1682=CARTESIAN_POINT('',(-4.45087480175075,-1.86766276624131,53.4478395625984));
#1683=CARTESIAN_POINT('',(-4.05796896061321,-1.79266276624131,53.4478395625984));
#1684=CARTESIAN_POINT('',(-6.16109094091988,-2.30060672539751,53.4478395625984));
#1685=CARTESIAN_POINT('',(0.187500000000003,-0.982264602843856,55.2432395625984));
#1686=CARTESIAN_POINT('',(0.207112500000004,-1.08500948030132,53.4478395625984));
#1687=CARTESIAN_POINT('',(0.207112500000004,-1.08500948030132,53.4478395625984));
#1688=CARTESIAN_POINT('',(0.187500000000003,-0.982264602843856,55.3478395625985));
#1689=CARTESIAN_POINT('',(0.187500000000003,-0.982264602843856,56.0728395625985));
#1690=CARTESIAN_POINT('',(0.207112500000004,-1.08500948030132,53.4478395625984));
#1691=CARTESIAN_POINT('',(-2.32814032144412,-1.46246368454258,53.4478395625984));
#1692=CARTESIAN_POINT('',(-1.93523448030662,-1.38746368454259,53.4478395625984));
#1693=CARTESIAN_POINT('',(-6.16109094091988,-2.30060672539751,53.4478395625984));
#1694=CARTESIAN_POINT('',(-0.205405841137539,-1.05726460284386,53.4478395625984));
#1695=CARTESIAN_POINT('',(-6.16109094091988,-2.30060672539751,53.4478395625984));
#1696=CARTESIAN_POINT('',(-4.67120195402861,-1.90972000920058,56.2478395625985));
#1697=CARTESIAN_POINT('',(0.207112500000003,-1.08500948030132,56.2478395625986));
#1698=CARTESIAN_POINT('',(-1.93523448030663,-1.38746368454259,54.0478395625984));
#1699=CARTESIAN_POINT('',(-0.205405841137544,-1.05726460284386,54.0478395625984));
#1700=CARTESIAN_POINT('',(0.187499999999476,-0.982264602843957,54.0478395625984));
#1701=CARTESIAN_POINT('',(-0.205405841137074,-1.05726460284377,-3.45624225456104E-15));
#1702=CARTESIAN_POINT('',(-1.93523448030613,-1.3874636845425,-2.0167803670237E-14));
#1703=CARTESIAN_POINT('',(-0.425732993415352,-1.09932184580312,55.2432395625984));
#1704=CARTESIAN_POINT('',(0.187499999999352,-0.98226460284398,55.2432395625985));
#1705=CARTESIAN_POINT('',(-0.42573299341535,-1.09932184580312,55.7978395625985));
#1706=CARTESIAN_POINT('',(-0.425732993415628,-1.09932184580318,3.26727695687723E-15));
#1707=CARTESIAN_POINT('',(-0.205405841137539,-1.05726460284386,55.7978395625985));
#1708=CARTESIAN_POINT('',(0.187500000000003,-0.982264602843856,55.7978395625985));
#1709=CARTESIAN_POINT('',(-0.205405841137537,-1.05726460284386,55.3478395625985));
#1710=CARTESIAN_POINT('',(-0.205405841137307,-1.05726460284382,-1.60077686389744E-15));
#1711=CARTESIAN_POINT('',(0.187500000000003,-0.982264602843856,55.3478395625985));
#1712=CARTESIAN_POINT('',(14.5018586179514,1.75013788126824,51.9879113460166));
#1713=CARTESIAN_POINT('',(-0.00614042056876514,-1.03449857188651,55.5478395625985));
#1714=CARTESIAN_POINT('',(-0.0751936221486882,-1.04767982188651,55.5478395625985));
#1715=CARTESIAN_POINT('',(0.00784707943123445,-1.10777551125866,55.5478395625985));
#1716=CARTESIAN_POINT('',(0.0769002810111576,-1.09459426125866,55.5478395625985));
#1717=CARTESIAN_POINT('',(0.0106595794312345,-1.12250948030132,55.5478395625985));
#1718=CARTESIAN_POINT('',(-0.00533417056876579,-1.03872230967874,55.5478395625985));
#1719=CARTESIAN_POINT('',(0.00704082943123509,-1.10355177346644,55.5478395625985));
#1720=CARTESIAN_POINT('',(-0.00614042056876598,-1.03449857188651,53.6478395625984));
#1721=CARTESIAN_POINT('',(-0.0751936221486891,-1.04767982188651,53.6478395625984));
#1722=CARTESIAN_POINT('',(0.00784707943123356,-1.10777551125866,53.6478395625984));
#1723=CARTESIAN_POINT('',(0.0769002810111567,-1.09459426125866,53.6478395625984));
#1724=CARTESIAN_POINT('',(0.0106595794312336,-1.12250948030132,53.6478395625984));
#1725=CARTESIAN_POINT('',(-0.00533417056876667,-1.03872230967874,53.6478395625984));
#1726=CARTESIAN_POINT('',(0.0070408294312342,-1.10355177346644,53.6478395625984));
#1727=CARTESIAN_POINT('',(-4.05796896061322,-1.79266276624131,54.0478395625984));
#1728=CARTESIAN_POINT('',(-2.32814032144414,-1.46246368454258,54.0478395625984));
#1729=CARTESIAN_POINT('',(0.187499999998685,-0.982264602844108,54.0478395625985));
#1730=CARTESIAN_POINT('',(-2.32814032144286,-1.46246368454234,-6.16621171769947E-14));
#1731=CARTESIAN_POINT('',(-4.05796896061199,-1.79266276624108,-1.00623979263707E-13));
#1732=CARTESIAN_POINT('',(-1.83248960284914,-1.36785118454258,55.2432395625984));
#1733=CARTESIAN_POINT('',(-1.83248960284798,-1.36785118454237,-4.3679730515738E-14));
#1734=CARTESIAN_POINT('',(-2.54846747372196,-1.50452092750185,55.2432395625984));
#1735=CARTESIAN_POINT('',(0.187499999999352,-0.98226460284398,55.2432395625985));
#1736=CARTESIAN_POINT('',(-2.54846747372197,-1.50452092750185,55.7978395625984));
#1737=CARTESIAN_POINT('',(-2.54846747372142,-1.50452092750175,-2.78980542000618E-14));
#1738=CARTESIAN_POINT('',(-2.32814032144416,-1.46246368454259,55.7978395625984));
#1739=CARTESIAN_POINT('',(0.187500000000003,-0.982264602843856,55.7978395625984));
#1740=CARTESIAN_POINT('',(-2.32814032144415,-1.46246368454258,55.3478395625984));
#1741=CARTESIAN_POINT('',(-2.32814032144305,-1.46246368454238,-5.17701929471691E-14));
#1742=CARTESIAN_POINT('',(-1.93523448030661,-1.38746368454258,55.3478395625984));
#1743=CARTESIAN_POINT('',(0.187499999998815,-0.982264602844083,55.3478395625985));
#1744=CARTESIAN_POINT('',(-1.93523448030662,-1.38746368454259,56.0728395625984));
#1745=CARTESIAN_POINT('',(-1.93523448030563,-1.3874636845424,-3.87302845568353E-14));
#1746=CARTESIAN_POINT('',(14.3472165837225,1.7206189702396,51.4262713466009));
#1747=CARTESIAN_POINT('',(-2.12887490087538,-1.43969765358524,55.5478395625985));
#1748=CARTESIAN_POINT('',(-2.1979281024553,-1.45287890358524,55.5478395625985));
#1749=CARTESIAN_POINT('',(-2.11488740087538,-1.51297459295739,55.5478395625985));
#1750=CARTESIAN_POINT('',(-2.04583419929546,-1.49979334295739,55.5478395625985));
#1751=CARTESIAN_POINT('',(-2.11207490087538,-1.52770856200005,55.5478395625985));
#1752=CARTESIAN_POINT('',(-2.12806865087538,-1.44392139137747,55.5478395625985));
#1753=CARTESIAN_POINT('',(-2.11569365087538,-1.50875085516516,55.5478395625985));
#1754=CARTESIAN_POINT('',(-2.12887490087536,-1.43969765358524,53.6478395625984));
#1755=CARTESIAN_POINT('',(-2.19792810245528,-1.45287890358524,53.6478395625984));
#1756=CARTESIAN_POINT('',(-2.11488740087536,-1.51297459295739,53.6478395625984));
#1757=CARTESIAN_POINT('',(-2.04583419929544,-1.49979334295739,53.6478395625984));
#1758=CARTESIAN_POINT('',(-2.11207490087536,-1.52770856200005,53.6478395625984));
#1759=CARTESIAN_POINT('',(-2.12806865087536,-1.44392139137747,53.6478395625984));
#1760=CARTESIAN_POINT('',(-2.11569365087536,-1.50875085516516,53.6478395625984));
#1761=CARTESIAN_POINT('',(-4.45087480175077,-1.86766276624131,54.0478395625984));
#1762=CARTESIAN_POINT('',(-4.45087480174949,-1.86766276624107,-1.13361787544504E-13));
#1763=CARTESIAN_POINT('',(0.187499999998685,-0.982264602844108,54.0478395625985));
#1764=CARTESIAN_POINT('',(-3.95522408315576,-1.77305026624131,55.2432395625984));
#1765=CARTESIAN_POINT('',(-3.95522408315459,-1.77305026624109,-9.07966482289948E-14));
#1766=CARTESIAN_POINT('',(-4.67120195402859,-1.90972000920058,55.2432395625984));
#1767=CARTESIAN_POINT('',(0.187499999998701,-0.982264602844104,55.2432395625985));
#1768=CARTESIAN_POINT('',(-4.6712019540286,-1.90972000920058,55.7978395625984));
#1769=CARTESIAN_POINT('',(-4.67120195402805,-1.90972000920048,-4.91519057371287E-14));
#1770=CARTESIAN_POINT('',(-4.45087480175079,-1.86766276624132,55.7978395625984));
#1771=CARTESIAN_POINT('',(0.187500000000003,-0.982264602843856,55.7978395625984));
#1772=CARTESIAN_POINT('',(-4.45087480175078,-1.86766276624131,55.3478395625984));
#1773=CARTESIAN_POINT('',(-4.45087480174971,-1.86766276624111,-9.27101881299247E-14));
#1774=CARTESIAN_POINT('',(-4.05796896061323,-1.79266276624131,55.3478395625984));
#1775=CARTESIAN_POINT('',(0.187500000000003,-0.982264602843856,55.3478395625984));
#1776=CARTESIAN_POINT('',(-4.05796896061325,-1.79266276624132,56.0728395625984));
#1777=CARTESIAN_POINT('',(-4.05796896061228,-1.79266276624114,-7.59454563205369E-14));
#1778=CARTESIAN_POINT('',(14.1925745494942,1.69110005921109,50.8646313471849));
#1779=CARTESIAN_POINT('',(-4.25160938118201,-1.84489673528397,55.5478395625985));
#1780=CARTESIAN_POINT('',(-4.32066258276193,-1.85807798528397,55.5478395625985));
#1781=CARTESIAN_POINT('',(-4.23762188118201,-1.91817367465612,55.5478395625985));
#1782=CARTESIAN_POINT('',(-4.16856867960209,-1.90499242465612,55.5478395625985));
#1783=CARTESIAN_POINT('',(-4.23480938118201,-1.93290764369878,55.5478395625985));
#1784=CARTESIAN_POINT('',(-4.25080313118201,-1.8491204730762,55.5478395625985));
#1785=CARTESIAN_POINT('',(-4.23842813118201,-1.9139499368639,55.5478395625985));
#1786=CARTESIAN_POINT('',(-4.25160938118198,-1.84489673528397,53.6478395625984));
#1787=CARTESIAN_POINT('',(-4.3206625827619,-1.85807798528397,53.6478395625984));
#1788=CARTESIAN_POINT('',(-4.23762188118198,-1.91817367465612,53.6478395625984));
#1789=CARTESIAN_POINT('',(-4.16856867960206,-1.90499242465612,53.6478395625984));
#1790=CARTESIAN_POINT('',(-4.23480938118198,-1.93290764369878,53.6478395625984));
#1791=CARTESIAN_POINT('',(-4.25080313118198,-1.8491204730762,53.6478395625984));
#1792=CARTESIAN_POINT('',(-4.23842813118198,-1.91394993686389,53.6478395625984));
#1793=MECHANICAL_DESIGN_GEOMETRIC_PRESENTATION_REPRESENTATION('',(#32),
#1794);
#1794=(
GEOMETRIC_REPRESENTATION_CONTEXT(3)
GLOBAL_UNCERTAINTY_ASSIGNED_CONTEXT((#1795))
GLOBAL_UNIT_ASSIGNED_CONTEXT((#1800,#1797,#1796))
REPRESENTATION_CONTEXT('Diffuser','TOP_LEVEL_ASSEMBLY_PART')
);
#1795=UNCERTAINTY_MEASURE_WITH_UNIT(LENGTH_MEASURE(7.8740157480315E-7),
#1800,'DISTANCE_ACCURACY_VALUE','Maximum Tolerance applied to model');
#1796=(
NAMED_UNIT(*)
SI_UNIT($,.STERADIAN.)
SOLID_ANGLE_UNIT()
);
#1797=(
CONVERSION_BASED_UNIT('DEGREE',#1798)
NAMED_UNIT(#1802)
PLANE_ANGLE_UNIT()
);
#1798=PLANE_ANGLE_MEASURE_WITH_UNIT(PLANE_ANGLE_MEASURE(0.0174532925),#1799);
#1799=(
NAMED_UNIT(*)
PLANE_ANGLE_UNIT()
SI_UNIT($,.RADIAN.)
);
#1800=(
CONVERSION_BASED_UNIT('INCH',#1803)
LENGTH_UNIT()
NAMED_UNIT(#1801)
);
#1801=DIMENSIONAL_EXPONENTS(1.,0.,0.,0.,0.,0.,0.);
#1802=DIMENSIONAL_EXPONENTS(0.,0.,0.,0.,0.,0.,0.);
#1803=LENGTH_MEASURE_WITH_UNIT(LENGTH_MEASURE(25.4),#1804);
#1804=(
LENGTH_UNIT()
NAMED_UNIT(*)
SI_UNIT(.MILLI.,.METRE.)
);
ENDSEC;
END-ISO-10303-21;
