ISO-10303-21;
HEADER;
/* Generated by software containing ST-Developer
 * from STEP Tools, Inc. (www.steptools.com) 
 */
/* OPTION: using custom schema-name function */

FILE_DESCRIPTION(
/* description */ (''),
/* implementation_level */ '2;1');

FILE_NAME(
/* name */ 'Diffuser_Cap.stp',
/* time_stamp */ '2026-08-30T12:19:42-04:00',
/* author */ (''),
/* organization */ (''),
/* preprocessor_version */ 'ST-DEVELOPER v18.102',
/* originating_system */ 'SIEMENS PLM Software NX 2027',
/* authorisation */ '');

FILE_SCHEMA (('AUTOMOTIVE_DESIGN { 1 0 10303 214 3 1 1 1 }'));
ENDSEC;

DATA;
#10=PROPERTY_DEFINITION_REPRESENTATION(#14,#12);
#11=PROPERTY_DEFINITION_REPRESENTATION(#15,#13);
#12=REPRESENTATION('',(#16),#1194);
#13=REPRESENTATION('',(#17),#1194);
#14=PROPERTY_DEFINITION('pmi validation property','',#21);
#15=PROPERTY_DEFINITION('pmi validation property','',#21);
#16=VALUE_REPRESENTATION_ITEM('number of annotations',COUNT_MEASURE(0.));
#17=VALUE_REPRESENTATION_ITEM('number of views',COUNT_MEASURE(0.));
#18=SHAPE_REPRESENTATION_RELATIONSHIP('None',
'relationship between A_objects-None and A_objects-None',#30,#19);
#19=ADVANCED_BREP_SHAPE_REPRESENTATION('A_objects-None',(#40),#1194);
#20=SHAPE_DEFINITION_REPRESENTATION(#21,#30);
#21=PRODUCT_DEFINITION_SHAPE('','',#22);
#22=PRODUCT_DEFINITION(' ','',#24,#23);
#23=PRODUCT_DEFINITION_CONTEXT('part definition',#29,'design');
#24=PRODUCT_DEFINITION_FORMATION_WITH_SPECIFIED_SOURCE(' ',' ',#26,
 .NOT_KNOWN.);
#25=PRODUCT_RELATED_PRODUCT_CATEGORY('part','',(#26));
#26=PRODUCT('A_objects','A_objects',' ',(#27));
#27=PRODUCT_CONTEXT(' ',#29,'mechanical');
#28=APPLICATION_PROTOCOL_DEFINITION('international standard',
'automotive_design',2010,#29);
#29=APPLICATION_CONTEXT(
'core data for automotive mechanical design processes');
#30=SHAPE_REPRESENTATION('A_objects-None',(#725),#1194);
#31=PRESENTATION_LAYER_ASSIGNMENT('1','Layer 1',(#40));
#32=STYLED_ITEM('',(#33),#40);
#33=PRESENTATION_STYLE_ASSIGNMENT((#34));
#34=SURFACE_STYLE_USAGE(.BOTH.,#35);
#35=SURFACE_SIDE_STYLE('',(#36));
#36=SURFACE_STYLE_FILL_AREA(#37);
#37=FILL_AREA_STYLE('',(#38));
#38=FILL_AREA_STYLE_COLOUR('',#39);
#39=DRAUGHTING_PRE_DEFINED_COLOUR('cyan');
#40=MANIFOLD_SOLID_BREP('',#41);
#41=CLOSED_SHELL('',(#94,#95,#96,#97,#98,#99,#100,#101,#102,#103,#104,#105,
#106,#107,#108,#109,#110,#111,#112,#113,#114,#115,#116,#117,#118,#119,#120,
#121,#122,#123,#124,#125,#126,#127,#128,#129,#130,#131));
#42=CONICAL_SURFACE('',#774,0.,45.);
#43=CONICAL_SURFACE('',#775,0.,45.);
#44=CONICAL_SURFACE('',#783,0.,45.);
#45=CONICAL_SURFACE('',#784,0.,45.);
#46=CONICAL_SURFACE('',#792,0.,45.);
#47=CONICAL_SURFACE('',#793,0.,45.);
#48=PLANE('',#740);
#49=PLANE('',#752);
#50=PLANE('',#755);
#51=PLANE('',#756);
#52=PLANE('',#757);
#53=PLANE('',#758);
#54=PLANE('',#759);
#55=PLANE('',#760);
#56=PLANE('',#761);
#57=PLANE('',#762);
#58=PLANE('',#763);
#59=PLANE('',#764);
#60=PLANE('',#765);
#61=PLANE('',#766);
#62=PLANE('',#767);
#63=PLANE('',#770);
#64=PLANE('',#776);
#65=PLANE('',#779);
#66=PLANE('',#785);
#67=PLANE('',#788);
#68=FACE_BOUND('',#172,.T.);
#69=FACE_BOUND('',#173,.T.);
#70=FACE_BOUND('',#174,.T.);
#71=FACE_BOUND('',#175,.T.);
#72=FACE_BOUND('',#176,.T.);
#73=FACE_BOUND('',#177,.T.);
#74=FACE_BOUND('',#178,.T.);
#75=FACE_BOUND('',#179,.T.);
#76=FACE_BOUND('',#198,.T.);
#77=FACE_BOUND('',#199,.T.);
#78=FACE_BOUND('',#200,.T.);
#79=FACE_BOUND('',#201,.T.);
#80=FACE_BOUND('',#202,.T.);
#81=FACE_BOUND('',#203,.T.);
#82=FACE_BOUND('',#208,.T.);
#83=FACE_BOUND('',#209,.T.);
#84=FACE_BOUND('',#210,.T.);
#85=FACE_BOUND('',#211,.T.);
#86=FACE_BOUND('',#212,.T.);
#87=FACE_BOUND('',#213,.T.);
#88=FACE_BOUND('',#218,.T.);
#89=FACE_BOUND('',#219,.T.);
#90=FACE_BOUND('',#220,.T.);
#91=FACE_BOUND('',#221,.T.);
#92=FACE_BOUND('',#222,.T.);
#93=FACE_BOUND('',#223,.T.);
#94=ADVANCED_FACE('',(#144),#132,.T.);
#95=ADVANCED_FACE('',(#68,#69,#70,#71),#48,.F.);
#96=ADVANCED_FACE('',(#72,#73,#74,#75),#49,.T.);
#97=ADVANCED_FACE('',(#145),#133,.T.);
#98=ADVANCED_FACE('',(#146),#134,.T.);
#99=ADVANCED_FACE('',(#147),#50,.F.);
#100=ADVANCED_FACE('',(#148),#51,.F.);
#101=ADVANCED_FACE('',(#149),#52,.F.);
#102=ADVANCED_FACE('',(#150),#53,.F.);
#103=ADVANCED_FACE('',(#151),#54,.F.);
#104=ADVANCED_FACE('',(#152),#55,.F.);
#105=ADVANCED_FACE('',(#153),#56,.F.);
#106=ADVANCED_FACE('',(#154),#57,.F.);
#107=ADVANCED_FACE('',(#155),#58,.F.);
#108=ADVANCED_FACE('',(#156),#59,.F.);
#109=ADVANCED_FACE('',(#157),#60,.F.);
#110=ADVANCED_FACE('',(#158),#61,.F.);
#111=ADVANCED_FACE('',(#159),#62,.T.);
#112=ADVANCED_FACE('',(#160),#135,.F.);
#113=ADVANCED_FACE('',(#161),#136,.F.);
#114=ADVANCED_FACE('',(#162),#63,.F.);
#115=ADVANCED_FACE('',(#76,#77),#137,.F.);
#116=ADVANCED_FACE('',(#78,#79),#42,.F.);
#117=ADVANCED_FACE('',(#80,#81),#43,.F.);
#118=ADVANCED_FACE('',(#163),#64,.T.);
#119=ADVANCED_FACE('',(#164),#138,.F.);
#120=ADVANCED_FACE('',(#165),#139,.F.);
#121=ADVANCED_FACE('',(#166),#65,.F.);
#122=ADVANCED_FACE('',(#82,#83),#140,.F.);
#123=ADVANCED_FACE('',(#84,#85),#44,.F.);
#124=ADVANCED_FACE('',(#86,#87),#45,.F.);
#125=ADVANCED_FACE('',(#167),#66,.T.);
#126=ADVANCED_FACE('',(#168),#141,.F.);
#127=ADVANCED_FACE('',(#169),#142,.F.);
#128=ADVANCED_FACE('',(#170),#67,.F.);
#129=ADVANCED_FACE('',(#88,#89),#143,.F.);
#130=ADVANCED_FACE('',(#90,#91),#46,.F.);
#131=ADVANCED_FACE('',(#92,#93),#47,.F.);
#132=CYLINDRICAL_SURFACE('',#728,1.1046);
#133=CYLINDRICAL_SURFACE('',#753,1.1046);
#134=CYLINDRICAL_SURFACE('',#754,1.1046);
#135=CYLINDRICAL_SURFACE('',#768,0.0523);
#136=CYLINDRICAL_SURFACE('',#769,0.0523);
#137=CYLINDRICAL_SURFACE('',#773,0.0703);
#138=CYLINDRICAL_SURFACE('',#777,0.0523);
#139=CYLINDRICAL_SURFACE('',#778,0.0523);
#140=CYLINDRICAL_SURFACE('',#782,0.0703);
#141=CYLINDRICAL_SURFACE('',#786,0.0523);
#142=CYLINDRICAL_SURFACE('',#787,0.0523);
#143=CYLINDRICAL_SURFACE('',#791,0.0703);
#144=FACE_OUTER_BOUND('',#171,.T.);
#145=FACE_OUTER_BOUND('',#180,.T.);
#146=FACE_OUTER_BOUND('',#181,.T.);
#147=FACE_OUTER_BOUND('',#182,.T.);
#148=FACE_OUTER_BOUND('',#183,.T.);
#149=FACE_OUTER_BOUND('',#184,.T.);
#150=FACE_OUTER_BOUND('',#185,.T.);
#151=FACE_OUTER_BOUND('',#186,.T.);
#152=FACE_OUTER_BOUND('',#187,.T.);
#153=FACE_OUTER_BOUND('',#188,.T.);
#154=FACE_OUTER_BOUND('',#189,.T.);
#155=FACE_OUTER_BOUND('',#190,.T.);
#156=FACE_OUTER_BOUND('',#191,.T.);
#157=FACE_OUTER_BOUND('',#192,.T.);
#158=FACE_OUTER_BOUND('',#193,.T.);
#159=FACE_OUTER_BOUND('',#194,.T.);
#160=FACE_OUTER_BOUND('',#195,.T.);
#161=FACE_OUTER_BOUND('',#196,.T.);
#162=FACE_OUTER_BOUND('',#197,.T.);
#163=FACE_OUTER_BOUND('',#204,.T.);
#164=FACE_OUTER_BOUND('',#205,.T.);
#165=FACE_OUTER_BOUND('',#206,.T.);
#166=FACE_OUTER_BOUND('',#207,.T.);
#167=FACE_OUTER_BOUND('',#214,.T.);
#168=FACE_OUTER_BOUND('',#215,.T.);
#169=FACE_OUTER_BOUND('',#216,.T.);
#170=FACE_OUTER_BOUND('',#217,.T.);
#171=EDGE_LOOP('',(#350,#351,#352,#353));
#172=EDGE_LOOP('',(#354));
#173=EDGE_LOOP('',(#355,#356,#357,#358,#359,#360,#361,#362,#363,#364,#365,
#366,#367,#368,#369,#370,#371,#372,#373,#374,#375,#376,#377,#378,#379,#380,
#381));
#174=EDGE_LOOP('',(#382));
#175=EDGE_LOOP('',(#383));
#176=EDGE_LOOP('',(#384));
#177=EDGE_LOOP('',(#385,#386,#387,#388,#389,#390,#391,#392,#393,#394,#395,
#396,#397,#398,#399,#400,#401,#402,#403,#404,#405,#406,#407,#408,#409,#410,
#411));
#178=EDGE_LOOP('',(#412));
#179=EDGE_LOOP('',(#413));
#180=EDGE_LOOP('',(#414,#415,#416,#417));
#181=EDGE_LOOP('',(#418,#419,#420,#421));
#182=EDGE_LOOP('',(#422,#423,#424,#425));
#183=EDGE_LOOP('',(#426,#427,#428,#429));
#184=EDGE_LOOP('',(#430,#431,#432,#433));
#185=EDGE_LOOP('',(#434,#435,#436,#437));
#186=EDGE_LOOP('',(#438,#439,#440,#441));
#187=EDGE_LOOP('',(#442,#443,#444,#445));
#188=EDGE_LOOP('',(#446,#447,#448,#449));
#189=EDGE_LOOP('',(#450,#451,#452,#453));
#190=EDGE_LOOP('',(#454,#455,#456,#457));
#191=EDGE_LOOP('',(#458,#459,#460,#461));
#192=EDGE_LOOP('',(#462,#463,#464,#465));
#193=EDGE_LOOP('',(#466,#467,#468,#469));
#194=EDGE_LOOP('',(#470,#471,#472,#473));
#195=EDGE_LOOP('',(#474,#475,#476,#477));
#196=EDGE_LOOP('',(#478,#479,#480,#481));
#197=EDGE_LOOP('',(#482,#483,#484,#485));
#198=EDGE_LOOP('',(#486));
#199=EDGE_LOOP('',(#487));
#200=EDGE_LOOP('',(#488));
#201=EDGE_LOOP('',(#489));
#202=EDGE_LOOP('',(#490));
#203=EDGE_LOOP('',(#491));
#204=EDGE_LOOP('',(#492,#493,#494,#495));
#205=EDGE_LOOP('',(#496,#497,#498,#499));
#206=EDGE_LOOP('',(#500,#501,#502,#503));
#207=EDGE_LOOP('',(#504,#505,#506,#507));
#208=EDGE_LOOP('',(#508));
#209=EDGE_LOOP('',(#509));
#210=EDGE_LOOP('',(#510));
#211=EDGE_LOOP('',(#511));
#212=EDGE_LOOP('',(#512));
#213=EDGE_LOOP('',(#513));
#214=EDGE_LOOP('',(#514,#515,#516,#517));
#215=EDGE_LOOP('',(#518,#519,#520,#521));
#216=EDGE_LOOP('',(#522,#523,#524,#525));
#217=EDGE_LOOP('',(#526,#527,#528,#529));
#218=EDGE_LOOP('',(#530));
#219=EDGE_LOOP('',(#531));
#220=EDGE_LOOP('',(#532));
#221=EDGE_LOOP('',(#533));
#222=EDGE_LOOP('',(#534));
#223=EDGE_LOOP('',(#535));
#224=LINE('',#999,#287);
#225=LINE('',#1003,#288);
#226=LINE('',#1007,#289);
#227=LINE('',#1012,#290);
#228=LINE('',#1013,#291);
#229=LINE('',#1017,#292);
#230=LINE('',#1019,#293);
#231=LINE('',#1021,#294);
#232=LINE('',#1023,#295);
#233=LINE('',#1027,#296);
#234=LINE('',#1031,#297);
#235=LINE('',#1035,#298);
#236=LINE('',#1037,#299);
#237=LINE('',#1039,#300);
#238=LINE('',#1041,#301);
#239=LINE('',#1045,#302);
#240=LINE('',#1049,#303);
#241=LINE('',#1053,#304);
#242=LINE('',#1055,#305);
#243=LINE('',#1057,#306);
#244=LINE('',#1065,#307);
#245=LINE('',#1069,#308);
#246=LINE('',#1071,#309);
#247=LINE('',#1073,#310);
#248=LINE('',#1075,#311);
#249=LINE('',#1079,#312);
#250=LINE('',#1083,#313);
#251=LINE('',#1087,#314);
#252=LINE('',#1089,#315);
#253=LINE('',#1091,#316);
#254=LINE('',#1093,#317);
#255=LINE('',#1097,#318);
#256=LINE('',#1101,#319);
#257=LINE('',#1105,#320);
#258=LINE('',#1107,#321);
#259=LINE('',#1109,#322);
#260=LINE('',#1111,#323);
#261=LINE('',#1115,#324);
#262=LINE('',#1121,#325);
#263=LINE('',#1122,#326);
#264=LINE('',#1124,#327);
#265=LINE('',#1125,#328);
#266=LINE('',#1127,#329);
#267=LINE('',#1128,#330);
#268=LINE('',#1130,#331);
#269=LINE('',#1132,#332);
#270=LINE('',#1134,#333);
#271=LINE('',#1136,#334);
#272=LINE('',#1137,#335);
#273=LINE('',#1139,#336);
#274=LINE('',#1141,#337);
#275=LINE('',#1143,#338);
#276=LINE('',#1145,#339);
#277=LINE('',#1146,#340);
#278=LINE('',#1148,#341);
#279=LINE('',#1150,#342);
#280=LINE('',#1152,#343);
#281=LINE('',#1154,#344);
#282=LINE('',#1157,#345);
#283=LINE('',#1167,#346);
#284=LINE('',#1170,#347);
#285=LINE('',#1180,#348);
#286=LINE('',#1183,#349);
#287=VECTOR('',#798,1.);
#288=VECTOR('',#801,1.);
#289=VECTOR('',#806,1.);
#290=VECTOR('',#809,1.);
#291=VECTOR('',#810,1.);
#292=VECTOR('',#813,1.);
#293=VECTOR('',#814,1.);
#294=VECTOR('',#815,1.);
#295=VECTOR('',#816,1.);
#296=VECTOR('',#819,1.);
#297=VECTOR('',#822,1.);
#298=VECTOR('',#825,1.);
#299=VECTOR('',#826,1.);
#300=VECTOR('',#827,1.);
#301=VECTOR('',#828,1.);
#302=VECTOR('',#831,1.);
#303=VECTOR('',#834,1.);
#304=VECTOR('',#837,1.);
#305=VECTOR('',#838,1.);
#306=VECTOR('',#839,1.);
#307=VECTOR('',#848,1.);
#308=VECTOR('',#851,1.);
#309=VECTOR('',#852,1.);
#310=VECTOR('',#853,1.);
#311=VECTOR('',#854,1.);
#312=VECTOR('',#857,1.);
#313=VECTOR('',#860,1.);
#314=VECTOR('',#863,1.);
#315=VECTOR('',#864,1.);
#316=VECTOR('',#865,1.);
#317=VECTOR('',#866,1.);
#318=VECTOR('',#869,1.);
#319=VECTOR('',#872,1.);
#320=VECTOR('',#875,1.);
#321=VECTOR('',#876,1.);
#322=VECTOR('',#877,1.);
#323=VECTOR('',#878,1.);
#324=VECTOR('',#881,1.);
#325=VECTOR('',#888,1.);
#326=VECTOR('',#889,1.);
#327=VECTOR('',#892,1.);
#328=VECTOR('',#893,1.);
#329=VECTOR('',#896,1.);
#330=VECTOR('',#897,1.);
#331=VECTOR('',#900,1.);
#332=VECTOR('',#903,1.);
#333=VECTOR('',#906,1.);
#334=VECTOR('',#909,1.);
#335=VECTOR('',#910,1.);
#336=VECTOR('',#913,1.);
#337=VECTOR('',#916,1.);
#338=VECTOR('',#919,1.);
#339=VECTOR('',#922,1.);
#340=VECTOR('',#923,1.);
#341=VECTOR('',#926,1.);
#342=VECTOR('',#929,1.);
#343=VECTOR('',#932,1.);
#344=VECTOR('',#935,1.);
#345=VECTOR('',#940,1.);
#346=VECTOR('',#955,1.);
#347=VECTOR('',#960,1.);
#348=VECTOR('',#975,1.);
#349=VECTOR('',#980,1.);
#350=ORIENTED_EDGE('',*,*,#602,.T.);
#351=ORIENTED_EDGE('',*,*,#603,.T.);
#352=ORIENTED_EDGE('',*,*,#604,.F.);
#353=ORIENTED_EDGE('',*,*,#605,.F.);
#354=ORIENTED_EDGE('',*,*,#606,.T.);
#355=ORIENTED_EDGE('',*,*,#607,.T.);
#356=ORIENTED_EDGE('',*,*,#608,.F.);
#357=ORIENTED_EDGE('',*,*,#609,.F.);
#358=ORIENTED_EDGE('',*,*,#602,.F.);
#359=ORIENTED_EDGE('',*,*,#610,.T.);
#360=ORIENTED_EDGE('',*,*,#611,.T.);
#361=ORIENTED_EDGE('',*,*,#612,.T.);
#362=ORIENTED_EDGE('',*,*,#613,.T.);
#363=ORIENTED_EDGE('',*,*,#614,.T.);
#364=ORIENTED_EDGE('',*,*,#615,.T.);
#365=ORIENTED_EDGE('',*,*,#616,.F.);
#366=ORIENTED_EDGE('',*,*,#617,.F.);
#367=ORIENTED_EDGE('',*,*,#618,.F.);
#368=ORIENTED_EDGE('',*,*,#619,.T.);
#369=ORIENTED_EDGE('',*,*,#620,.T.);
#370=ORIENTED_EDGE('',*,*,#621,.T.);
#371=ORIENTED_EDGE('',*,*,#622,.T.);
#372=ORIENTED_EDGE('',*,*,#623,.T.);
#373=ORIENTED_EDGE('',*,*,#624,.T.);
#374=ORIENTED_EDGE('',*,*,#625,.F.);
#375=ORIENTED_EDGE('',*,*,#626,.F.);
#376=ORIENTED_EDGE('',*,*,#627,.F.);
#377=ORIENTED_EDGE('',*,*,#628,.T.);
#378=ORIENTED_EDGE('',*,*,#629,.T.);
#379=ORIENTED_EDGE('',*,*,#630,.T.);
#380=ORIENTED_EDGE('',*,*,#631,.T.);
#381=ORIENTED_EDGE('',*,*,#632,.T.);
#382=ORIENTED_EDGE('',*,*,#633,.T.);
#383=ORIENTED_EDGE('',*,*,#634,.T.);
#384=ORIENTED_EDGE('',*,*,#635,.F.);
#385=ORIENTED_EDGE('',*,*,#636,.T.);
#386=ORIENTED_EDGE('',*,*,#637,.T.);
#387=ORIENTED_EDGE('',*,*,#638,.F.);
#388=ORIENTED_EDGE('',*,*,#639,.F.);
#389=ORIENTED_EDGE('',*,*,#640,.F.);
#390=ORIENTED_EDGE('',*,*,#641,.F.);
#391=ORIENTED_EDGE('',*,*,#642,.F.);
#392=ORIENTED_EDGE('',*,*,#643,.F.);
#393=ORIENTED_EDGE('',*,*,#644,.T.);
#394=ORIENTED_EDGE('',*,*,#645,.T.);
#395=ORIENTED_EDGE('',*,*,#646,.T.);
#396=ORIENTED_EDGE('',*,*,#647,.F.);
#397=ORIENTED_EDGE('',*,*,#648,.F.);
#398=ORIENTED_EDGE('',*,*,#649,.F.);
#399=ORIENTED_EDGE('',*,*,#650,.F.);
#400=ORIENTED_EDGE('',*,*,#651,.F.);
#401=ORIENTED_EDGE('',*,*,#652,.F.);
#402=ORIENTED_EDGE('',*,*,#653,.T.);
#403=ORIENTED_EDGE('',*,*,#654,.T.);
#404=ORIENTED_EDGE('',*,*,#655,.T.);
#405=ORIENTED_EDGE('',*,*,#656,.F.);
#406=ORIENTED_EDGE('',*,*,#657,.F.);
#407=ORIENTED_EDGE('',*,*,#658,.F.);
#408=ORIENTED_EDGE('',*,*,#659,.F.);
#409=ORIENTED_EDGE('',*,*,#660,.F.);
#410=ORIENTED_EDGE('',*,*,#661,.F.);
#411=ORIENTED_EDGE('',*,*,#604,.T.);
#412=ORIENTED_EDGE('',*,*,#662,.F.);
#413=ORIENTED_EDGE('',*,*,#663,.F.);
#414=ORIENTED_EDGE('',*,*,#664,.F.);
#415=ORIENTED_EDGE('',*,*,#627,.T.);
#416=ORIENTED_EDGE('',*,*,#665,.T.);
#417=ORIENTED_EDGE('',*,*,#644,.F.);
#418=ORIENTED_EDGE('',*,*,#666,.F.);
#419=ORIENTED_EDGE('',*,*,#618,.T.);
#420=ORIENTED_EDGE('',*,*,#667,.T.);
#421=ORIENTED_EDGE('',*,*,#653,.F.);
#422=ORIENTED_EDGE('',*,*,#656,.T.);
#423=ORIENTED_EDGE('',*,*,#668,.F.);
#424=ORIENTED_EDGE('',*,*,#615,.F.);
#425=ORIENTED_EDGE('',*,*,#669,.T.);
#426=ORIENTED_EDGE('',*,*,#657,.T.);
#427=ORIENTED_EDGE('',*,*,#669,.F.);
#428=ORIENTED_EDGE('',*,*,#614,.F.);
#429=ORIENTED_EDGE('',*,*,#670,.T.);
#430=ORIENTED_EDGE('',*,*,#658,.T.);
#431=ORIENTED_EDGE('',*,*,#670,.F.);
#432=ORIENTED_EDGE('',*,*,#613,.F.);
#433=ORIENTED_EDGE('',*,*,#671,.T.);
#434=ORIENTED_EDGE('',*,*,#659,.T.);
#435=ORIENTED_EDGE('',*,*,#671,.F.);
#436=ORIENTED_EDGE('',*,*,#612,.F.);
#437=ORIENTED_EDGE('',*,*,#672,.T.);
#438=ORIENTED_EDGE('',*,*,#647,.T.);
#439=ORIENTED_EDGE('',*,*,#673,.F.);
#440=ORIENTED_EDGE('',*,*,#624,.F.);
#441=ORIENTED_EDGE('',*,*,#674,.T.);
#442=ORIENTED_EDGE('',*,*,#648,.T.);
#443=ORIENTED_EDGE('',*,*,#674,.F.);
#444=ORIENTED_EDGE('',*,*,#623,.F.);
#445=ORIENTED_EDGE('',*,*,#675,.T.);
#446=ORIENTED_EDGE('',*,*,#649,.T.);
#447=ORIENTED_EDGE('',*,*,#675,.F.);
#448=ORIENTED_EDGE('',*,*,#622,.F.);
#449=ORIENTED_EDGE('',*,*,#676,.T.);
#450=ORIENTED_EDGE('',*,*,#650,.T.);
#451=ORIENTED_EDGE('',*,*,#676,.F.);
#452=ORIENTED_EDGE('',*,*,#621,.F.);
#453=ORIENTED_EDGE('',*,*,#677,.T.);
#454=ORIENTED_EDGE('',*,*,#638,.T.);
#455=ORIENTED_EDGE('',*,*,#678,.F.);
#456=ORIENTED_EDGE('',*,*,#607,.F.);
#457=ORIENTED_EDGE('',*,*,#679,.T.);
#458=ORIENTED_EDGE('',*,*,#639,.T.);
#459=ORIENTED_EDGE('',*,*,#679,.F.);
#460=ORIENTED_EDGE('',*,*,#632,.F.);
#461=ORIENTED_EDGE('',*,*,#680,.T.);
#462=ORIENTED_EDGE('',*,*,#640,.T.);
#463=ORIENTED_EDGE('',*,*,#680,.F.);
#464=ORIENTED_EDGE('',*,*,#631,.F.);
#465=ORIENTED_EDGE('',*,*,#681,.T.);
#466=ORIENTED_EDGE('',*,*,#641,.T.);
#467=ORIENTED_EDGE('',*,*,#681,.F.);
#468=ORIENTED_EDGE('',*,*,#630,.F.);
#469=ORIENTED_EDGE('',*,*,#682,.T.);
#470=ORIENTED_EDGE('',*,*,#605,.T.);
#471=ORIENTED_EDGE('',*,*,#661,.T.);
#472=ORIENTED_EDGE('',*,*,#683,.F.);
#473=ORIENTED_EDGE('',*,*,#610,.F.);
#474=ORIENTED_EDGE('',*,*,#683,.T.);
#475=ORIENTED_EDGE('',*,*,#660,.T.);
#476=ORIENTED_EDGE('',*,*,#672,.F.);
#477=ORIENTED_EDGE('',*,*,#611,.F.);
#478=ORIENTED_EDGE('',*,*,#668,.T.);
#479=ORIENTED_EDGE('',*,*,#655,.F.);
#480=ORIENTED_EDGE('',*,*,#684,.F.);
#481=ORIENTED_EDGE('',*,*,#616,.T.);
#482=ORIENTED_EDGE('',*,*,#617,.T.);
#483=ORIENTED_EDGE('',*,*,#684,.T.);
#484=ORIENTED_EDGE('',*,*,#654,.F.);
#485=ORIENTED_EDGE('',*,*,#667,.F.);
#486=ORIENTED_EDGE('',*,*,#685,.T.);
#487=ORIENTED_EDGE('',*,*,#686,.T.);
#488=ORIENTED_EDGE('',*,*,#663,.T.);
#489=ORIENTED_EDGE('',*,*,#686,.F.);
#490=ORIENTED_EDGE('',*,*,#685,.F.);
#491=ORIENTED_EDGE('',*,*,#633,.F.);
#492=ORIENTED_EDGE('',*,*,#666,.T.);
#493=ORIENTED_EDGE('',*,*,#652,.T.);
#494=ORIENTED_EDGE('',*,*,#687,.F.);
#495=ORIENTED_EDGE('',*,*,#619,.F.);
#496=ORIENTED_EDGE('',*,*,#687,.T.);
#497=ORIENTED_EDGE('',*,*,#651,.T.);
#498=ORIENTED_EDGE('',*,*,#677,.F.);
#499=ORIENTED_EDGE('',*,*,#620,.F.);
#500=ORIENTED_EDGE('',*,*,#673,.T.);
#501=ORIENTED_EDGE('',*,*,#646,.F.);
#502=ORIENTED_EDGE('',*,*,#688,.F.);
#503=ORIENTED_EDGE('',*,*,#625,.T.);
#504=ORIENTED_EDGE('',*,*,#626,.T.);
#505=ORIENTED_EDGE('',*,*,#688,.T.);
#506=ORIENTED_EDGE('',*,*,#645,.F.);
#507=ORIENTED_EDGE('',*,*,#665,.F.);
#508=ORIENTED_EDGE('',*,*,#689,.T.);
#509=ORIENTED_EDGE('',*,*,#690,.T.);
#510=ORIENTED_EDGE('',*,*,#662,.T.);
#511=ORIENTED_EDGE('',*,*,#690,.F.);
#512=ORIENTED_EDGE('',*,*,#689,.F.);
#513=ORIENTED_EDGE('',*,*,#634,.F.);
#514=ORIENTED_EDGE('',*,*,#664,.T.);
#515=ORIENTED_EDGE('',*,*,#643,.T.);
#516=ORIENTED_EDGE('',*,*,#691,.F.);
#517=ORIENTED_EDGE('',*,*,#628,.F.);
#518=ORIENTED_EDGE('',*,*,#691,.T.);
#519=ORIENTED_EDGE('',*,*,#642,.T.);
#520=ORIENTED_EDGE('',*,*,#682,.F.);
#521=ORIENTED_EDGE('',*,*,#629,.F.);
#522=ORIENTED_EDGE('',*,*,#678,.T.);
#523=ORIENTED_EDGE('',*,*,#637,.F.);
#524=ORIENTED_EDGE('',*,*,#692,.F.);
#525=ORIENTED_EDGE('',*,*,#608,.T.);
#526=ORIENTED_EDGE('',*,*,#609,.T.);
#527=ORIENTED_EDGE('',*,*,#692,.T.);
#528=ORIENTED_EDGE('',*,*,#636,.F.);
#529=ORIENTED_EDGE('',*,*,#603,.F.);
#530=ORIENTED_EDGE('',*,*,#693,.T.);
#531=ORIENTED_EDGE('',*,*,#694,.T.);
#532=ORIENTED_EDGE('',*,*,#635,.T.);
#533=ORIENTED_EDGE('',*,*,#694,.F.);
#534=ORIENTED_EDGE('',*,*,#693,.F.);
#535=ORIENTED_EDGE('',*,*,#606,.F.);
#536=VERTEX_POINT('',#997);
#537=VERTEX_POINT('',#998);
#538=VERTEX_POINT('',#1000);
#539=VERTEX_POINT('',#1002);
#540=VERTEX_POINT('',#1006);
#541=VERTEX_POINT('',#1008);
#542=VERTEX_POINT('',#1009);
#543=VERTEX_POINT('',#1011);
#544=VERTEX_POINT('',#1014);
#545=VERTEX_POINT('',#1016);
#546=VERTEX_POINT('',#1018);
#547=VERTEX_POINT('',#1020);
#548=VERTEX_POINT('',#1022);
#549=VERTEX_POINT('',#1024);
#550=VERTEX_POINT('',#1026);
#551=VERTEX_POINT('',#1028);
#552=VERTEX_POINT('',#1030);
#553=VERTEX_POINT('',#1032);
#554=VERTEX_POINT('',#1034);
#555=VERTEX_POINT('',#1036);
#556=VERTEX_POINT('',#1038);
#557=VERTEX_POINT('',#1040);
#558=VERTEX_POINT('',#1042);
#559=VERTEX_POINT('',#1044);
#560=VERTEX_POINT('',#1046);
#561=VERTEX_POINT('',#1048);
#562=VERTEX_POINT('',#1050);
#563=VERTEX_POINT('',#1052);
#564=VERTEX_POINT('',#1054);
#565=VERTEX_POINT('',#1056);
#566=VERTEX_POINT('',#1059);
#567=VERTEX_POINT('',#1061);
#568=VERTEX_POINT('',#1064);
#569=VERTEX_POINT('',#1066);
#570=VERTEX_POINT('',#1068);
#571=VERTEX_POINT('',#1070);
#572=VERTEX_POINT('',#1072);
#573=VERTEX_POINT('',#1074);
#574=VERTEX_POINT('',#1076);
#575=VERTEX_POINT('',#1078);
#576=VERTEX_POINT('',#1080);
#577=VERTEX_POINT('',#1082);
#578=VERTEX_POINT('',#1084);
#579=VERTEX_POINT('',#1086);
#580=VERTEX_POINT('',#1088);
#581=VERTEX_POINT('',#1090);
#582=VERTEX_POINT('',#1092);
#583=VERTEX_POINT('',#1094);
#584=VERTEX_POINT('',#1096);
#585=VERTEX_POINT('',#1098);
#586=VERTEX_POINT('',#1100);
#587=VERTEX_POINT('',#1102);
#588=VERTEX_POINT('',#1104);
#589=VERTEX_POINT('',#1106);
#590=VERTEX_POINT('',#1108);
#591=VERTEX_POINT('',#1110);
#592=VERTEX_POINT('',#1112);
#593=VERTEX_POINT('',#1114);
#594=VERTEX_POINT('',#1117);
#595=VERTEX_POINT('',#1119);
#596=VERTEX_POINT('',#1161);
#597=VERTEX_POINT('',#1163);
#598=VERTEX_POINT('',#1174);
#599=VERTEX_POINT('',#1176);
#600=VERTEX_POINT('',#1187);
#601=VERTEX_POINT('',#1189);
#602=EDGE_CURVE('',#536,#537,#695,.T.);
#603=EDGE_CURVE('',#537,#538,#224,.T.);
#604=EDGE_CURVE('',#539,#538,#696,.T.);
#605=EDGE_CURVE('',#536,#539,#225,.T.);
#606=EDGE_CURVE('',#540,#540,#697,.T.);
#607=EDGE_CURVE('',#541,#542,#226,.T.);
#608=EDGE_CURVE('',#543,#542,#698,.T.);
#609=EDGE_CURVE('',#537,#543,#227,.T.);
#610=EDGE_CURVE('',#536,#544,#228,.T.);
#611=EDGE_CURVE('',#544,#545,#699,.T.);
#612=EDGE_CURVE('',#545,#546,#229,.T.);
#613=EDGE_CURVE('',#546,#547,#230,.T.);
#614=EDGE_CURVE('',#547,#548,#231,.T.);
#615=EDGE_CURVE('',#548,#549,#232,.T.);
#616=EDGE_CURVE('',#550,#549,#700,.T.);
#617=EDGE_CURVE('',#551,#550,#233,.T.);
#618=EDGE_CURVE('',#552,#551,#701,.T.);
#619=EDGE_CURVE('',#552,#553,#234,.T.);
#620=EDGE_CURVE('',#553,#554,#702,.T.);
#621=EDGE_CURVE('',#554,#555,#235,.T.);
#622=EDGE_CURVE('',#555,#556,#236,.T.);
#623=EDGE_CURVE('',#556,#557,#237,.T.);
#624=EDGE_CURVE('',#557,#558,#238,.T.);
#625=EDGE_CURVE('',#559,#558,#703,.T.);
#626=EDGE_CURVE('',#560,#559,#239,.T.);
#627=EDGE_CURVE('',#561,#560,#704,.T.);
#628=EDGE_CURVE('',#561,#562,#240,.T.);
#629=EDGE_CURVE('',#562,#563,#705,.T.);
#630=EDGE_CURVE('',#563,#564,#241,.T.);
#631=EDGE_CURVE('',#564,#565,#242,.T.);
#632=EDGE_CURVE('',#565,#541,#243,.T.);
#633=EDGE_CURVE('',#566,#566,#706,.T.);
#634=EDGE_CURVE('',#567,#567,#707,.T.);
#635=EDGE_CURVE('',#568,#568,#708,.T.);
#636=EDGE_CURVE('',#538,#569,#244,.T.);
#637=EDGE_CURVE('',#569,#570,#709,.T.);
#638=EDGE_CURVE('',#571,#570,#245,.T.);
#639=EDGE_CURVE('',#572,#571,#246,.T.);
#640=EDGE_CURVE('',#573,#572,#247,.T.);
#641=EDGE_CURVE('',#574,#573,#248,.T.);
#642=EDGE_CURVE('',#575,#574,#710,.T.);
#643=EDGE_CURVE('',#576,#575,#249,.T.);
#644=EDGE_CURVE('',#576,#577,#711,.T.);
#645=EDGE_CURVE('',#577,#578,#250,.T.);
#646=EDGE_CURVE('',#578,#579,#712,.T.);
#647=EDGE_CURVE('',#580,#579,#251,.T.);
#648=EDGE_CURVE('',#581,#580,#252,.T.);
#649=EDGE_CURVE('',#582,#581,#253,.T.);
#650=EDGE_CURVE('',#583,#582,#254,.T.);
#651=EDGE_CURVE('',#584,#583,#713,.T.);
#652=EDGE_CURVE('',#585,#584,#255,.T.);
#653=EDGE_CURVE('',#585,#586,#714,.T.);
#654=EDGE_CURVE('',#586,#587,#256,.T.);
#655=EDGE_CURVE('',#587,#588,#715,.T.);
#656=EDGE_CURVE('',#589,#588,#257,.T.);
#657=EDGE_CURVE('',#590,#589,#258,.T.);
#658=EDGE_CURVE('',#591,#590,#259,.T.);
#659=EDGE_CURVE('',#592,#591,#260,.T.);
#660=EDGE_CURVE('',#593,#592,#716,.T.);
#661=EDGE_CURVE('',#539,#593,#261,.T.);
#662=EDGE_CURVE('',#594,#594,#717,.T.);
#663=EDGE_CURVE('',#595,#595,#718,.T.);
#664=EDGE_CURVE('',#561,#576,#262,.T.);
#665=EDGE_CURVE('',#560,#577,#263,.T.);
#666=EDGE_CURVE('',#552,#585,#264,.T.);
#667=EDGE_CURVE('',#551,#586,#265,.T.);
#668=EDGE_CURVE('',#549,#588,#266,.T.);
#669=EDGE_CURVE('',#548,#589,#267,.T.);
#670=EDGE_CURVE('',#547,#590,#268,.T.);
#671=EDGE_CURVE('',#546,#591,#269,.T.);
#672=EDGE_CURVE('',#545,#592,#270,.T.);
#673=EDGE_CURVE('',#558,#579,#271,.T.);
#674=EDGE_CURVE('',#557,#580,#272,.T.);
#675=EDGE_CURVE('',#556,#581,#273,.T.);
#676=EDGE_CURVE('',#555,#582,#274,.T.);
#677=EDGE_CURVE('',#554,#583,#275,.T.);
#678=EDGE_CURVE('',#542,#570,#276,.T.);
#679=EDGE_CURVE('',#541,#571,#277,.T.);
#680=EDGE_CURVE('',#565,#572,#278,.T.);
#681=EDGE_CURVE('',#564,#573,#279,.T.);
#682=EDGE_CURVE('',#563,#574,#280,.T.);
#683=EDGE_CURVE('',#544,#593,#281,.T.);
#684=EDGE_CURVE('',#550,#587,#282,.T.);
#685=EDGE_CURVE('',#596,#596,#719,.T.);
#686=EDGE_CURVE('',#597,#597,#720,.T.);
#687=EDGE_CURVE('',#553,#584,#283,.T.);
#688=EDGE_CURVE('',#559,#578,#284,.T.);
#689=EDGE_CURVE('',#598,#598,#721,.T.);
#690=EDGE_CURVE('',#599,#599,#722,.T.);
#691=EDGE_CURVE('',#562,#575,#285,.T.);
#692=EDGE_CURVE('',#543,#569,#286,.T.);
#693=EDGE_CURVE('',#600,#600,#723,.T.);
#694=EDGE_CURVE('',#601,#601,#724,.T.);
#695=CIRCLE('',#726,1.1046);
#696=CIRCLE('',#727,1.1046);
#697=CIRCLE('',#729,0.0852999999999938);
#698=CIRCLE('',#730,0.0523);
#699=CIRCLE('',#731,0.0523);
#700=CIRCLE('',#732,0.0523);
#701=CIRCLE('',#733,1.1046);
#702=CIRCLE('',#734,0.0523);
#703=CIRCLE('',#735,0.0523);
#704=CIRCLE('',#736,1.1046);
#705=CIRCLE('',#737,0.0523);
#706=CIRCLE('',#738,0.0852999999999973);
#707=CIRCLE('',#739,0.0852999999999965);
#708=CIRCLE('',#741,0.0853000000000591);
#709=CIRCLE('',#742,0.0523);
#710=CIRCLE('',#743,0.0523);
#711=CIRCLE('',#744,1.1046);
#712=CIRCLE('',#745,0.0523);
#713=CIRCLE('',#746,0.0523);
#714=CIRCLE('',#747,1.1046);
#715=CIRCLE('',#748,0.0523);
#716=CIRCLE('',#749,0.0523);
#717=CIRCLE('',#750,0.0853000000000651);
#718=CIRCLE('',#751,0.0853000000000207);
#719=CIRCLE('',#771,0.0703);
#720=CIRCLE('',#772,0.0703);
#721=CIRCLE('',#780,0.0703);
#722=CIRCLE('',#781,0.0703);
#723=CIRCLE('',#789,0.0703);
#724=CIRCLE('',#790,0.0703);
#725=AXIS2_PLACEMENT_3D('',#995,#794,#795);
#726=AXIS2_PLACEMENT_3D('',#996,#796,#797);
#727=AXIS2_PLACEMENT_3D('',#1001,#799,#800);
#728=AXIS2_PLACEMENT_3D('',#1004,#802,#803);
#729=AXIS2_PLACEMENT_3D('',#1005,#804,#805);
#730=AXIS2_PLACEMENT_3D('',#1010,#807,#808);
#731=AXIS2_PLACEMENT_3D('',#1015,#811,#812);
#732=AXIS2_PLACEMENT_3D('',#1025,#817,#818);
#733=AXIS2_PLACEMENT_3D('',#1029,#820,#821);
#734=AXIS2_PLACEMENT_3D('',#1033,#823,#824);
#735=AXIS2_PLACEMENT_3D('',#1043,#829,#830);
#736=AXIS2_PLACEMENT_3D('',#1047,#832,#833);
#737=AXIS2_PLACEMENT_3D('',#1051,#835,#836);
#738=AXIS2_PLACEMENT_3D('',#1058,#840,#841);
#739=AXIS2_PLACEMENT_3D('',#1060,#842,#843);
#740=AXIS2_PLACEMENT_3D('',#1062,#844,#845);
#741=AXIS2_PLACEMENT_3D('',#1063,#846,#847);
#742=AXIS2_PLACEMENT_3D('',#1067,#849,#850);
#743=AXIS2_PLACEMENT_3D('',#1077,#855,#856);
#744=AXIS2_PLACEMENT_3D('',#1081,#858,#859);
#745=AXIS2_PLACEMENT_3D('',#1085,#861,#862);
#746=AXIS2_PLACEMENT_3D('',#1095,#867,#868);
#747=AXIS2_PLACEMENT_3D('',#1099,#870,#871);
#748=AXIS2_PLACEMENT_3D('',#1103,#873,#874);
#749=AXIS2_PLACEMENT_3D('',#1113,#879,#880);
#750=AXIS2_PLACEMENT_3D('',#1116,#882,#883);
#751=AXIS2_PLACEMENT_3D('',#1118,#884,#885);
#752=AXIS2_PLACEMENT_3D('',#1120,#886,#887);
#753=AXIS2_PLACEMENT_3D('',#1123,#890,#891);
#754=AXIS2_PLACEMENT_3D('',#1126,#894,#895);
#755=AXIS2_PLACEMENT_3D('',#1129,#898,#899);
#756=AXIS2_PLACEMENT_3D('',#1131,#901,#902);
#757=AXIS2_PLACEMENT_3D('',#1133,#904,#905);
#758=AXIS2_PLACEMENT_3D('',#1135,#907,#908);
#759=AXIS2_PLACEMENT_3D('',#1138,#911,#912);
#760=AXIS2_PLACEMENT_3D('',#1140,#914,#915);
#761=AXIS2_PLACEMENT_3D('',#1142,#917,#918);
#762=AXIS2_PLACEMENT_3D('',#1144,#920,#921);
#763=AXIS2_PLACEMENT_3D('',#1147,#924,#925);
#764=AXIS2_PLACEMENT_3D('',#1149,#927,#928);
#765=AXIS2_PLACEMENT_3D('',#1151,#930,#931);
#766=AXIS2_PLACEMENT_3D('',#1153,#933,#934);
#767=AXIS2_PLACEMENT_3D('',#1155,#936,#937);
#768=AXIS2_PLACEMENT_3D('',#1156,#938,#939);
#769=AXIS2_PLACEMENT_3D('',#1158,#941,#942);
#770=AXIS2_PLACEMENT_3D('',#1159,#943,#944);
#771=AXIS2_PLACEMENT_3D('',#1160,#945,#946);
#772=AXIS2_PLACEMENT_3D('',#1162,#947,#948);
#773=AXIS2_PLACEMENT_3D('',#1164,#949,#950);
#774=AXIS2_PLACEMENT_3D('',#1165,#951,#952);
#775=AXIS2_PLACEMENT_3D('',#1166,#953,#954);
#776=AXIS2_PLACEMENT_3D('',#1168,#956,#957);
#777=AXIS2_PLACEMENT_3D('',#1169,#958,#959);
#778=AXIS2_PLACEMENT_3D('',#1171,#961,#962);
#779=AXIS2_PLACEMENT_3D('',#1172,#963,#964);
#780=AXIS2_PLACEMENT_3D('',#1173,#965,#966);
#781=AXIS2_PLACEMENT_3D('',#1175,#967,#968);
#782=AXIS2_PLACEMENT_3D('',#1177,#969,#970);
#783=AXIS2_PLACEMENT_3D('',#1178,#971,#972);
#784=AXIS2_PLACEMENT_3D('',#1179,#973,#974);
#785=AXIS2_PLACEMENT_3D('',#1181,#976,#977);
#786=AXIS2_PLACEMENT_3D('',#1182,#978,#979);
#787=AXIS2_PLACEMENT_3D('',#1184,#981,#982);
#788=AXIS2_PLACEMENT_3D('',#1185,#983,#984);
#789=AXIS2_PLACEMENT_3D('',#1186,#985,#986);
#790=AXIS2_PLACEMENT_3D('',#1188,#987,#988);
#791=AXIS2_PLACEMENT_3D('',#1190,#989,#990);
#792=AXIS2_PLACEMENT_3D('',#1191,#991,#992);
#793=AXIS2_PLACEMENT_3D('',#1192,#993,#994);
#794=DIRECTION('',(0.,0.,1.));
#795=DIRECTION('',(1.,0.,0.));
#796=DIRECTION('',(3.19770374664116E-15,-2.46133168658879E-14,1.));
#797=DIRECTION('',(-0.976269848252868,-0.216557575236523,0.));
#798=DIRECTION('',(3.19770374664116E-15,-2.46133168658879E-14,1.));
#799=DIRECTION('',(3.19770374664116E-15,-2.46133168658879E-14,1.));
#800=DIRECTION('',(-0.976269848252868,-0.216557575236523,0.));
#801=DIRECTION('',(3.19770374664116E-15,-2.46133168658879E-14,1.));
#802=DIRECTION('',(3.19770374664116E-15,-2.46133168658879E-14,1.));
#803=DIRECTION('',(0.,-1.,-2.37422965228833E-14));
#804=DIRECTION('',(3.19770374664116E-15,-2.46133168658879E-14,1.));
#805=DIRECTION('',(0.,-1.,0.));
#806=DIRECTION('',(-0.863636209332563,-0.504115560094788,-3.49123513359376E-14));
#807=DIRECTION('',(-3.19770374664116E-15,2.46133168658879E-14,-1.));
#808=DIRECTION('',(0.,-1.,0.));
#809=DIRECTION('',(-0.863636209332563,-0.504115560094789,-9.64630327531989E-15));
#810=DIRECTION('',(-0.0047587768188232,0.999988676957489,2.46282553267177E-14));
#811=DIRECTION('',(3.19770374664116E-15,-2.46133168658879E-14,1.));
#812=DIRECTION('',(0.,-1.,0.));
#813=DIRECTION('',(0.00475877681882211,-0.999988676957489,0.));
#814=DIRECTION('',(-0.999988676957489,-0.00475877681882334,0.));
#815=DIRECTION('',(-0.999988676957489,-0.00475877681882142,0.));
#816=DIRECTION('',(-0.00475877681882173,0.999988676957489,-3.49123513359376E-14));
#817=DIRECTION('',(-3.19770374664116E-15,2.46133168658879E-14,-1.));
#818=DIRECTION('',(0.,-1.,0.));
#819=DIRECTION('',(-0.00475877681882357,0.999988676957489,2.46282553267177E-14));
#820=DIRECTION('',(3.19770374664116E-15,-2.46133168658879E-14,1.));
#821=DIRECTION('',(-0.976269848252868,-0.216557575236523,0.));
#822=DIRECTION('',(0.868394986151388,-0.495873116862702,-1.49819520513978E-14));
#823=DIRECTION('',(3.19770374664116E-15,-2.46133168658879E-14,1.));
#824=DIRECTION('',(0.,-1.,0.));
#825=DIRECTION('',(-0.868394986151387,0.495873116862703,0.));
#826=DIRECTION('',(0.495873116862702,0.868394986151388,0.));
#827=DIRECTION('',(0.495873116862703,0.868394986151388,0.));
#828=DIRECTION('',(0.868394986151387,-0.495873116862703,-3.49123513359376E-14));
#829=DIRECTION('',(-3.19770374664116E-15,2.46133168658879E-14,-1.));
#830=DIRECTION('',(0.,-1.,0.));
#831=DIRECTION('',(0.868394986151388,-0.495873116862701,-1.49819520513978E-14));
#832=DIRECTION('',(3.19770374664116E-15,-2.46133168658879E-14,1.));
#833=DIRECTION('',(-0.976269848252868,-0.216557575236523,0.));
#834=DIRECTION('',(-0.863636209332563,-0.504115560094789,-9.64630327531989E-15));
#835=DIRECTION('',(3.19770374664116E-15,-2.46133168658879E-14,1.));
#836=DIRECTION('',(0.,-1.,0.));
#837=DIRECTION('',(0.863636209332563,0.504115560094788,0.));
#838=DIRECTION('',(0.504115560094787,-0.863636209332564,0.));
#839=DIRECTION('',(0.504115560094788,-0.863636209332563,0.));
#840=DIRECTION('',(3.19770374664116E-15,-2.46133168658879E-14,1.));
#841=DIRECTION('',(0.,-1.,0.));
#842=DIRECTION('',(3.19770374664116E-15,-2.46133168658879E-14,1.));
#843=DIRECTION('',(0.,-1.,0.));
#844=DIRECTION('',(3.19770374664116E-15,-2.46133168658879E-14,1.));
#845=DIRECTION('',(0.,-1.,-2.46469511466785E-14));
#846=DIRECTION('',(3.19770374664116E-15,-2.46133168658879E-14,1.));
#847=DIRECTION('',(0.,-1.,0.));
#848=DIRECTION('',(-0.863636209332563,-0.504115560094789,-9.64630327531989E-15));
#849=DIRECTION('',(-3.19770374664116E-15,2.46133168658879E-14,-1.));
#850=DIRECTION('',(0.,-1.,0.));
#851=DIRECTION('',(-0.863636209332563,-0.504115560094788,-3.49123513359376E-14));
#852=DIRECTION('',(0.504115560094788,-0.863636209332563,0.));
#853=DIRECTION('',(0.504115560094787,-0.863636209332564,0.));
#854=DIRECTION('',(0.863636209332563,0.504115560094788,0.));
#855=DIRECTION('',(3.19770374664116E-15,-2.46133168658879E-14,1.));
#856=DIRECTION('',(0.,-1.,0.));
#857=DIRECTION('',(-0.863636209332563,-0.504115560094789,-9.64630327531989E-15));
#858=DIRECTION('',(3.19770374664116E-15,-2.46133168658879E-14,1.));
#859=DIRECTION('',(-0.976269848252868,-0.216557575236523,0.));
#860=DIRECTION('',(0.868394986151388,-0.495873116862701,-1.49819520513978E-14));
#861=DIRECTION('',(-3.19770374664116E-15,2.46133168658879E-14,-1.));
#862=DIRECTION('',(0.,-1.,0.));
#863=DIRECTION('',(0.868394986151387,-0.495873116862703,-3.49123513359376E-14));
#864=DIRECTION('',(0.495873116862703,0.868394986151388,0.));
#865=DIRECTION('',(0.495873116862702,0.868394986151388,0.));
#866=DIRECTION('',(-0.868394986151387,0.495873116862703,0.));
#867=DIRECTION('',(3.19770374664116E-15,-2.46133168658879E-14,1.));
#868=DIRECTION('',(0.,-1.,0.));
#869=DIRECTION('',(0.868394986151388,-0.495873116862702,-1.49819520513978E-14));
#870=DIRECTION('',(3.19770374664116E-15,-2.46133168658879E-14,1.));
#871=DIRECTION('',(-0.976269848252868,-0.216557575236523,0.));
#872=DIRECTION('',(-0.00475877681882357,0.999988676957489,2.46282553267177E-14));
#873=DIRECTION('',(-3.19770374664116E-15,2.46133168658879E-14,-1.));
#874=DIRECTION('',(0.,-1.,0.));
#875=DIRECTION('',(-0.00475877681882173,0.999988676957489,-3.49123513359376E-14));
#876=DIRECTION('',(-0.999988676957489,-0.00475877681882142,0.));
#877=DIRECTION('',(-0.999988676957489,-0.00475877681882334,0.));
#878=DIRECTION('',(0.00475877681882211,-0.999988676957489,0.));
#879=DIRECTION('',(3.19770374664116E-15,-2.46133168658879E-14,1.));
#880=DIRECTION('',(0.,-1.,0.));
#881=DIRECTION('',(-0.0047587768188232,0.999988676957489,2.46282553267177E-14));
#882=DIRECTION('',(3.19770374664116E-15,-2.46133168658879E-14,1.));
#883=DIRECTION('',(0.,-1.,0.));
#884=DIRECTION('',(3.19770374664116E-15,-2.46133168658879E-14,1.));
#885=DIRECTION('',(0.,-1.,0.));
#886=DIRECTION('',(3.19770374664116E-15,-2.46133168658879E-14,1.));
#887=DIRECTION('',(0.,-1.,-2.46469511466785E-14));
#888=DIRECTION('',(3.19770374664116E-15,-2.46133168658879E-14,1.));
#889=DIRECTION('',(3.19770374664116E-15,-2.46133168658879E-14,1.));
#890=DIRECTION('',(3.19770374664116E-15,-2.46133168658879E-14,1.));
#891=DIRECTION('',(0.,-1.,-2.37422965228833E-14));
#892=DIRECTION('',(3.19770374664116E-15,-2.46133168658879E-14,1.));
#893=DIRECTION('',(3.19770374664116E-15,-2.46133168658879E-14,1.));
#894=DIRECTION('',(3.19770374664116E-15,-2.46133168658879E-14,1.));
#895=DIRECTION('',(0.,-1.,-2.37422965228833E-14));
#896=DIRECTION('',(3.19770374664116E-15,-2.46133168658879E-14,1.));
#897=DIRECTION('',(3.19770374664116E-15,-2.46133168658879E-14,1.));
#898=DIRECTION('',(0.999988676957489,0.00475877681882173,-3.08053825717E-15));
#899=DIRECTION('',(-0.00475877681882173,0.999988676957489,0.));
#900=DIRECTION('',(3.19770374664116E-15,-2.46133168658879E-14,1.));
#901=DIRECTION('',(-0.00475877681882142,0.999988676957489,2.46282553267177E-14));
#902=DIRECTION('',(-0.999988676957489,-0.00475877681882142,0.));
#903=DIRECTION('',(3.19770374664116E-15,-2.46133168658879E-14,1.));
#904=DIRECTION('',(-0.00475877681882334,0.999988676957489,2.46282553267177E-14));
#905=DIRECTION('',(-0.999988676957489,-0.00475877681882334,0.));
#906=DIRECTION('',(3.19770374664116E-15,-2.46133168658879E-14,1.));
#907=DIRECTION('',(-0.999988676957489,-0.00475877681882211,3.08053825716999E-15));
#908=DIRECTION('',(0.00475877681882211,-0.999988676957489,0.));
#909=DIRECTION('',(3.19770374664116E-15,-2.46133168658879E-14,1.));
#910=DIRECTION('',(3.19770374664116E-15,-2.46133168658879E-14,1.));
#911=DIRECTION('',(-0.495873116862703,-0.868394986151387,-1.97884256352419E-14));
#912=DIRECTION('',(0.868394986151387,-0.495873116862703,0.));
#913=DIRECTION('',(3.19770374664116E-15,-2.46133168658879E-14,1.));
#914=DIRECTION('',(0.868394986151388,-0.495873116862702,-1.49819520513979E-14));
#915=DIRECTION('',(0.495873116862702,0.868394986151388,0.));
#916=DIRECTION('',(3.19770374664116E-15,-2.46133168658879E-14,1.));
#917=DIRECTION('',(0.868394986151388,-0.495873116862702,-1.49819520513978E-14));
#918=DIRECTION('',(0.495873116862702,0.868394986151388,0.));
#919=DIRECTION('',(3.19770374664116E-15,-2.46133168658879E-14,1.));
#920=DIRECTION('',(0.495873116862703,0.868394986151387,1.97884256352419E-14));
#921=DIRECTION('',(-0.868394986151387,0.495873116862703,0.));
#922=DIRECTION('',(3.19770374664116E-15,-2.46133168658879E-14,1.));
#923=DIRECTION('',(3.19770374664116E-15,-2.46133168658879E-14,1.));
#924=DIRECTION('',(-0.504115560094788,0.863636209332563,2.28689638924119E-14));
#925=DIRECTION('',(-0.863636209332563,-0.504115560094788,0.));
#926=DIRECTION('',(3.19770374664116E-15,-2.46133168658879E-14,1.));
#927=DIRECTION('',(-0.863636209332563,-0.504115560094788,-9.64630327531988E-15));
#928=DIRECTION('',(0.504115560094788,-0.863636209332563,0.));
#929=DIRECTION('',(3.19770374664116E-15,-2.46133168658879E-14,1.));
#930=DIRECTION('',(-0.863636209332563,-0.504115560094787,-9.64630327531984E-15));
#931=DIRECTION('',(0.504115560094787,-0.863636209332564,0.));
#932=DIRECTION('',(3.19770374664116E-15,-2.46133168658879E-14,1.));
#933=DIRECTION('',(0.504115560094788,-0.863636209332563,-2.28689638924119E-14));
#934=DIRECTION('',(0.863636209332563,0.504115560094788,0.));
#935=DIRECTION('',(3.19770374664116E-15,-2.46133168658879E-14,1.));
#936=DIRECTION('',(-0.999988676957489,-0.0047587768188232,3.08053825716996E-15));
#937=DIRECTION('',(0.0047587768188232,-0.999988676957489,-2.46469511466785E-14));
#938=DIRECTION('',(3.19770374664116E-15,-2.46133168658879E-14,1.));
#939=DIRECTION('',(0.,-1.,0.));
#940=DIRECTION('',(3.19770374664116E-15,-2.46133168658879E-14,1.));
#941=DIRECTION('',(3.19770374664116E-15,-2.46133168658879E-14,1.));
#942=DIRECTION('',(0.,-1.,0.));
#943=DIRECTION('',(-0.999988676957489,-0.00475877681882357,3.08053825716995E-15));
#944=DIRECTION('',(0.00475877681882357,-0.999988676957489,-2.46469511466785E-14));
#945=DIRECTION('',(-3.21388501129718E-15,2.47817639425325E-14,-1.));
#946=DIRECTION('',(0.,1.,0.));
#947=DIRECTION('',(3.18419605533099E-15,-2.54735684426479E-14,1.));
#948=DIRECTION('',(0.,-0.999999999999999,0.));
#949=DIRECTION('',(-3.19770374664116E-15,2.46133168658879E-14,-1.));
#950=DIRECTION('',(0.,1.,0.));
#951=DIRECTION('',(3.18419605533099E-15,-2.54735684426479E-14,1.));
#952=DIRECTION('',(1.,0.,-3.33066907387547E-15));
#953=DIRECTION('',(-3.21388501129718E-15,2.47817639425325E-14,-1.));
#954=DIRECTION('',(-1.,0.,3.33066907387547E-15));
#955=DIRECTION('',(3.19770374664116E-15,-2.46133168658879E-14,1.));
#956=DIRECTION('',(0.495873116862702,0.868394986151388,1.9788425635242E-14));
#957=DIRECTION('',(-0.868394986151388,0.495873116862702,1.48769885299771E-14));
#958=DIRECTION('',(3.19770374664116E-15,-2.46133168658879E-14,1.));
#959=DIRECTION('',(0.,-1.,0.));
#960=DIRECTION('',(3.19770374664116E-15,-2.46133168658879E-14,1.));
#961=DIRECTION('',(3.19770374664116E-15,-2.46133168658879E-14,1.));
#962=DIRECTION('',(0.,-1.,0.));
#963=DIRECTION('',(0.495873116862701,0.868394986151388,1.9788425635242E-14));
#964=DIRECTION('',(-0.868394986151388,0.495873116862701,1.48769885299771E-14));
#965=DIRECTION('',(-4.95635278850807E-15,2.47817639425403E-14,-1.));
#966=DIRECTION('',(0.,1.,0.));
#967=DIRECTION('',(2.12279737022124E-15,-2.54735684426549E-14,1.));
#968=DIRECTION('',(0.,-1.,0.));
#969=DIRECTION('',(-3.19770374664116E-15,2.46133168658879E-14,-1.));
#970=DIRECTION('',(0.,1.,0.));
#971=DIRECTION('',(2.12279737022124E-15,-2.54735684426549E-14,1.));
#972=DIRECTION('',(1.,0.,-2.44249065417535E-15));
#973=DIRECTION('',(-4.95635278850807E-15,2.47817639425403E-14,-1.));
#974=DIRECTION('',(-1.,0.,4.8849813083507E-15));
#975=DIRECTION('',(3.19770374664116E-15,-2.46133168658879E-14,1.));
#976=DIRECTION('',(0.504115560094789,-0.863636209332563,-2.28689638924119E-14));
#977=DIRECTION('',(0.863636209332563,0.504115560094789,9.54791801177635E-15));
#978=DIRECTION('',(3.19770374664116E-15,-2.46133168658879E-14,1.));
#979=DIRECTION('',(0.,-1.,0.));
#980=DIRECTION('',(3.19770374664116E-15,-2.46133168658879E-14,1.));
#981=DIRECTION('',(3.19770374664116E-15,-2.46133168658879E-14,1.));
#982=DIRECTION('',(0.,-1.,0.));
#983=DIRECTION('',(0.504115560094789,-0.863636209332563,-2.28689638924119E-14));
#984=DIRECTION('',(0.863636209332563,0.504115560094789,9.54791801177635E-15));
#985=DIRECTION('',(-2.47817639425403E-15,2.23035875482863E-14,-1.));
#986=DIRECTION('',(0.,1.,0.));
#987=DIRECTION('',(4.24559474044248E-15,-2.54735684426549E-14,1.));
#988=DIRECTION('',(0.,-1.,0.));
#989=DIRECTION('',(-3.19770374664116E-15,2.46133168658879E-14,-1.));
#990=DIRECTION('',(0.,1.,0.));
#991=DIRECTION('',(4.24559474044248E-15,-2.54735684426549E-14,1.));
#992=DIRECTION('',(1.,0.,-4.66293670342566E-15));
#993=DIRECTION('',(-2.47817639425403E-15,2.23035875482863E-14,-1.));
#994=DIRECTION('',(-1.,0.,2.44249065417535E-15));
#995=CARTESIAN_POINT('',(0.,0.,0.));
#996=CARTESIAN_POINT('',(-0.00892941341307976,-0.000749278307382895,53.9432395625984));
#997=CARTESIAN_POINT('',(0.311584324866903,-1.05782642950014,53.9432395625983));
#998=CARTESIAN_POINT('',(1.06484393311523,0.258387674451968,53.9432395625984));
#999=CARTESIAN_POINT('',(1.06484393311523,0.258387674451965,54.0478395625983));
#1000=CARTESIAN_POINT('',(1.06484393311523,0.258387674451965,54.0478395625983));
#1001=CARTESIAN_POINT('',(-0.00892941341307942,-0.000749278307385469,54.0478395625983));
#1002=CARTESIAN_POINT('',(0.311584324866903,-1.05782642950014,54.0478395625983));
#1003=CARTESIAN_POINT('',(0.311584324866903,-1.05782642950014,54.0478395625983));
#1004=CARTESIAN_POINT('',(-0.00892941341307976,-0.000749278307382895,53.9432395625984));
#1005=CARTESIAN_POINT('',(0.96100426856401,0.564516260563619,53.9432395625984));
#1006=CARTESIAN_POINT('',(0.96100426856401,0.479216260563626,53.9432395625984));
#1007=CARTESIAN_POINT('',(1.25073533416444,0.488010686564887,53.9432395625983));
#1008=CARTESIAN_POINT('',(1.25073533416444,0.488010686564887,53.9432395625983));
#1009=CARTESIAN_POINT('',(0.553867276853993,0.0812398411244031,53.9432395625984));
#1010=CARTESIAN_POINT('',(0.580232520646953,0.0360716673763117,53.9432395625984));
#1011=CARTESIAN_POINT('',(0.60659776443991,-0.00909650637178148,53.9432395625984));
#1012=CARTESIAN_POINT('',(0.151130198982982,-0.274958780769442,53.9432395625983));
#1013=CARTESIAN_POINT('',(0.306546729243192,0.000752019246437556,53.9432395625984));
#1014=CARTESIAN_POINT('',(0.309056430051009,-0.526625600237943,53.9432395625983));
#1015=CARTESIAN_POINT('',(0.256757022246133,-0.526874484265568,53.9432395625983));
#1016=CARTESIAN_POINT('',(0.204457614441256,-0.527123368293193,53.9432395625983));
#1017=CARTESIAN_POINT('',(0.207107777251659,-1.08401706249082,53.9432395625983));
#1018=CARTESIAN_POINT('',(0.208297471456364,-1.33401423173019,53.9432395625983));
#1019=CARTESIAN_POINT('',(0.208297471456364,-1.33401423173019,53.9432395625983));
#1020=CARTESIAN_POINT('',(-0.00335472090402339,-1.33502144868161,53.9432395625983));
#1021=CARTESIAN_POINT('',(-0.00335472090402342,-1.33502144868161,53.9432395625983));
#1022=CARTESIAN_POINT('',(-0.215483241269668,-1.33603093239736,53.9432395625983));
#1023=CARTESIAN_POINT('',(-0.215483241269668,-1.33603093239736,53.9432395625983));
#1024=CARTESIAN_POINT('',(-0.219323098284776,-0.529140068960362,53.9432395625983));
#1025=CARTESIAN_POINT('',(-0.271622506089653,-0.529388952987989,53.9432395625983));
#1026=CARTESIAN_POINT('',(-0.32392191389453,-0.529637837015614,53.9432395625983));
#1027=CARTESIAN_POINT('',(-0.326431614702347,-0.00226021753123278,53.9432395625984));
#1028=CARTESIAN_POINT('',(-0.321396902528352,-1.0602327506872,53.9432395625983));
#1029=CARTESIAN_POINT('',(-0.00892941341307976,-0.000749278307382895,53.9432395625984));
#1030=CARTESIAN_POINT('',(-1.08464194924608,0.250216257676611,53.9432395625984));
#1031=CARTESIAN_POINT('',(-0.165367322920968,-0.274710280912549,53.9432395625983));
#1032=CARTESIAN_POINT('',(-0.623344589185715,-0.0131949358258266,53.9432395625984));
#1033=CARTESIAN_POINT('',(-0.597410425173797,0.0322221219498915,53.9432395625984));
#1034=CARTESIAN_POINT('',(-0.571476261161877,0.077639179725609,53.9432395625984));
#1035=CARTESIAN_POINT('',(-1.05508542894958,0.353790918506447,53.9432395625983));
#1036=CARTESIAN_POINT('',(-1.27218417548743,0.477759197722123,53.9432395625983));
#1037=CARTESIAN_POINT('',(-1.27218417548743,0.477759197722123,53.9432395625983));
#1038=CARTESIAN_POINT('',(-1.16723035477429,0.661558981548598,53.9432395625983));
#1039=CARTESIAN_POINT('',(-1.16723035477429,0.661558981548598,53.9432395625983));
#1040=CARTESIAN_POINT('',(-1.06204033313401,0.845772410910328,53.9432395625983));
#1041=CARTESIAN_POINT('',(-1.06204033313401,0.845772410910328,53.9432395625983));
#1042=CARTESIAN_POINT('',(-0.361332418808459,0.445652392913814,53.9432395625984));
#1043=CARTESIAN_POINT('',(-0.335398254796543,0.491069450689533,53.9432395625984));
#1044=CARTESIAN_POINT('',(-0.309464090784623,0.53648650846525,53.9432395625984));
#1045=CARTESIAN_POINT('',(0.148513175480125,0.274971163378528,53.9432395625984));
#1046=CARTESIAN_POINT('',(-0.770235270826117,0.799597241313088,53.9432395625984));
#1047=CARTESIAN_POINT('',(-0.00892941341307976,-0.000749278307382895,53.9432395625984));
#1048=CARTESIAN_POINT('',(0.746269384139936,0.80536233690138,53.9432395625984));
#1049=CARTESIAN_POINT('',(-0.167967646561465,0.271710426743963,53.9432395625984));
#1050=CARTESIAN_POINT('',(0.287499918895462,0.537572701141623,53.9432395625984));
#1051=CARTESIAN_POINT('',(0.31386516268842,0.49240452739353,53.9432395625984));
#1052=CARTESIAN_POINT('',(0.340230406481378,0.447236353645437,53.9432395625984));
#1053=CARTESIAN_POINT('',(0.821189411458682,0.727978309062223,53.9432395625983));
#1054=CARTESIAN_POINT('',(1.03709846379182,0.85400719908592,53.9432395625983));
#1055=CARTESIAN_POINT('',(1.03709846379182,0.85400719908592,53.9432395625983));
#1056=CARTESIAN_POINT('',(1.14379683543907,0.671214632210863,53.9432395625983));
#1057=CARTESIAN_POINT('',(1.14379683543907,0.671214632210863,53.9432395625983));
#1058=CARTESIAN_POINT('',(-0.00436193785544117,-1.12336925632122,53.9432395625983));
#1059=CARTESIAN_POINT('',(-0.00436193785544117,-1.20866925632121,53.9432395625983));
#1060=CARTESIAN_POINT('',(-0.983430570947812,0.556605160835455,53.9432395625984));
#1061=CARTESIAN_POINT('',(-0.983430570947812,0.471305160835459,53.9432395625984));
#1062=CARTESIAN_POINT('',(-0.00892941341307976,-0.000749278307382895,53.9432395625984));
#1063=CARTESIAN_POINT('',(0.96100426856401,0.564516260563617,54.0478395625984));
#1064=CARTESIAN_POINT('',(0.96100426856401,0.479216260563558,54.0478395625984));
#1065=CARTESIAN_POINT('',(0.151130198982982,-0.274958780769444,54.0478395625983));
#1066=CARTESIAN_POINT('',(0.606597764439911,-0.00909650637178406,54.0478395625983));
#1067=CARTESIAN_POINT('',(0.580232520646954,0.0360716673763091,54.0478395625983));
#1068=CARTESIAN_POINT('',(0.553867276853994,0.081239841124401,54.0478395625983));
#1069=CARTESIAN_POINT('',(1.25073533416444,0.488010686564884,54.0478395625983));
#1070=CARTESIAN_POINT('',(1.25073533416444,0.488010686564884,54.0478395625983));
#1071=CARTESIAN_POINT('',(1.14379683543907,0.67121463221086,54.0478395625983));
#1072=CARTESIAN_POINT('',(1.14379683543907,0.67121463221086,54.0478395625983));
#1073=CARTESIAN_POINT('',(1.03709846379182,0.854007199085917,54.0478395625983));
#1074=CARTESIAN_POINT('',(1.03709846379182,0.854007199085917,54.0478395625983));
#1075=CARTESIAN_POINT('',(0.821189411458682,0.72797830906222,54.0478395625983));
#1076=CARTESIAN_POINT('',(0.340230406481378,0.447236353645435,54.0478395625984));
#1077=CARTESIAN_POINT('',(0.313865162688421,0.492404527393528,54.0478395625984));
#1078=CARTESIAN_POINT('',(0.287499918895463,0.537572701141621,54.0478395625984));
#1079=CARTESIAN_POINT('',(-0.167967646561465,0.27171042674396,54.0478395625984));
#1080=CARTESIAN_POINT('',(0.746269384139936,0.805362336901378,54.0478395625984));
#1081=CARTESIAN_POINT('',(-0.00892941341307942,-0.000749278307385469,54.0478395625983));
#1082=CARTESIAN_POINT('',(-0.770235270826117,0.799597241313086,54.0478395625984));
#1083=CARTESIAN_POINT('',(0.148513175480125,0.274971163378525,54.0478395625984));
#1084=CARTESIAN_POINT('',(-0.309464090784623,0.536486508465248,54.0478395625984));
#1085=CARTESIAN_POINT('',(-0.335398254796542,0.49106945068953,54.0478395625984));
#1086=CARTESIAN_POINT('',(-0.36133241880846,0.445652392913812,54.0478395625984));
#1087=CARTESIAN_POINT('',(-1.06204033313401,0.845772410910326,54.0478395625983));
#1088=CARTESIAN_POINT('',(-1.06204033313401,0.845772410910326,54.0478395625983));
#1089=CARTESIAN_POINT('',(-1.16723035477429,0.661558981548595,54.0478395625983));
#1090=CARTESIAN_POINT('',(-1.16723035477429,0.661558981548595,54.0478395625983));
#1091=CARTESIAN_POINT('',(-1.27218417548743,0.47775919772212,54.0478395625983));
#1092=CARTESIAN_POINT('',(-1.27218417548743,0.47775919772212,54.0478395625983));
#1093=CARTESIAN_POINT('',(-1.05508542894958,0.353790918506444,54.0478395625983));
#1094=CARTESIAN_POINT('',(-0.571476261161877,0.0776391797256064,54.0478395625983));
#1095=CARTESIAN_POINT('',(-0.597410425173796,0.0322221219498889,54.0478395625983));
#1096=CARTESIAN_POINT('',(-0.623344589185716,-0.0131949358258287,54.0478395625983));
#1097=CARTESIAN_POINT('',(-0.165367322920967,-0.274710280912551,54.0478395625983));
#1098=CARTESIAN_POINT('',(-1.08464194924608,0.250216257676608,54.0478395625984));
#1099=CARTESIAN_POINT('',(-0.00892941341307942,-0.000749278307385469,54.0478395625983));
#1100=CARTESIAN_POINT('',(-0.321396902528352,-1.0602327506872,54.0478395625983));
#1101=CARTESIAN_POINT('',(-0.326431614702346,-0.00226021753123535,54.0478395625983));
#1102=CARTESIAN_POINT('',(-0.323921913894529,-0.529637837015616,54.0478395625983));
#1103=CARTESIAN_POINT('',(-0.271622506089653,-0.529388952987992,54.0478395625983));
#1104=CARTESIAN_POINT('',(-0.219323098284776,-0.529140068960363,54.0478395625983));
#1105=CARTESIAN_POINT('',(-0.215483241269668,-1.33603093239736,54.0478395625983));
#1106=CARTESIAN_POINT('',(-0.215483241269668,-1.33603093239736,54.0478395625983));
#1107=CARTESIAN_POINT('',(-0.00335472090402308,-1.33502144868161,54.0478395625983));
#1108=CARTESIAN_POINT('',(-0.00335472090402306,-1.33502144868161,54.0478395625983));
#1109=CARTESIAN_POINT('',(0.208297471456364,-1.33401423173019,54.0478395625983));
#1110=CARTESIAN_POINT('',(0.208297471456364,-1.33401423173019,54.0478395625983));
#1111=CARTESIAN_POINT('',(0.207107777251659,-1.08401706249082,54.0478395625983));
#1112=CARTESIAN_POINT('',(0.204457614441256,-0.527123368293195,54.0478395625983));
#1113=CARTESIAN_POINT('',(0.256757022246133,-0.526874484265571,54.0478395625983));
#1114=CARTESIAN_POINT('',(0.30905643005101,-0.526625600237945,54.0478395625983));
#1115=CARTESIAN_POINT('',(0.306546729243192,0.000752019246434982,54.0478395625983));
#1116=CARTESIAN_POINT('',(-0.983430570947812,0.556605160835453,54.0478395625984));
#1117=CARTESIAN_POINT('',(-0.983430570947812,0.471305160835388,54.0478395625984));
#1118=CARTESIAN_POINT('',(-0.00436193785544084,-1.12336925632122,54.0478395625983));
#1119=CARTESIAN_POINT('',(-0.00436193785544084,-1.20866925632124,54.0478395625983));
#1120=CARTESIAN_POINT('',(-0.00892941341307942,-0.000749278307385469,54.0478395625983));
#1121=CARTESIAN_POINT('',(0.746269384139936,0.805362336901378,54.0478395625984));
#1122=CARTESIAN_POINT('',(-0.770235270826117,0.799597241313086,54.0478395625984));
#1123=CARTESIAN_POINT('',(-0.00892941341307976,-0.000749278307382895,53.9432395625984));
#1124=CARTESIAN_POINT('',(-1.08464194924608,0.250216257676608,54.0478395625984));
#1125=CARTESIAN_POINT('',(-0.321396902528352,-1.0602327506872,54.0478395625983));
#1126=CARTESIAN_POINT('',(-0.00892941341307976,-0.000749278307382895,53.9432395625984));
#1127=CARTESIAN_POINT('',(-0.219323098284776,-0.529140068960365,54.0478395625983));
#1128=CARTESIAN_POINT('',(-0.215483241269668,-1.33603093239736,53.9432395625983));
#1129=CARTESIAN_POINT('',(-0.215483241269668,-1.33603093239736,53.9432395625983));
#1130=CARTESIAN_POINT('',(-0.00335472090402339,-1.33502144868161,53.9432395625983));
#1131=CARTESIAN_POINT('',(-0.00335472090402342,-1.33502144868161,53.9432395625983));
#1132=CARTESIAN_POINT('',(0.208297471456364,-1.33401423173019,53.9432395625983));
#1133=CARTESIAN_POINT('',(0.208297471456364,-1.33401423173019,53.9432395625983));
#1134=CARTESIAN_POINT('',(0.204457614441256,-0.527123368293195,54.0478395625983));
#1135=CARTESIAN_POINT('',(0.207107777251659,-1.08401706249082,53.9432395625983));
#1136=CARTESIAN_POINT('',(-0.361332418808459,0.445652392913811,54.0478395625984));
#1137=CARTESIAN_POINT('',(-1.06204033313401,0.845772410910328,53.9432395625983));
#1138=CARTESIAN_POINT('',(-1.06204033313401,0.845772410910328,53.9432395625983));
#1139=CARTESIAN_POINT('',(-1.16723035477429,0.661558981548598,53.9432395625983));
#1140=CARTESIAN_POINT('',(-1.16723035477429,0.661558981548598,53.9432395625983));
#1141=CARTESIAN_POINT('',(-1.27218417548743,0.477759197722123,53.9432395625983));
#1142=CARTESIAN_POINT('',(-1.27218417548743,0.477759197722123,53.9432395625983));
#1143=CARTESIAN_POINT('',(-0.571476261161877,0.0776391797256064,54.0478395625983));
#1144=CARTESIAN_POINT('',(-1.05508542894958,0.353790918506447,53.9432395625983));
#1145=CARTESIAN_POINT('',(0.553867276853994,0.0812398411244006,54.0478395625983));
#1146=CARTESIAN_POINT('',(1.25073533416444,0.488010686564887,53.9432395625983));
#1147=CARTESIAN_POINT('',(1.25073533416444,0.488010686564887,53.9432395625983));
#1148=CARTESIAN_POINT('',(1.14379683543907,0.671214632210863,53.9432395625983));
#1149=CARTESIAN_POINT('',(1.14379683543907,0.671214632210863,53.9432395625983));
#1150=CARTESIAN_POINT('',(1.03709846379182,0.85400719908592,53.9432395625983));
#1151=CARTESIAN_POINT('',(1.03709846379182,0.85400719908592,53.9432395625983));
#1152=CARTESIAN_POINT('',(0.340230406481378,0.447236353645435,54.0478395625984));
#1153=CARTESIAN_POINT('',(0.821189411458682,0.727978309062223,53.9432395625983));
#1154=CARTESIAN_POINT('',(0.30905643005101,-0.526625600237946,54.0478395625983));
#1155=CARTESIAN_POINT('',(0.306546729243192,0.000752019246434982,54.0478395625983));
#1156=CARTESIAN_POINT('',(0.256757022246133,-0.526874484265571,54.0478395625983));
#1157=CARTESIAN_POINT('',(-0.323921913894529,-0.529637837015616,54.0478395625983));
#1158=CARTESIAN_POINT('',(-0.271622506089653,-0.529388952987992,54.0478395625983));
#1159=CARTESIAN_POINT('',(-0.326431614702346,-0.00226021753123535,54.0478395625983));
#1160=CARTESIAN_POINT('',(-0.00436193785544113,-1.12336925632122,53.9582395625983));
#1161=CARTESIAN_POINT('',(-0.00436193785544113,-1.05306925632122,53.9582395625983));
#1162=CARTESIAN_POINT('',(-0.00436193785544089,-1.12336925632122,54.0328395625983));
#1163=CARTESIAN_POINT('',(-0.00436193785544089,-1.19366925632122,54.0328395625983));
#1164=CARTESIAN_POINT('',(-0.00436193785544084,-1.12336925632122,54.0478395625983));
#1165=CARTESIAN_POINT('',(-0.00436193785544111,-1.12336925632122,53.9625395625983));
#1166=CARTESIAN_POINT('',(-0.0043619378554409,-1.12336925632122,54.0285395625983));
#1167=CARTESIAN_POINT('',(-0.623344589185715,-0.0131949358258291,54.0478395625983));
#1168=CARTESIAN_POINT('',(-0.165367322920967,-0.274710280912551,54.0478395625983));
#1169=CARTESIAN_POINT('',(-0.597410425173796,0.0322221219498889,54.0478395625983));
#1170=CARTESIAN_POINT('',(-0.309464090784623,0.536486508465248,54.0478395625984));
#1171=CARTESIAN_POINT('',(-0.335398254796542,0.49106945068953,54.0478395625984));
#1172=CARTESIAN_POINT('',(0.148513175480125,0.274971163378525,54.0478395625984));
#1173=CARTESIAN_POINT('',(-0.983430570947812,0.556605160835455,53.9582395625984));
#1174=CARTESIAN_POINT('',(-0.983430570947812,0.626905160835455,53.9582395625984));
#1175=CARTESIAN_POINT('',(-0.983430570947812,0.556605160835453,54.0328395625983));
#1176=CARTESIAN_POINT('',(-0.983430570947812,0.486305160835453,54.0328395625983));
#1177=CARTESIAN_POINT('',(-0.983430570947812,0.556605160835453,54.0478395625983));
#1178=CARTESIAN_POINT('',(-0.983430570947812,0.556605160835455,53.9625395625983));
#1179=CARTESIAN_POINT('',(-0.983430570947812,0.556605160835453,54.0285395625984));
#1180=CARTESIAN_POINT('',(0.287499918895463,0.53757270114162,54.0478395625984));
#1181=CARTESIAN_POINT('',(-0.167967646561465,0.27171042674396,54.0478395625984));
#1182=CARTESIAN_POINT('',(0.313865162688421,0.492404527393528,54.0478395625984));
#1183=CARTESIAN_POINT('',(0.606597764439911,-0.00909650637178406,54.0478395625983));
#1184=CARTESIAN_POINT('',(0.580232520646954,0.0360716673763091,54.0478395625983));
#1185=CARTESIAN_POINT('',(0.151130198982982,-0.274958780769444,54.0478395625983));
#1186=CARTESIAN_POINT('',(0.96100426856401,0.564516260563619,53.9582395625984));
#1187=CARTESIAN_POINT('',(0.96100426856401,0.634816260563619,53.9582395625984));
#1188=CARTESIAN_POINT('',(0.96100426856401,0.564516260563617,54.0328395625983));
#1189=CARTESIAN_POINT('',(0.96100426856401,0.494216260563617,54.0328395625983));
#1190=CARTESIAN_POINT('',(0.96100426856401,0.564516260563617,54.0478395625983));
#1191=CARTESIAN_POINT('',(0.96100426856401,0.564516260563619,53.9625395625983));
#1192=CARTESIAN_POINT('',(0.96100426856401,0.564516260563618,54.0285395625984));
#1193=MECHANICAL_DESIGN_GEOMETRIC_PRESENTATION_REPRESENTATION('',(#32),
#1194);
#1194=(
GEOMETRIC_REPRESENTATION_CONTEXT(3)
GLOBAL_UNCERTAINTY_ASSIGNED_CONTEXT((#1195))
GLOBAL_UNIT_ASSIGNED_CONTEXT((#1200,#1197,#1196))
REPRESENTATION_CONTEXT('Diffuser_Cap','TOP_LEVEL_ASSEMBLY_PART')
);
#1195=UNCERTAINTY_MEASURE_WITH_UNIT(LENGTH_MEASURE(7.8740157480315E-7),
#1200,'DISTANCE_ACCURACY_VALUE','Maximum Tolerance applied to model');
#1196=(
NAMED_UNIT(*)
SI_UNIT($,.STERADIAN.)
SOLID_ANGLE_UNIT()
);
#1197=(
CONVERSION_BASED_UNIT('DEGREE',#1198)
NAMED_UNIT(#1202)
PLANE_ANGLE_UNIT()
);
#1198=PLANE_ANGLE_MEASURE_WITH_UNIT(PLANE_ANGLE_MEASURE(0.0174532925),#1199);
#1199=(
NAMED_UNIT(*)
PLANE_ANGLE_UNIT()
SI_UNIT($,.RADIAN.)
);
#1200=(
CONVERSION_BASED_UNIT('INCH',#1203)
LENGTH_UNIT()
NAMED_UNIT(#1201)
);
#1201=DIMENSIONAL_EXPONENTS(1.,0.,0.,0.,0.,0.,0.);
#1202=DIMENSIONAL_EXPONENTS(0.,0.,0.,0.,0.,0.,0.);
#1203=LENGTH_MEASURE_WITH_UNIT(LENGTH_MEASURE(25.4),#1204);
#1204=(
LENGTH_UNIT()
NAMED_UNIT(*)
SI_UNIT(.MILLI.,.METRE.)
);
ENDSEC;
END-ISO-10303-21;
