ISO-10303-21;
HEADER;
/* Generated by software containing ST-Developer
 * from STEP Tools, Inc. (www.steptools.com) 
 */
/* OPTION: using custom schema-name function */

FILE_DESCRIPTION(
/* description */ (''),
/* implementation_level */ '2;1');

FILE_NAME(
/* name */ 'actuator_mount_revison_2.stp',
/* time_stamp */ '2026-10-01T03:14:26-04:00',
/* author */ (''),
/* organization */ (''),
/* preprocessor_version */ 'ST-DEVELOPER v18.102',
/* originating_system */ 'SIEMENS PLM Software NX 2027',
/* authorisation */ '');

FILE_SCHEMA (('AUTOMOTIVE_DESIGN { 1 0 10303 214 3 1 1 1 }'));
ENDSEC;

DATA;
#10=PROPERTY_DEFINITION_REPRESENTATION(#14,#12);
#11=PROPERTY_DEFINITION_REPRESENTATION(#15,#13);
#12=REPRESENTATION('',(#16),#922);
#13=REPRESENTATION('',(#17),#922);
#14=PROPERTY_DEFINITION('pmi validation property','',#21);
#15=PROPERTY_DEFINITION('pmi validation property','',#21);
#16=VALUE_REPRESENTATION_ITEM('number of annotations',COUNT_MEASURE(0.));
#17=VALUE_REPRESENTATION_ITEM('number of views',COUNT_MEASURE(0.));
#18=SHAPE_REPRESENTATION_RELATIONSHIP('None',
'relationship between A_objects-None and A_objects-None',#30,#19);
#19=ADVANCED_BREP_SHAPE_REPRESENTATION('A_objects-None',(#181),#922);
#20=SHAPE_DEFINITION_REPRESENTATION(#21,#30);
#21=PRODUCT_DEFINITION_SHAPE('','',#22);
#22=PRODUCT_DEFINITION(' ','',#24,#23);
#23=PRODUCT_DEFINITION_CONTEXT('part definition',#29,'design');
#24=PRODUCT_DEFINITION_FORMATION_WITH_SPECIFIED_SOURCE(' ',' ',#26,
 .NOT_KNOWN.);
#25=PRODUCT_RELATED_PRODUCT_CATEGORY('part','',(#26));
#26=PRODUCT('A_objects','A_objects',' ',(#27));
#27=PRODUCT_CONTEXT(' ',#29,'mechanical');
#28=APPLICATION_PROTOCOL_DEFINITION('international standard',
'automotive_design',2010,#29);
#29=APPLICATION_CONTEXT(
'core data for automotive mechanical design processes');
#30=SHAPE_REPRESENTATION('A_objects-None',(#623),#922);
#31=OVER_RIDING_STYLED_ITEM('',(#54),#210,#52);
#32=OVER_RIDING_STYLED_ITEM('',(#55),#211,#52);
#33=OVER_RIDING_STYLED_ITEM('',(#56),#212,#52);
#34=OVER_RIDING_STYLED_ITEM('',(#57),#213,#52);
#35=OVER_RIDING_STYLED_ITEM('',(#58),#214,#52);
#36=OVER_RIDING_STYLED_ITEM('',(#59),#215,#52);
#37=OVER_RIDING_STYLED_ITEM('',(#60),#216,#52);
#38=OVER_RIDING_STYLED_ITEM('',(#61),#217,#52);
#39=OVER_RIDING_STYLED_ITEM('',(#62),#218,#52);
#40=OVER_RIDING_STYLED_ITEM('',(#63),#219,#52);
#41=OVER_RIDING_STYLED_ITEM('',(#64),#220,#52);
#42=OVER_RIDING_STYLED_ITEM('',(#65),#221,#52);
#43=OVER_RIDING_STYLED_ITEM('',(#66),#222,#52);
#44=OVER_RIDING_STYLED_ITEM('',(#67),#223,#52);
#45=OVER_RIDING_STYLED_ITEM('',(#68),#224,#52);
#46=OVER_RIDING_STYLED_ITEM('',(#69),#225,#52);
#47=OVER_RIDING_STYLED_ITEM('',(#70),#226,#52);
#48=OVER_RIDING_STYLED_ITEM('',(#71),#227,#52);
#49=OVER_RIDING_STYLED_ITEM('',(#72),#228,#52);
#50=OVER_RIDING_STYLED_ITEM('',(#73),#229,#52);
#51=PRESENTATION_LAYER_ASSIGNMENT('1','Layer 1',(#181));
#52=STYLED_ITEM('',(#53),#181);
#53=PRESENTATION_STYLE_ASSIGNMENT((#74));
#54=PRESENTATION_STYLE_ASSIGNMENT((#75));
#55=PRESENTATION_STYLE_ASSIGNMENT((#76));
#56=PRESENTATION_STYLE_ASSIGNMENT((#77));
#57=PRESENTATION_STYLE_ASSIGNMENT((#78));
#58=PRESENTATION_STYLE_ASSIGNMENT((#79));
#59=PRESENTATION_STYLE_ASSIGNMENT((#80));
#60=PRESENTATION_STYLE_ASSIGNMENT((#81));
#61=PRESENTATION_STYLE_ASSIGNMENT((#82));
#62=PRESENTATION_STYLE_ASSIGNMENT((#83));
#63=PRESENTATION_STYLE_ASSIGNMENT((#84));
#64=PRESENTATION_STYLE_ASSIGNMENT((#85));
#65=PRESENTATION_STYLE_ASSIGNMENT((#86));
#66=PRESENTATION_STYLE_ASSIGNMENT((#87));
#67=PRESENTATION_STYLE_ASSIGNMENT((#88));
#68=PRESENTATION_STYLE_ASSIGNMENT((#89));
#69=PRESENTATION_STYLE_ASSIGNMENT((#90));
#70=PRESENTATION_STYLE_ASSIGNMENT((#91));
#71=PRESENTATION_STYLE_ASSIGNMENT((#92));
#72=PRESENTATION_STYLE_ASSIGNMENT((#93));
#73=PRESENTATION_STYLE_ASSIGNMENT((#94));
#74=SURFACE_STYLE_USAGE(.BOTH.,#95);
#75=SURFACE_STYLE_USAGE(.BOTH.,#96);
#76=SURFACE_STYLE_USAGE(.BOTH.,#97);
#77=SURFACE_STYLE_USAGE(.BOTH.,#98);
#78=SURFACE_STYLE_USAGE(.BOTH.,#99);
#79=SURFACE_STYLE_USAGE(.BOTH.,#100);
#80=SURFACE_STYLE_USAGE(.BOTH.,#101);
#81=SURFACE_STYLE_USAGE(.BOTH.,#102);
#82=SURFACE_STYLE_USAGE(.BOTH.,#103);
#83=SURFACE_STYLE_USAGE(.BOTH.,#104);
#84=SURFACE_STYLE_USAGE(.BOTH.,#105);
#85=SURFACE_STYLE_USAGE(.BOTH.,#106);
#86=SURFACE_STYLE_USAGE(.BOTH.,#107);
#87=SURFACE_STYLE_USAGE(.BOTH.,#108);
#88=SURFACE_STYLE_USAGE(.BOTH.,#109);
#89=SURFACE_STYLE_USAGE(.BOTH.,#110);
#90=SURFACE_STYLE_USAGE(.BOTH.,#111);
#91=SURFACE_STYLE_USAGE(.BOTH.,#112);
#92=SURFACE_STYLE_USAGE(.BOTH.,#113);
#93=SURFACE_STYLE_USAGE(.BOTH.,#114);
#94=SURFACE_STYLE_USAGE(.BOTH.,#115);
#95=SURFACE_SIDE_STYLE('',(#116));
#96=SURFACE_SIDE_STYLE('',(#117));
#97=SURFACE_SIDE_STYLE('',(#118));
#98=SURFACE_SIDE_STYLE('',(#119));
#99=SURFACE_SIDE_STYLE('',(#120));
#100=SURFACE_SIDE_STYLE('',(#121));
#101=SURFACE_SIDE_STYLE('',(#122));
#102=SURFACE_SIDE_STYLE('',(#123));
#103=SURFACE_SIDE_STYLE('',(#124));
#104=SURFACE_SIDE_STYLE('',(#125));
#105=SURFACE_SIDE_STYLE('',(#126));
#106=SURFACE_SIDE_STYLE('',(#127));
#107=SURFACE_SIDE_STYLE('',(#128));
#108=SURFACE_SIDE_STYLE('',(#129));
#109=SURFACE_SIDE_STYLE('',(#130));
#110=SURFACE_SIDE_STYLE('',(#131));
#111=SURFACE_SIDE_STYLE('',(#132));
#112=SURFACE_SIDE_STYLE('',(#133));
#113=SURFACE_SIDE_STYLE('',(#134));
#114=SURFACE_SIDE_STYLE('',(#135));
#115=SURFACE_SIDE_STYLE('',(#136));
#116=SURFACE_STYLE_FILL_AREA(#137);
#117=SURFACE_STYLE_FILL_AREA(#138);
#118=SURFACE_STYLE_FILL_AREA(#139);
#119=SURFACE_STYLE_FILL_AREA(#140);
#120=SURFACE_STYLE_FILL_AREA(#141);
#121=SURFACE_STYLE_FILL_AREA(#142);
#122=SURFACE_STYLE_FILL_AREA(#143);
#123=SURFACE_STYLE_FILL_AREA(#144);
#124=SURFACE_STYLE_FILL_AREA(#145);
#125=SURFACE_STYLE_FILL_AREA(#146);
#126=SURFACE_STYLE_FILL_AREA(#147);
#127=SURFACE_STYLE_FILL_AREA(#148);
#128=SURFACE_STYLE_FILL_AREA(#149);
#129=SURFACE_STYLE_FILL_AREA(#150);
#130=SURFACE_STYLE_FILL_AREA(#151);
#131=SURFACE_STYLE_FILL_AREA(#152);
#132=SURFACE_STYLE_FILL_AREA(#153);
#133=SURFACE_STYLE_FILL_AREA(#154);
#134=SURFACE_STYLE_FILL_AREA(#155);
#135=SURFACE_STYLE_FILL_AREA(#156);
#136=SURFACE_STYLE_FILL_AREA(#157);
#137=FILL_AREA_STYLE('',(#158));
#138=FILL_AREA_STYLE('',(#159));
#139=FILL_AREA_STYLE('',(#160));
#140=FILL_AREA_STYLE('',(#161));
#141=FILL_AREA_STYLE('',(#162));
#142=FILL_AREA_STYLE('',(#163));
#143=FILL_AREA_STYLE('',(#164));
#144=FILL_AREA_STYLE('',(#165));
#145=FILL_AREA_STYLE('',(#166));
#146=FILL_AREA_STYLE('',(#167));
#147=FILL_AREA_STYLE('',(#168));
#148=FILL_AREA_STYLE('',(#169));
#149=FILL_AREA_STYLE('',(#170));
#150=FILL_AREA_STYLE('',(#171));
#151=FILL_AREA_STYLE('',(#172));
#152=FILL_AREA_STYLE('',(#173));
#153=FILL_AREA_STYLE('',(#174));
#154=FILL_AREA_STYLE('',(#175));
#155=FILL_AREA_STYLE('',(#176));
#156=FILL_AREA_STYLE('',(#177));
#157=FILL_AREA_STYLE('',(#178));
#158=FILL_AREA_STYLE_COLOUR('',#179);
#159=FILL_AREA_STYLE_COLOUR('',#180);
#160=FILL_AREA_STYLE_COLOUR('',#180);
#161=FILL_AREA_STYLE_COLOUR('',#180);
#162=FILL_AREA_STYLE_COLOUR('',#180);
#163=FILL_AREA_STYLE_COLOUR('',#180);
#164=FILL_AREA_STYLE_COLOUR('',#180);
#165=FILL_AREA_STYLE_COLOUR('',#180);
#166=FILL_AREA_STYLE_COLOUR('',#180);
#167=FILL_AREA_STYLE_COLOUR('',#180);
#168=FILL_AREA_STYLE_COLOUR('',#180);
#169=FILL_AREA_STYLE_COLOUR('',#180);
#170=FILL_AREA_STYLE_COLOUR('',#180);
#171=FILL_AREA_STYLE_COLOUR('',#180);
#172=FILL_AREA_STYLE_COLOUR('',#180);
#173=FILL_AREA_STYLE_COLOUR('',#180);
#174=FILL_AREA_STYLE_COLOUR('',#180);
#175=FILL_AREA_STYLE_COLOUR('',#180);
#176=FILL_AREA_STYLE_COLOUR('',#180);
#177=FILL_AREA_STYLE_COLOUR('',#180);
#178=FILL_AREA_STYLE_COLOUR('',#180);
#179=COLOUR_RGB('medium purple',0.447058823529412,0.415686274509804,1.);
#180=COLOUR_RGB('strong blue',0.2,0.2,1.);
#181=MANIFOLD_SOLID_BREP('',#182);
#182=CLOSED_SHELL('',(#210,#211,#212,#213,#214,#215,#216,#217,#218,#219,
#220,#221,#222,#223,#224,#225,#226,#227,#228,#229,#230,#231,#232));
#183=CYLINDRICAL_SURFACE('',#640,1.25);
#184=CYLINDRICAL_SURFACE('',#643,0.89925);
#185=CYLINDRICAL_SURFACE('',#655,0.130000000000001);
#186=CYLINDRICAL_SURFACE('',#657,0.130000000000001);
#187=CYLINDRICAL_SURFACE('',#658,0.130000000000001);
#188=CYLINDRICAL_SURFACE('',#661,0.13);
#189=CYLINDRICAL_SURFACE('',#662,0.6);
#190=CYLINDRICAL_SURFACE('',#663,0.3);
#191=CYLINDRICAL_SURFACE('',#664,0.3);
#192=FACE_OUTER_BOUND('',#283,.T.);
#193=FACE_OUTER_BOUND('',#284,.T.);
#194=FACE_OUTER_BOUND('',#285,.T.);
#195=FACE_OUTER_BOUND('',#286,.T.);
#196=FACE_OUTER_BOUND('',#287,.T.);
#197=FACE_OUTER_BOUND('',#294,.T.);
#198=FACE_OUTER_BOUND('',#295,.T.);
#199=FACE_OUTER_BOUND('',#296,.T.);
#200=FACE_OUTER_BOUND('',#297,.T.);
#201=FACE_OUTER_BOUND('',#298,.T.);
#202=FACE_OUTER_BOUND('',#299,.T.);
#203=FACE_OUTER_BOUND('',#300,.T.);
#204=FACE_OUTER_BOUND('',#301,.T.);
#205=FACE_OUTER_BOUND('',#302,.T.);
#206=FACE_OUTER_BOUND('',#303,.T.);
#207=FACE_OUTER_BOUND('',#304,.T.);
#208=FACE_OUTER_BOUND('',#305,.T.);
#209=FACE_OUTER_BOUND('',#306,.T.);
#210=ADVANCED_FACE('',(#265,#266,#267),#233,.T.);
#211=ADVANCED_FACE('',(#268,#269,#270),#234,.T.);
#212=ADVANCED_FACE('',(#192),#235,.F.);
#213=ADVANCED_FACE('',(#193),#236,.F.);
#214=ADVANCED_FACE('',(#194),#237,.F.);
#215=ADVANCED_FACE('',(#195),#238,.F.);
#216=ADVANCED_FACE('',(#196),#183,.T.);
#217=ADVANCED_FACE('',(#271,#272),#184,.F.);
#218=ADVANCED_FACE('',(#273,#274),#239,.T.);
#219=ADVANCED_FACE('',(#275,#276),#240,.F.);
#220=ADVANCED_FACE('',(#197),#241,.F.);
#221=ADVANCED_FACE('',(#198),#242,.T.);
#222=ADVANCED_FACE('',(#199),#243,.T.);
#223=ADVANCED_FACE('',(#200),#185,.F.);
#224=ADVANCED_FACE('',(#201),#244,.T.);
#225=ADVANCED_FACE('',(#202),#186,.F.);
#226=ADVANCED_FACE('',(#203),#187,.F.);
#227=ADVANCED_FACE('',(#204),#245,.F.);
#228=ADVANCED_FACE('',(#205),#246,.F.);
#229=ADVANCED_FACE('',(#206),#188,.F.);
#230=ADVANCED_FACE('',(#207),#189,.F.);
#231=ADVANCED_FACE('',(#208),#190,.T.);
#232=ADVANCED_FACE('',(#209),#191,.F.);
#233=PLANE('',#628);
#234=PLANE('',#633);
#235=PLANE('',#634);
#236=PLANE('',#635);
#237=PLANE('',#636);
#238=PLANE('',#637);
#239=PLANE('',#647);
#240=PLANE('',#651);
#241=PLANE('',#652);
#242=PLANE('',#653);
#243=PLANE('',#654);
#244=PLANE('',#656);
#245=PLANE('',#659);
#246=PLANE('',#660);
#247=CIRCLE('',#624,0.130000000000001);
#248=CIRCLE('',#625,0.130000000000001);
#249=CIRCLE('',#626,0.130000000000001);
#250=CIRCLE('',#627,0.13);
#251=CIRCLE('',#629,0.130000000000001);
#252=CIRCLE('',#630,0.130000000000001);
#253=CIRCLE('',#631,0.130000000000001);
#254=CIRCLE('',#632,0.13);
#255=CIRCLE('',#638,1.25);
#256=CIRCLE('',#639,1.25);
#257=CIRCLE('',#641,0.89925);
#258=CIRCLE('',#642,0.89925);
#259=CIRCLE('',#644,0.3);
#260=CIRCLE('',#645,0.3);
#261=CIRCLE('',#646,0.6);
#262=CIRCLE('',#648,0.3);
#263=CIRCLE('',#649,0.6);
#264=CIRCLE('',#650,0.3);
#265=FACE_BOUND('',#277,.T.);
#266=FACE_BOUND('',#278,.T.);
#267=FACE_BOUND('',#279,.T.);
#268=FACE_BOUND('',#280,.T.);
#269=FACE_BOUND('',#281,.T.);
#270=FACE_BOUND('',#282,.T.);
#271=FACE_BOUND('',#288,.T.);
#272=FACE_BOUND('',#289,.T.);
#273=FACE_BOUND('',#290,.T.);
#274=FACE_BOUND('',#291,.T.);
#275=FACE_BOUND('',#292,.T.);
#276=FACE_BOUND('',#293,.T.);
#277=EDGE_LOOP('',(#307,#308,#309,#310));
#278=EDGE_LOOP('',(#311,#312,#313,#314));
#279=EDGE_LOOP('',(#315,#316,#317,#318));
#280=EDGE_LOOP('',(#319,#320,#321,#322));
#281=EDGE_LOOP('',(#323,#324,#325,#326));
#282=EDGE_LOOP('',(#327,#328,#329,#330));
#283=EDGE_LOOP('',(#331,#332,#333,#334));
#284=EDGE_LOOP('',(#335,#336,#337,#338));
#285=EDGE_LOOP('',(#339,#340,#341,#342,#343,#344));
#286=EDGE_LOOP('',(#345,#346,#347,#348));
#287=EDGE_LOOP('',(#349,#350,#351,#352));
#288=EDGE_LOOP('',(#353));
#289=EDGE_LOOP('',(#354));
#290=EDGE_LOOP('',(#355,#356,#357,#358,#359,#360,#361,#362,#363,#364));
#291=EDGE_LOOP('',(#365));
#292=EDGE_LOOP('',(#366,#367,#368,#369,#370,#371,#372,#373,#374,#375));
#293=EDGE_LOOP('',(#376));
#294=EDGE_LOOP('',(#377,#378,#379,#380));
#295=EDGE_LOOP('',(#381,#382,#383,#384,#385,#386));
#296=EDGE_LOOP('',(#387,#388,#389,#390));
#297=EDGE_LOOP('',(#391,#392,#393,#394));
#298=EDGE_LOOP('',(#395,#396,#397,#398));
#299=EDGE_LOOP('',(#399,#400,#401,#402));
#300=EDGE_LOOP('',(#403,#404,#405,#406));
#301=EDGE_LOOP('',(#407,#408,#409,#410));
#302=EDGE_LOOP('',(#411,#412,#413,#414));
#303=EDGE_LOOP('',(#415,#416,#417,#418));
#304=EDGE_LOOP('',(#419,#420,#421,#422));
#305=EDGE_LOOP('',(#423,#424,#425,#426));
#306=EDGE_LOOP('',(#427,#428,#429,#430));
#307=ORIENTED_EDGE('',*,*,#473,.F.);
#308=ORIENTED_EDGE('',*,*,#474,.T.);
#309=ORIENTED_EDGE('',*,*,#475,.T.);
#310=ORIENTED_EDGE('',*,*,#476,.F.);
#311=ORIENTED_EDGE('',*,*,#477,.F.);
#312=ORIENTED_EDGE('',*,*,#478,.F.);
#313=ORIENTED_EDGE('',*,*,#479,.F.);
#314=ORIENTED_EDGE('',*,*,#480,.F.);
#315=ORIENTED_EDGE('',*,*,#481,.T.);
#316=ORIENTED_EDGE('',*,*,#482,.T.);
#317=ORIENTED_EDGE('',*,*,#483,.T.);
#318=ORIENTED_EDGE('',*,*,#484,.T.);
#319=ORIENTED_EDGE('',*,*,#485,.F.);
#320=ORIENTED_EDGE('',*,*,#486,.T.);
#321=ORIENTED_EDGE('',*,*,#487,.T.);
#322=ORIENTED_EDGE('',*,*,#488,.F.);
#323=ORIENTED_EDGE('',*,*,#489,.T.);
#324=ORIENTED_EDGE('',*,*,#490,.T.);
#325=ORIENTED_EDGE('',*,*,#491,.T.);
#326=ORIENTED_EDGE('',*,*,#492,.T.);
#327=ORIENTED_EDGE('',*,*,#493,.F.);
#328=ORIENTED_EDGE('',*,*,#494,.F.);
#329=ORIENTED_EDGE('',*,*,#495,.F.);
#330=ORIENTED_EDGE('',*,*,#496,.F.);
#331=ORIENTED_EDGE('',*,*,#497,.T.);
#332=ORIENTED_EDGE('',*,*,#498,.T.);
#333=ORIENTED_EDGE('',*,*,#499,.F.);
#334=ORIENTED_EDGE('',*,*,#500,.T.);
#335=ORIENTED_EDGE('',*,*,#501,.F.);
#336=ORIENTED_EDGE('',*,*,#502,.T.);
#337=ORIENTED_EDGE('',*,*,#503,.T.);
#338=ORIENTED_EDGE('',*,*,#504,.T.);
#339=ORIENTED_EDGE('',*,*,#505,.F.);
#340=ORIENTED_EDGE('',*,*,#506,.T.);
#341=ORIENTED_EDGE('',*,*,#507,.T.);
#342=ORIENTED_EDGE('',*,*,#485,.T.);
#343=ORIENTED_EDGE('',*,*,#508,.F.);
#344=ORIENTED_EDGE('',*,*,#475,.F.);
#345=ORIENTED_EDGE('',*,*,#509,.F.);
#346=ORIENTED_EDGE('',*,*,#510,.T.);
#347=ORIENTED_EDGE('',*,*,#511,.T.);
#348=ORIENTED_EDGE('',*,*,#512,.F.);
#349=ORIENTED_EDGE('',*,*,#513,.T.);
#350=ORIENTED_EDGE('',*,*,#500,.F.);
#351=ORIENTED_EDGE('',*,*,#514,.F.);
#352=ORIENTED_EDGE('',*,*,#512,.T.);
#353=ORIENTED_EDGE('',*,*,#515,.T.);
#354=ORIENTED_EDGE('',*,*,#516,.F.);
#355=ORIENTED_EDGE('',*,*,#501,.T.);
#356=ORIENTED_EDGE('',*,*,#517,.T.);
#357=ORIENTED_EDGE('',*,*,#505,.T.);
#358=ORIENTED_EDGE('',*,*,#474,.F.);
#359=ORIENTED_EDGE('',*,*,#518,.F.);
#360=ORIENTED_EDGE('',*,*,#519,.T.);
#361=ORIENTED_EDGE('',*,*,#509,.T.);
#362=ORIENTED_EDGE('',*,*,#514,.T.);
#363=ORIENTED_EDGE('',*,*,#499,.T.);
#364=ORIENTED_EDGE('',*,*,#520,.T.);
#365=ORIENTED_EDGE('',*,*,#515,.F.);
#366=ORIENTED_EDGE('',*,*,#507,.F.);
#367=ORIENTED_EDGE('',*,*,#521,.T.);
#368=ORIENTED_EDGE('',*,*,#503,.F.);
#369=ORIENTED_EDGE('',*,*,#522,.T.);
#370=ORIENTED_EDGE('',*,*,#497,.F.);
#371=ORIENTED_EDGE('',*,*,#513,.F.);
#372=ORIENTED_EDGE('',*,*,#511,.F.);
#373=ORIENTED_EDGE('',*,*,#523,.T.);
#374=ORIENTED_EDGE('',*,*,#524,.F.);
#375=ORIENTED_EDGE('',*,*,#486,.F.);
#376=ORIENTED_EDGE('',*,*,#516,.T.);
#377=ORIENTED_EDGE('',*,*,#488,.T.);
#378=ORIENTED_EDGE('',*,*,#525,.T.);
#379=ORIENTED_EDGE('',*,*,#476,.T.);
#380=ORIENTED_EDGE('',*,*,#508,.T.);
#381=ORIENTED_EDGE('',*,*,#487,.F.);
#382=ORIENTED_EDGE('',*,*,#524,.T.);
#383=ORIENTED_EDGE('',*,*,#526,.T.);
#384=ORIENTED_EDGE('',*,*,#518,.T.);
#385=ORIENTED_EDGE('',*,*,#473,.T.);
#386=ORIENTED_EDGE('',*,*,#525,.F.);
#387=ORIENTED_EDGE('',*,*,#478,.T.);
#388=ORIENTED_EDGE('',*,*,#527,.F.);
#389=ORIENTED_EDGE('',*,*,#490,.F.);
#390=ORIENTED_EDGE('',*,*,#528,.T.);
#391=ORIENTED_EDGE('',*,*,#477,.T.);
#392=ORIENTED_EDGE('',*,*,#529,.F.);
#393=ORIENTED_EDGE('',*,*,#491,.F.);
#394=ORIENTED_EDGE('',*,*,#527,.T.);
#395=ORIENTED_EDGE('',*,*,#480,.T.);
#396=ORIENTED_EDGE('',*,*,#530,.F.);
#397=ORIENTED_EDGE('',*,*,#492,.F.);
#398=ORIENTED_EDGE('',*,*,#529,.T.);
#399=ORIENTED_EDGE('',*,*,#479,.T.);
#400=ORIENTED_EDGE('',*,*,#528,.F.);
#401=ORIENTED_EDGE('',*,*,#489,.F.);
#402=ORIENTED_EDGE('',*,*,#530,.T.);
#403=ORIENTED_EDGE('',*,*,#531,.F.);
#404=ORIENTED_EDGE('',*,*,#493,.T.);
#405=ORIENTED_EDGE('',*,*,#532,.T.);
#406=ORIENTED_EDGE('',*,*,#481,.F.);
#407=ORIENTED_EDGE('',*,*,#533,.F.);
#408=ORIENTED_EDGE('',*,*,#494,.T.);
#409=ORIENTED_EDGE('',*,*,#531,.T.);
#410=ORIENTED_EDGE('',*,*,#484,.F.);
#411=ORIENTED_EDGE('',*,*,#532,.F.);
#412=ORIENTED_EDGE('',*,*,#496,.T.);
#413=ORIENTED_EDGE('',*,*,#534,.T.);
#414=ORIENTED_EDGE('',*,*,#482,.F.);
#415=ORIENTED_EDGE('',*,*,#534,.F.);
#416=ORIENTED_EDGE('',*,*,#495,.T.);
#417=ORIENTED_EDGE('',*,*,#533,.T.);
#418=ORIENTED_EDGE('',*,*,#483,.F.);
#419=ORIENTED_EDGE('',*,*,#520,.F.);
#420=ORIENTED_EDGE('',*,*,#498,.F.);
#421=ORIENTED_EDGE('',*,*,#522,.F.);
#422=ORIENTED_EDGE('',*,*,#502,.F.);
#423=ORIENTED_EDGE('',*,*,#517,.F.);
#424=ORIENTED_EDGE('',*,*,#504,.F.);
#425=ORIENTED_EDGE('',*,*,#521,.F.);
#426=ORIENTED_EDGE('',*,*,#506,.F.);
#427=ORIENTED_EDGE('',*,*,#519,.F.);
#428=ORIENTED_EDGE('',*,*,#526,.F.);
#429=ORIENTED_EDGE('',*,*,#523,.F.);
#430=ORIENTED_EDGE('',*,*,#510,.F.);
#431=VERTEX_POINT('',#795);
#432=VERTEX_POINT('',#796);
#433=VERTEX_POINT('',#798);
#434=VERTEX_POINT('',#800);
#435=VERTEX_POINT('',#803);
#436=VERTEX_POINT('',#804);
#437=VERTEX_POINT('',#806);
#438=VERTEX_POINT('',#808);
#439=VERTEX_POINT('',#811);
#440=VERTEX_POINT('',#812);
#441=VERTEX_POINT('',#814);
#442=VERTEX_POINT('',#816);
#443=VERTEX_POINT('',#820);
#444=VERTEX_POINT('',#821);
#445=VERTEX_POINT('',#823);
#446=VERTEX_POINT('',#825);
#447=VERTEX_POINT('',#828);
#448=VERTEX_POINT('',#829);
#449=VERTEX_POINT('',#831);
#450=VERTEX_POINT('',#833);
#451=VERTEX_POINT('',#836);
#452=VERTEX_POINT('',#837);
#453=VERTEX_POINT('',#839);
#454=VERTEX_POINT('',#841);
#455=VERTEX_POINT('',#845);
#456=VERTEX_POINT('',#846);
#457=VERTEX_POINT('',#848);
#458=VERTEX_POINT('',#850);
#459=VERTEX_POINT('',#854);
#460=VERTEX_POINT('',#855);
#461=VERTEX_POINT('',#857);
#462=VERTEX_POINT('',#859);
#463=VERTEX_POINT('',#863);
#464=VERTEX_POINT('',#865);
#465=VERTEX_POINT('',#870);
#466=VERTEX_POINT('',#871);
#467=VERTEX_POINT('',#873);
#468=VERTEX_POINT('',#875);
#469=VERTEX_POINT('',#882);
#470=VERTEX_POINT('',#884);
#471=VERTEX_POINT('',#888);
#472=VERTEX_POINT('',#895);
#473=EDGE_CURVE('',#431,#432,#535,.T.);
#474=EDGE_CURVE('',#431,#433,#536,.T.);
#475=EDGE_CURVE('',#433,#434,#537,.T.);
#476=EDGE_CURVE('',#432,#434,#538,.T.);
#477=EDGE_CURVE('',#435,#436,#247,.T.);
#478=EDGE_CURVE('',#437,#435,#539,.T.);
#479=EDGE_CURVE('',#438,#437,#248,.T.);
#480=EDGE_CURVE('',#436,#438,#540,.T.);
#481=EDGE_CURVE('',#439,#440,#249,.T.);
#482=EDGE_CURVE('',#440,#441,#541,.T.);
#483=EDGE_CURVE('',#441,#442,#250,.T.);
#484=EDGE_CURVE('',#442,#439,#542,.T.);
#485=EDGE_CURVE('',#443,#444,#543,.T.);
#486=EDGE_CURVE('',#443,#445,#544,.T.);
#487=EDGE_CURVE('',#445,#446,#545,.T.);
#488=EDGE_CURVE('',#444,#446,#546,.T.);
#489=EDGE_CURVE('',#447,#448,#251,.T.);
#490=EDGE_CURVE('',#448,#449,#547,.T.);
#491=EDGE_CURVE('',#449,#450,#252,.T.);
#492=EDGE_CURVE('',#450,#447,#548,.T.);
#493=EDGE_CURVE('',#451,#452,#253,.T.);
#494=EDGE_CURVE('',#453,#451,#549,.T.);
#495=EDGE_CURVE('',#454,#453,#254,.T.);
#496=EDGE_CURVE('',#452,#454,#550,.T.);
#497=EDGE_CURVE('',#455,#456,#551,.T.);
#498=EDGE_CURVE('',#456,#457,#552,.T.);
#499=EDGE_CURVE('',#458,#457,#553,.T.);
#500=EDGE_CURVE('',#458,#455,#554,.T.);
#501=EDGE_CURVE('',#459,#460,#555,.T.);
#502=EDGE_CURVE('',#459,#461,#556,.T.);
#503=EDGE_CURVE('',#461,#462,#557,.T.);
#504=EDGE_CURVE('',#462,#460,#558,.T.);
#505=EDGE_CURVE('',#463,#433,#559,.T.);
#506=EDGE_CURVE('',#463,#464,#560,.T.);
#507=EDGE_CURVE('',#464,#443,#561,.T.);
#508=EDGE_CURVE('',#434,#444,#562,.T.);
#509=EDGE_CURVE('',#465,#466,#563,.T.);
#510=EDGE_CURVE('',#465,#467,#564,.T.);
#511=EDGE_CURVE('',#467,#468,#565,.T.);
#512=EDGE_CURVE('',#466,#468,#566,.T.);
#513=EDGE_CURVE('',#468,#455,#255,.T.);
#514=EDGE_CURVE('',#466,#458,#256,.T.);
#515=EDGE_CURVE('',#469,#469,#257,.T.);
#516=EDGE_CURVE('',#470,#470,#258,.T.);
#517=EDGE_CURVE('',#460,#463,#259,.T.);
#518=EDGE_CURVE('',#471,#431,#567,.T.);
#519=EDGE_CURVE('',#471,#465,#260,.T.);
#520=EDGE_CURVE('',#457,#459,#261,.T.);
#521=EDGE_CURVE('',#464,#462,#262,.T.);
#522=EDGE_CURVE('',#461,#456,#263,.T.);
#523=EDGE_CURVE('',#467,#472,#264,.T.);
#524=EDGE_CURVE('',#445,#472,#568,.T.);
#525=EDGE_CURVE('',#446,#432,#569,.T.);
#526=EDGE_CURVE('',#472,#471,#570,.T.);
#527=EDGE_CURVE('',#449,#435,#571,.T.);
#528=EDGE_CURVE('',#448,#437,#572,.T.);
#529=EDGE_CURVE('',#450,#436,#573,.T.);
#530=EDGE_CURVE('',#447,#438,#574,.T.);
#531=EDGE_CURVE('',#451,#439,#575,.T.);
#532=EDGE_CURVE('',#452,#440,#576,.T.);
#533=EDGE_CURVE('',#453,#442,#577,.T.);
#534=EDGE_CURVE('',#454,#441,#578,.T.);
#535=LINE('',#794,#579);
#536=LINE('',#797,#580);
#537=LINE('',#799,#581);
#538=LINE('',#801,#582);
#539=LINE('',#805,#583);
#540=LINE('',#809,#584);
#541=LINE('',#813,#585);
#542=LINE('',#817,#586);
#543=LINE('',#819,#587);
#544=LINE('',#822,#588);
#545=LINE('',#824,#589);
#546=LINE('',#826,#590);
#547=LINE('',#830,#591);
#548=LINE('',#834,#592);
#549=LINE('',#838,#593);
#550=LINE('',#842,#594);
#551=LINE('',#844,#595);
#552=LINE('',#847,#596);
#553=LINE('',#849,#597);
#554=LINE('',#851,#598);
#555=LINE('',#853,#599);
#556=LINE('',#856,#600);
#557=LINE('',#858,#601);
#558=LINE('',#860,#602);
#559=LINE('',#862,#603);
#560=LINE('',#864,#604);
#561=LINE('',#866,#605);
#562=LINE('',#867,#606);
#563=LINE('',#869,#607);
#564=LINE('',#872,#608);
#565=LINE('',#874,#609);
#566=LINE('',#876,#610);
#567=LINE('',#887,#611);
#568=LINE('',#896,#612);
#569=LINE('',#898,#613);
#570=LINE('',#900,#614);
#571=LINE('',#902,#615);
#572=LINE('',#903,#616);
#573=LINE('',#905,#617);
#574=LINE('',#907,#618);
#575=LINE('',#910,#619);
#576=LINE('',#911,#620);
#577=LINE('',#913,#621);
#578=LINE('',#915,#622);
#579=VECTOR('',#667,1.);
#580=VECTOR('',#668,1.);
#581=VECTOR('',#669,1.);
#582=VECTOR('',#670,1.);
#583=VECTOR('',#673,1.);
#584=VECTOR('',#676,1.);
#585=VECTOR('',#679,1.);
#586=VECTOR('',#682,1.);
#587=VECTOR('',#685,1.);
#588=VECTOR('',#686,1.);
#589=VECTOR('',#687,1.);
#590=VECTOR('',#688,1.);
#591=VECTOR('',#691,1.);
#592=VECTOR('',#694,1.);
#593=VECTOR('',#697,1.);
#594=VECTOR('',#700,1.);
#595=VECTOR('',#703,1.);
#596=VECTOR('',#704,1.);
#597=VECTOR('',#705,1.);
#598=VECTOR('',#706,1.);
#599=VECTOR('',#709,1.);
#600=VECTOR('',#710,1.);
#601=VECTOR('',#711,1.);
#602=VECTOR('',#712,1.);
#603=VECTOR('',#715,1.);
#604=VECTOR('',#716,1.);
#605=VECTOR('',#717,1.);
#606=VECTOR('',#718,1.);
#607=VECTOR('',#721,1.);
#608=VECTOR('',#722,1.);
#609=VECTOR('',#723,1.);
#610=VECTOR('',#724,1.);
#611=VECTOR('',#741,1.);
#612=VECTOR('',#754,1.);
#613=VECTOR('',#757,1.);
#614=VECTOR('',#760,1.);
#615=VECTOR('',#763,1.);
#616=VECTOR('',#764,1.);
#617=VECTOR('',#767,1.);
#618=VECTOR('',#770,1.);
#619=VECTOR('',#775,1.);
#620=VECTOR('',#776,1.);
#621=VECTOR('',#779,1.);
#622=VECTOR('',#782,1.);
#623=AXIS2_PLACEMENT_3D('',#793,#665,#666);
#624=AXIS2_PLACEMENT_3D('',#802,#671,#672);
#625=AXIS2_PLACEMENT_3D('',#807,#674,#675);
#626=AXIS2_PLACEMENT_3D('',#810,#677,#678);
#627=AXIS2_PLACEMENT_3D('',#815,#680,#681);
#628=AXIS2_PLACEMENT_3D('',#818,#683,#684);
#629=AXIS2_PLACEMENT_3D('',#827,#689,#690);
#630=AXIS2_PLACEMENT_3D('',#832,#692,#693);
#631=AXIS2_PLACEMENT_3D('',#835,#695,#696);
#632=AXIS2_PLACEMENT_3D('',#840,#698,#699);
#633=AXIS2_PLACEMENT_3D('',#843,#701,#702);
#634=AXIS2_PLACEMENT_3D('',#852,#707,#708);
#635=AXIS2_PLACEMENT_3D('',#861,#713,#714);
#636=AXIS2_PLACEMENT_3D('',#868,#719,#720);
#637=AXIS2_PLACEMENT_3D('',#877,#725,#726);
#638=AXIS2_PLACEMENT_3D('',#878,#727,#728);
#639=AXIS2_PLACEMENT_3D('',#879,#729,#730);
#640=AXIS2_PLACEMENT_3D('',#880,#731,#732);
#641=AXIS2_PLACEMENT_3D('',#881,#733,#734);
#642=AXIS2_PLACEMENT_3D('',#883,#735,#736);
#643=AXIS2_PLACEMENT_3D('',#885,#737,#738);
#644=AXIS2_PLACEMENT_3D('',#886,#739,#740);
#645=AXIS2_PLACEMENT_3D('',#889,#742,#743);
#646=AXIS2_PLACEMENT_3D('',#890,#744,#745);
#647=AXIS2_PLACEMENT_3D('',#891,#746,#747);
#648=AXIS2_PLACEMENT_3D('',#892,#748,#749);
#649=AXIS2_PLACEMENT_3D('',#893,#750,#751);
#650=AXIS2_PLACEMENT_3D('',#894,#752,#753);
#651=AXIS2_PLACEMENT_3D('',#897,#755,#756);
#652=AXIS2_PLACEMENT_3D('',#899,#758,#759);
#653=AXIS2_PLACEMENT_3D('',#901,#761,#762);
#654=AXIS2_PLACEMENT_3D('',#904,#765,#766);
#655=AXIS2_PLACEMENT_3D('',#906,#768,#769);
#656=AXIS2_PLACEMENT_3D('',#908,#771,#772);
#657=AXIS2_PLACEMENT_3D('',#909,#773,#774);
#658=AXIS2_PLACEMENT_3D('',#912,#777,#778);
#659=AXIS2_PLACEMENT_3D('',#914,#780,#781);
#660=AXIS2_PLACEMENT_3D('',#916,#783,#784);
#661=AXIS2_PLACEMENT_3D('',#917,#785,#786);
#662=AXIS2_PLACEMENT_3D('',#918,#787,#788);
#663=AXIS2_PLACEMENT_3D('',#919,#789,#790);
#664=AXIS2_PLACEMENT_3D('',#920,#791,#792);
#665=DIRECTION('',(0.,0.,1.));
#666=DIRECTION('',(1.,0.,0.));
#667=DIRECTION('',(7.90119532621063E-18,1.82625510946394E-16,-1.));
#668=DIRECTION('',(0.707106781186549,0.707106781186546,1.34722726002496E-16));
#669=DIRECTION('',(7.90119532621063E-18,1.82625510946394E-16,-1.));
#670=DIRECTION('',(0.707106781186549,0.707106781186546,0.));
#671=DIRECTION('',(-0.707106781186546,0.707106781186549,1.23548748413211E-16));
#672=DIRECTION('',(-0.707106781186549,-0.707106781186545,0.));
#673=DIRECTION('',(-3.22415041239549E-16,-4.97139356859732E-16,1.));
#674=DIRECTION('',(-0.707106781186546,0.707106781186549,1.23548748413211E-16));
#675=DIRECTION('',(-0.707106781186549,-0.707106781186546,0.));
#676=DIRECTION('',(1.58504161619693E-16,3.33228477239876E-16,-1.));
#677=DIRECTION('',(0.707106781186546,-0.707106781186549,-1.23548748413211E-16));
#678=DIRECTION('',(-0.707106781186549,-0.707106781186547,0.));
#679=DIRECTION('',(-2.40459601429623E-16,-4.15183917049805E-16,1.));
#680=DIRECTION('',(0.707106781186546,-0.707106781186549,-1.23548748413211E-16));
#681=DIRECTION('',(-0.707106781186548,-0.707106781186546,0.));
#682=DIRECTION('',(1.58504161619696E-16,3.33228477239879E-16,-1.));
#683=DIRECTION('',(-0.707106781186546,0.707106781186549,1.23548748413211E-16));
#684=DIRECTION('',(-0.707106781186549,-0.707106781186546,0.));
#685=DIRECTION('',(7.90119532621063E-18,1.82625510946394E-16,-1.));
#686=DIRECTION('',(-0.707106781186549,-0.707106781186546,0.));
#687=DIRECTION('',(7.90119532621063E-18,1.82625510946394E-16,-1.));
#688=DIRECTION('',(-0.707106781186549,-0.707106781186546,0.));
#689=DIRECTION('',(-0.707106781186546,0.707106781186549,1.23548748413211E-16));
#690=DIRECTION('',(-0.707106781186549,-0.707106781186546,0.));
#691=DIRECTION('',(-4.37095678986282E-16,-3.82458719112997E-16,1.));
#692=DIRECTION('',(-0.707106781186546,0.707106781186549,1.23548748413211E-16));
#693=DIRECTION('',(-0.707106781186549,-0.707106781186546,0.));
#694=DIRECTION('',(2.18547839493141E-16,2.73184799366426E-16,-1.));
#695=DIRECTION('',(0.707106781186539,-0.707106781186556,-1.23548748413212E-16));
#696=DIRECTION('',(0.707106781186556,0.707106781186538,0.));
#697=DIRECTION('',(4.91732638859567E-16,0.,-1.));
#698=DIRECTION('',(0.707106781186539,-0.707106781186556,-1.23548748413212E-16));
#699=DIRECTION('',(0.707106781186555,0.70710678118654,0.));
#700=DIRECTION('',(-4.37095678986282E-16,-2.18547839493141E-16,1.));
#701=DIRECTION('',(0.707106781186546,-0.707106781186549,-1.23548748413211E-16));
#702=DIRECTION('',(0.707106781186549,0.707106781186546,0.));
#703=DIRECTION('',(-0.707106781186547,0.707106781186548,0.));
#704=DIRECTION('',(-7.90119532621061E-18,-1.82625510946394E-16,1.));
#705=DIRECTION('',(-0.707106781186547,0.707106781186548,0.));
#706=DIRECTION('',(7.90119532621063E-18,1.82625510946394E-16,-1.));
#707=DIRECTION('',(-0.707106781186548,-0.707106781186547,-1.34722726002496E-16));
#708=DIRECTION('',(0.707106781186547,-0.707106781186548,0.));
#709=DIRECTION('',(0.707106781186549,0.707106781186546,0.));
#710=DIRECTION('',(7.90119532621064E-18,1.82625510946394E-16,-1.));
#711=DIRECTION('',(0.707106781186549,0.707106781186546,0.));
#712=DIRECTION('',(-7.90119532621065E-18,-1.82625510946394E-16,1.));
#713=DIRECTION('',(-0.707106781186546,0.707106781186549,1.23548748413211E-16));
#714=DIRECTION('',(-0.707106781186549,-0.707106781186546,0.));
#715=DIRECTION('',(-0.707106781186548,0.707106781186547,0.));
#716=DIRECTION('',(7.90119532621064E-18,1.82625510946394E-16,-1.));
#717=DIRECTION('',(-0.707106781186548,0.707106781186547,0.));
#718=DIRECTION('',(0.707106781186546,-0.707106781186549,0.));
#719=DIRECTION('',(-0.707106781186547,-0.707106781186548,-1.34722726002496E-16));
#720=DIRECTION('',(0.707106781186548,-0.707106781186547,0.));
#721=DIRECTION('',(-0.584621166069296,-0.811306410786811,0.));
#722=DIRECTION('',(7.90119532621064E-18,1.82625510946394E-16,-1.));
#723=DIRECTION('',(-0.584621166069296,-0.811306410786811,0.));
#724=DIRECTION('',(7.90119532621063E-18,1.82625510946394E-16,-1.));
#725=DIRECTION('',(0.81130641078681,-0.584621166069296,-1.00356448742448E-16));
#726=DIRECTION('',(0.584621166069296,0.811306410786811,0.));
#727=DIRECTION('',(-7.90119532621065E-18,-1.82625510946394E-16,1.));
#728=DIRECTION('',(-0.707106781186546,0.707106781186549,0.));
#729=DIRECTION('',(-7.90119532621065E-18,-1.82625510946394E-16,1.));
#730=DIRECTION('',(-0.707106781186546,0.707106781186549,0.));
#731=DIRECTION('',(7.90119532621063E-18,1.82625510946394E-16,-1.));
#732=DIRECTION('',(0.,1.,0.));
#733=DIRECTION('',(-7.90119532621065E-18,-1.82625510946394E-16,1.));
#734=DIRECTION('',(-0.707106781186546,0.707106781186549,0.));
#735=DIRECTION('',(-7.90119532621065E-18,-1.82625510946394E-16,1.));
#736=DIRECTION('',(-0.707106781186546,0.707106781186549,0.));
#737=DIRECTION('',(7.90119532621063E-18,1.82625510946394E-16,-1.));
#738=DIRECTION('',(0.,1.,0.));
#739=DIRECTION('',(-7.90119532621065E-18,-1.82625510946394E-16,1.));
#740=DIRECTION('',(0.,-1.,0.));
#741=DIRECTION('',(-0.707106781186547,0.707106781186548,1.2354874841321E-16));
#742=DIRECTION('',(7.90119532621065E-18,1.82625510946394E-16,-1.));
#743=DIRECTION('',(0.,-1.,0.));
#744=DIRECTION('',(7.90119532621065E-18,1.82625510946394E-16,-1.));
#745=DIRECTION('',(0.,-1.,0.));
#746=DIRECTION('',(-7.90119532621065E-18,-1.82625510946394E-16,1.));
#747=DIRECTION('',(0.,-1.,-1.66533453693773E-16));
#748=DIRECTION('',(7.90119532621065E-18,1.82625510946394E-16,-1.));
#749=DIRECTION('',(0.,-1.,0.));
#750=DIRECTION('',(-7.90119532621065E-18,-1.82625510946394E-16,1.));
#751=DIRECTION('',(0.,-1.,0.));
#752=DIRECTION('',(-7.90119532621065E-18,-1.82625510946394E-16,1.));
#753=DIRECTION('',(0.,-1.,0.));
#754=DIRECTION('',(-0.707106781186547,0.707106781186548,1.2354874841321E-16));
#755=DIRECTION('',(-7.90119532621065E-18,-1.82625510946394E-16,1.));
#756=DIRECTION('',(0.,-1.,-1.66533453693773E-16));
#757=DIRECTION('',(-0.707106781186547,0.707106781186548,0.));
#758=DIRECTION('',(0.,0.,1.));
#759=DIRECTION('',(1.,0.,0.));
#760=DIRECTION('',(-7.9011953262106E-18,-1.82625510946394E-16,1.));
#761=DIRECTION('',(-0.707106781186548,-0.707106781186547,-1.34722726002496E-16));
#762=DIRECTION('',(0.707106781186547,-0.707106781186548,0.));
#763=DIRECTION('',(-0.707106781186539,0.707106781186556,1.23548748413212E-16));
#764=DIRECTION('',(-0.707106781186539,0.707106781186556,1.23548748413212E-16));
#765=DIRECTION('',(0.707106781186556,0.707106781186539,5.79512472447259E-16));
#766=DIRECTION('',(-0.707106781186539,0.707106781186556,0.));
#767=DIRECTION('',(-0.707106781186539,0.707106781186556,1.23548748413212E-16));
#768=DIRECTION('',(0.707106781186539,-0.707106781186556,-1.23548748413212E-16));
#769=DIRECTION('',(0.707106781186558,0.707106781186541,0.));
#770=DIRECTION('',(-0.707106781186539,0.707106781186556,1.23548748413212E-16));
#771=DIRECTION('',(-0.707106781186556,-0.707106781186539,-3.47707483468355E-16));
#772=DIRECTION('',(0.707106781186539,-0.707106781186556,0.));
#773=DIRECTION('',(0.707106781186539,-0.707106781186556,-1.23548748413212E-16));
#774=DIRECTION('',(0.707106781186557,0.70710678118654,0.));
#775=DIRECTION('',(-0.707106781186539,0.707106781186556,1.23548748413212E-16));
#776=DIRECTION('',(-0.707106781186539,0.707106781186556,1.23548748413212E-16));
#777=DIRECTION('',(0.707106781186539,-0.707106781186556,-1.23548748413212E-16));
#778=DIRECTION('',(0.707106781186555,0.707106781186538,0.));
#779=DIRECTION('',(-0.707106781186539,0.707106781186556,1.23548748413212E-16));
#780=DIRECTION('',(-0.707106781186556,-0.707106781186539,-3.4770748346836E-16));
#781=DIRECTION('',(0.707106781186539,-0.707106781186556,0.));
#782=DIRECTION('',(-0.707106781186539,0.707106781186556,1.23548748413212E-16));
#783=DIRECTION('',(0.707106781186556,0.707106781186539,4.63609977957809E-16));
#784=DIRECTION('',(-0.707106781186539,0.707106781186556,0.));
#785=DIRECTION('',(0.707106781186539,-0.707106781186556,-1.23548748413212E-16));
#786=DIRECTION('',(0.707106781186554,0.707106781186538,0.));
#787=DIRECTION('',(-7.90119532621064E-18,-1.82625510946394E-16,1.));
#788=DIRECTION('',(0.,-1.,0.));
#789=DIRECTION('',(7.90119532621064E-18,1.82625510946394E-16,-1.));
#790=DIRECTION('',(0.,1.,0.));
#791=DIRECTION('',(7.90119532621063E-18,1.82625510946394E-16,-1.));
#792=DIRECTION('',(0.,1.,0.));
#793=CARTESIAN_POINT('',(0.,0.,0.));
#794=CARTESIAN_POINT('',(-2.28228643230287,1.11556024334508,14.0195933202079));
#795=CARTESIAN_POINT('',(-2.28228643230287,1.11556024334508,18.0195933202079));
#796=CARTESIAN_POINT('',(-2.28228643230287,1.11556024334508,14.0195933202079));
#797=CARTESIAN_POINT('',(-1.11556024334506,2.28228643230289,18.0195933202079));
#798=CARTESIAN_POINT('',(-1.11556024334506,2.28228643230289,18.0195933202079));
#799=CARTESIAN_POINT('',(-1.11556024334506,2.28228643230289,14.0195933202079));
#800=CARTESIAN_POINT('',(-1.11556024334506,2.28228643230289,14.0195933202079));
#801=CARTESIAN_POINT('',(-1.11556024334506,2.28228643230289,14.0195933202079));
#802=CARTESIAN_POINT('',(-2.03585971905937,1.36198695658858,17.0195933202079));
#803=CARTESIAN_POINT('',(-2.1277836006136,1.27006307503434,17.0195933202079));
#804=CARTESIAN_POINT('',(-1.94393583750512,1.45391083814283,17.0195933202079));
#805=CARTESIAN_POINT('',(-2.1277836006136,1.27006307503435,14.5195933202079));
#806=CARTESIAN_POINT('',(-2.1277836006136,1.27006307503435,14.5195933202079));
#807=CARTESIAN_POINT('',(-2.03585971905937,1.36198695658858,14.5195933202079));
#808=CARTESIAN_POINT('',(-1.94393583750511,1.45391083814283,14.5195933202079));
#809=CARTESIAN_POINT('',(-1.9439358375051,1.45391083814285,17.0195933202079));
#810=CARTESIAN_POINT('',(-1.36198695658857,2.03585971905937,14.5195933202079));
#811=CARTESIAN_POINT('',(-1.45391083814282,1.94393583750512,14.5195933202079));
#812=CARTESIAN_POINT('',(-1.27006307503432,2.12778360061363,14.5195933202079));
#813=CARTESIAN_POINT('',(-1.27006307503432,2.12778360061363,14.5195933202079));
#814=CARTESIAN_POINT('',(-1.27006307503432,2.12778360061363,17.0195933202079));
#815=CARTESIAN_POINT('',(-1.36198695658857,2.03585971905937,17.0195933202079));
#816=CARTESIAN_POINT('',(-1.45391083814282,1.94393583750512,17.0195933202079));
#817=CARTESIAN_POINT('',(-1.45391083814282,1.94393583750512,17.0195933202079));
#818=CARTESIAN_POINT('',(-1.11556024334506,2.28228643230289,14.0195933202079));
#819=CARTESIAN_POINT('',(-0.850395200400105,2.01712138935793,14.0195933202079));
#820=CARTESIAN_POINT('',(-0.850395200400105,2.01712138935793,17.5195933202079));
#821=CARTESIAN_POINT('',(-0.850395200400105,2.01712138935793,14.0195933202079));
#822=CARTESIAN_POINT('',(-0.850395200400105,2.01712138935793,17.5195933202079));
#823=CARTESIAN_POINT('',(-2.01712138935792,0.850395200400123,17.5195933202079));
#824=CARTESIAN_POINT('',(-2.01712138935792,0.850395200400124,14.0195933202079));
#825=CARTESIAN_POINT('',(-2.01712138935792,0.850395200400124,14.0195933202079));
#826=CARTESIAN_POINT('',(-2.01712138935792,0.850395200400124,14.0195933202079));
#827=CARTESIAN_POINT('',(-1.77069467611436,1.09682191364357,14.5195933202079));
#828=CARTESIAN_POINT('',(-1.67877079456013,1.18874579519787,14.5195933202079));
#829=CARTESIAN_POINT('',(-1.86261855766867,1.00489803208937,14.5195933202079));
#830=CARTESIAN_POINT('',(-1.86261855766863,1.00489803208937,14.5195933202079));
#831=CARTESIAN_POINT('',(-1.86261855766863,1.00489803208937,17.0195933202079));
#832=CARTESIAN_POINT('',(-1.77069467611436,1.09682191364357,17.0195933202079));
#833=CARTESIAN_POINT('',(-1.67877079456011,1.18874579519782,17.0195933202079));
#834=CARTESIAN_POINT('',(-1.67877079456013,1.18874579519787,17.0195933202079));
#835=CARTESIAN_POINT('',(-1.09682191364361,1.77069467611441,14.5195933202079));
#836=CARTESIAN_POINT('',(-1.18874579519786,1.67877079456016,14.5195933202079));
#837=CARTESIAN_POINT('',(-1.00489803208935,1.86261855766866,14.5195933202079));
#838=CARTESIAN_POINT('',(-1.18874579519787,1.67877079456016,17.0195933202079));
#839=CARTESIAN_POINT('',(-1.18874579519787,1.67877079456016,17.0195933202079));
#840=CARTESIAN_POINT('',(-1.09682191364361,1.7706946761144,17.0195933202079));
#841=CARTESIAN_POINT('',(-1.00489803208937,1.86261855766867,17.0195933202079));
#842=CARTESIAN_POINT('',(-1.00489803208936,1.86261855766866,14.5195933202079));
#843=CARTESIAN_POINT('',(-2.01712138935792,0.850395200400124,14.0195933202079));
#844=CARTESIAN_POINT('',(-0.588127765486534,0.352617030470611,17.5195933202079));
#845=CARTESIAN_POINT('',(-0.588127765486534,0.352617030470611,17.5195933202079));
#846=CARTESIAN_POINT('',(-0.809051542141105,0.573540807125182,17.5195933202079));
#847=CARTESIAN_POINT('',(-0.809051542141105,0.573540807125182,18.0195933202079));
#848=CARTESIAN_POINT('',(-0.809051542141105,0.573540807125182,18.0195933202079));
#849=CARTESIAN_POINT('',(-0.588127765486534,0.352617030470611,18.0195933202079));
#850=CARTESIAN_POINT('',(-0.588127765486534,0.352617030470611,18.0195933202079));
#851=CARTESIAN_POINT('',(-0.588127765486534,0.352617030470611,18.0195933202079));
#852=CARTESIAN_POINT('',(-0.588127765486534,0.352617030470611,18.0195933202079));
#853=CARTESIAN_POINT('',(-1.23331561085303,0.997804875837111,18.0195933202079));
#854=CARTESIAN_POINT('',(-0.809051542141104,1.42206894454904,18.0195933202079));
#855=CARTESIAN_POINT('',(-0.744329183222124,1.48679130346802,18.0195933202079));
#856=CARTESIAN_POINT('',(-0.809051542141104,1.42206894454904,17.5195933202079));
#857=CARTESIAN_POINT('',(-0.809051542141104,1.42206894454904,17.5195933202079));
#858=CARTESIAN_POINT('',(-1.23331561085303,0.997804875837111,17.5195933202079));
#859=CARTESIAN_POINT('',(-0.744329183222124,1.48679130346802,17.5195933202079));
#860=CARTESIAN_POINT('',(-0.744329183222124,1.48679130346802,18.0195933202079));
#861=CARTESIAN_POINT('',(-1.23331561085303,0.997804875837111,18.0195933202079));
#862=CARTESIAN_POINT('',(-0.532197148866158,1.69892333782398,18.0195933202079));
#863=CARTESIAN_POINT('',(-0.744329183222123,1.91105537217995,18.0195933202079));
#864=CARTESIAN_POINT('',(-0.744329183222123,1.91105537217995,18.0195933202079));
#865=CARTESIAN_POINT('',(-0.744329183222123,1.91105537217995,17.5195933202079));
#866=CARTESIAN_POINT('',(-0.532197148866158,1.69892333782398,17.5195933202079));
#867=CARTESIAN_POINT('',(-0.850395200400105,2.01712138935793,14.0195933202079));
#868=CARTESIAN_POINT('',(-0.532197148866158,1.69892333782398,18.0195933202079));
#869=CARTESIAN_POINT('',(-2.01712138935792,0.850395200400123,18.0195933202079));
#870=CARTESIAN_POINT('',(-2.16632415631773,0.643339472063259,18.0195933202079));
#871=CARTESIAN_POINT('',(-2.48614425545323,0.199510011574046,18.0195933202079));
#872=CARTESIAN_POINT('',(-2.16632415631773,0.643339472063259,18.0195933202079));
#873=CARTESIAN_POINT('',(-2.16632415631773,0.64333947206326,17.5195933202079));
#874=CARTESIAN_POINT('',(-2.01712138935792,0.850395200400123,17.5195933202079));
#875=CARTESIAN_POINT('',(-2.48614425545323,0.199510011574046,17.5195933202079));
#876=CARTESIAN_POINT('',(-2.48614425545323,0.199510011574046,18.0195933202079));
#877=CARTESIAN_POINT('',(-2.01712138935792,0.850395200400123,18.0195933202079));
#878=CARTESIAN_POINT('',(-1.47201124196972,-0.531266446012579,17.5195933202079));
#879=CARTESIAN_POINT('',(-1.47201124196972,-0.531266446012579,18.0195933202079));
#880=CARTESIAN_POINT('',(-1.47201124196972,-0.531266446012579,18.0195933202079));
#881=CARTESIAN_POINT('',(-1.47201124196972,-0.531266446012579,18.0195933202079));
#882=CARTESIAN_POINT('',(-2.10787701495172,0.104599326969425,18.0195933202079));
#883=CARTESIAN_POINT('',(-1.47201124196972,-0.531266446012579,17.5195933202079));
#884=CARTESIAN_POINT('',(-2.10787701495172,0.104599326969425,17.5195933202079));
#885=CARTESIAN_POINT('',(-1.47201124196972,-0.531266446012579,18.0195933202079));
#886=CARTESIAN_POINT('',(-0.956461217578087,1.69892333782398,18.0195933202079));
#887=CARTESIAN_POINT('',(-2.28228643230287,1.11556024334508,18.0195933202079));
#888=CARTESIAN_POINT('',(-2.1975840451978,1.03085785624001,18.0195933202079));
#889=CARTESIAN_POINT('',(-2.40971607955377,0.818725821884048,18.0195933202079));
#890=CARTESIAN_POINT('',(-0.384787473429176,0.99780487583711,18.0195933202079));
#891=CARTESIAN_POINT('',(-1.47201124196972,-0.531266446012579,18.0195933202079));
#892=CARTESIAN_POINT('',(-0.956461217578087,1.69892333782398,17.5195933202079));
#893=CARTESIAN_POINT('',(-0.384787473429176,0.99780487583711,17.5195933202079));
#894=CARTESIAN_POINT('',(-2.40971607955377,0.818725821884048,17.5195933202079));
#895=CARTESIAN_POINT('',(-2.1975840451978,1.03085785624001,17.5195933202079));
#896=CARTESIAN_POINT('',(-2.28228643230287,1.11556024334508,17.5195933202079));
#897=CARTESIAN_POINT('',(-1.47201124196972,-0.531266446012579,17.5195933202079));
#898=CARTESIAN_POINT('',(-2.28228643230287,1.11556024334508,14.0195933202079));
#899=CARTESIAN_POINT('',(2.76541836417372E-17,6.39189288312379E-16,14.0195933202079));
#900=CARTESIAN_POINT('',(-2.1975840451978,1.03085785624001,14.0195933202079));
#901=CARTESIAN_POINT('',(-2.28228643230287,1.11556024334508,14.0195933202079));
#902=CARTESIAN_POINT('',(-4.48775248282362,3.63003195724441,17.0195933202079));
#903=CARTESIAN_POINT('',(-4.48775248282362,3.63003195724441,14.5195933202079));
#904=CARTESIAN_POINT('',(-4.48775248282362,3.63003195724441,14.5195933202079));
#905=CARTESIAN_POINT('',(-4.3039047197151,3.81387972035287,17.0195933202079));
#906=CARTESIAN_POINT('',(-4.39582860126935,3.72195583879862,17.0195933202079));
#907=CARTESIAN_POINT('',(-4.30390471971512,3.81387972035292,14.5195933202079));
#908=CARTESIAN_POINT('',(-4.30390471971512,3.81387972035292,17.0195933202079));
#909=CARTESIAN_POINT('',(-4.39582860126935,3.72195583879862,14.5195933202079));
#910=CARTESIAN_POINT('',(-3.81387972035285,4.3039047197152,14.5195933202079));
#911=CARTESIAN_POINT('',(-3.63003195724434,4.4877524828237,14.5195933202079));
#912=CARTESIAN_POINT('',(-3.72195583879859,4.39582860126945,14.5195933202079));
#913=CARTESIAN_POINT('',(-3.81387972035285,4.3039047197152,17.0195933202079));
#914=CARTESIAN_POINT('',(-3.81387972035285,4.3039047197152,17.0195933202079));
#915=CARTESIAN_POINT('',(-3.63003195724435,4.48775248282371,17.0195933202079));
#916=CARTESIAN_POINT('',(-3.63003195724435,4.48775248282371,14.5195933202079));
#917=CARTESIAN_POINT('',(-3.72195583879859,4.39582860126945,17.0195933202079));
#918=CARTESIAN_POINT('',(-0.384787473429176,0.99780487583711,18.0195933202079));
#919=CARTESIAN_POINT('',(-0.956461217578087,1.69892333782398,18.0195933202079));
#920=CARTESIAN_POINT('',(-2.40971607955377,0.818725821884048,18.0195933202079));
#921=MECHANICAL_DESIGN_GEOMETRIC_PRESENTATION_REPRESENTATION('',(#52,#31,
#32,#33,#34,#35,#36,#37,#38,#39,#40,#41,#42,#43,#44,#45,#46,#47,#48,#49,
#50),#922);
#922=(
GEOMETRIC_REPRESENTATION_CONTEXT(3)
GLOBAL_UNCERTAINTY_ASSIGNED_CONTEXT((#923))
GLOBAL_UNIT_ASSIGNED_CONTEXT((#928,#925,#924))
REPRESENTATION_CONTEXT('actuator_mount_revison_2',
'TOP_LEVEL_ASSEMBLY_PART')
);
#923=UNCERTAINTY_MEASURE_WITH_UNIT(LENGTH_MEASURE(7.8740157480315E-7),#928,
'DISTANCE_ACCURACY_VALUE','Maximum Tolerance applied to model');
#924=(
NAMED_UNIT(*)
SI_UNIT($,.STERADIAN.)
SOLID_ANGLE_UNIT()
);
#925=(
CONVERSION_BASED_UNIT('DEGREE',#926)
NAMED_UNIT(#930)
PLANE_ANGLE_UNIT()
);
#926=PLANE_ANGLE_MEASURE_WITH_UNIT(PLANE_ANGLE_MEASURE(0.0174532925),#927);
#927=(
NAMED_UNIT(*)
PLANE_ANGLE_UNIT()
SI_UNIT($,.RADIAN.)
);
#928=(
CONVERSION_BASED_UNIT('INCH',#931)
LENGTH_UNIT()
NAMED_UNIT(#929)
);
#929=DIMENSIONAL_EXPONENTS(1.,0.,0.,0.,0.,0.,0.);
#930=DIMENSIONAL_EXPONENTS(0.,0.,0.,0.,0.,0.,0.);
#931=LENGTH_MEASURE_WITH_UNIT(LENGTH_MEASURE(25.4),#932);
#932=(
LENGTH_UNIT()
NAMED_UNIT(*)
SI_UNIT(.MILLI.,.METRE.)
);
ENDSEC;
END-ISO-10303-21;
