ISO-10303-21;
HEADER;
/* Generated by software containing ST-Developer
 * from STEP Tools, Inc. (www.steptools.com) 
 */
/* OPTION: using custom schema-name function */

FILE_DESCRIPTION(
/* description */ (''),
/* implementation_level */ '2;1');

FILE_NAME(
/* name */ 'actuator_mount.stp',
/* time_stamp */ '2026-08-27T18:34:23-04:00',
/* author */ (''),
/* organization */ (''),
/* preprocessor_version */ 'ST-DEVELOPER v18.102',
/* originating_system */ 'SIEMENS PLM Software NX 2027',
/* authorisation */ '');

FILE_SCHEMA (('AUTOMOTIVE_DESIGN { 1 0 10303 214 3 1 1 1 }'));
ENDSEC;

DATA;
#10=PROPERTY_DEFINITION_REPRESENTATION(#14,#12);
#11=PROPERTY_DEFINITION_REPRESENTATION(#15,#13);
#12=REPRESENTATION('',(#16),#1293);
#13=REPRESENTATION('',(#17),#1293);
#14=PROPERTY_DEFINITION('pmi validation property','',#21);
#15=PROPERTY_DEFINITION('pmi validation property','',#21);
#16=VALUE_REPRESENTATION_ITEM('number of annotations',COUNT_MEASURE(0.));
#17=VALUE_REPRESENTATION_ITEM('number of views',COUNT_MEASURE(0.));
#18=SHAPE_REPRESENTATION_RELATIONSHIP('None',
'relationship between A_objects-None and A_objects-None',#30,#19);
#19=ADVANCED_BREP_SHAPE_REPRESENTATION('A_objects-None',(#244),#1293);
#20=SHAPE_DEFINITION_REPRESENTATION(#21,#30);
#21=PRODUCT_DEFINITION_SHAPE('','',#22);
#22=PRODUCT_DEFINITION(' ','',#24,#23);
#23=PRODUCT_DEFINITION_CONTEXT('part definition',#29,'design');
#24=PRODUCT_DEFINITION_FORMATION_WITH_SPECIFIED_SOURCE(' ',' ',#26,
 .NOT_KNOWN.);
#25=PRODUCT_RELATED_PRODUCT_CATEGORY('part','',(#26));
#26=PRODUCT('A_objects','A_objects',' ',(#27));
#27=PRODUCT_CONTEXT(' ',#29,'mechanical');
#28=APPLICATION_PROTOCOL_DEFINITION('international standard',
'automotive_design',2010,#29);
#29=APPLICATION_CONTEXT(
'core data for automotive mechanical design processes');
#30=SHAPE_REPRESENTATION('A_objects-None',(#872),#1293);
#31=OVER_RIDING_STYLED_ITEM('',(#63),#277,#61);
#32=OVER_RIDING_STYLED_ITEM('',(#64),#278,#61);
#33=OVER_RIDING_STYLED_ITEM('',(#65),#279,#61);
#34=OVER_RIDING_STYLED_ITEM('',(#66),#280,#61);
#35=OVER_RIDING_STYLED_ITEM('',(#67),#281,#61);
#36=OVER_RIDING_STYLED_ITEM('',(#68),#282,#61);
#37=OVER_RIDING_STYLED_ITEM('',(#69),#283,#61);
#38=OVER_RIDING_STYLED_ITEM('',(#70),#284,#61);
#39=OVER_RIDING_STYLED_ITEM('',(#71),#285,#61);
#40=OVER_RIDING_STYLED_ITEM('',(#72),#286,#61);
#41=OVER_RIDING_STYLED_ITEM('',(#73),#287,#61);
#42=OVER_RIDING_STYLED_ITEM('',(#74),#288,#61);
#43=OVER_RIDING_STYLED_ITEM('',(#75),#289,#61);
#44=OVER_RIDING_STYLED_ITEM('',(#76),#290,#61);
#45=OVER_RIDING_STYLED_ITEM('',(#77),#291,#61);
#46=OVER_RIDING_STYLED_ITEM('',(#78),#292,#61);
#47=OVER_RIDING_STYLED_ITEM('',(#79),#293,#61);
#48=OVER_RIDING_STYLED_ITEM('',(#80),#294,#61);
#49=OVER_RIDING_STYLED_ITEM('',(#81),#295,#61);
#50=OVER_RIDING_STYLED_ITEM('',(#82),#296,#61);
#51=OVER_RIDING_STYLED_ITEM('',(#83),#297,#61);
#52=OVER_RIDING_STYLED_ITEM('',(#84),#298,#61);
#53=OVER_RIDING_STYLED_ITEM('',(#85),#299,#61);
#54=OVER_RIDING_STYLED_ITEM('',(#86),#300,#61);
#55=OVER_RIDING_STYLED_ITEM('',(#87),#301,#61);
#56=OVER_RIDING_STYLED_ITEM('',(#88),#302,#61);
#57=OVER_RIDING_STYLED_ITEM('',(#89),#303,#61);
#58=OVER_RIDING_STYLED_ITEM('',(#90),#304,#61);
#59=OVER_RIDING_STYLED_ITEM('',(#91),#305,#61);
#60=PRESENTATION_LAYER_ASSIGNMENT('1','Layer 1',(#244));
#61=STYLED_ITEM('',(#62),#244);
#62=PRESENTATION_STYLE_ASSIGNMENT((#92));
#63=PRESENTATION_STYLE_ASSIGNMENT((#93));
#64=PRESENTATION_STYLE_ASSIGNMENT((#94));
#65=PRESENTATION_STYLE_ASSIGNMENT((#95));
#66=PRESENTATION_STYLE_ASSIGNMENT((#96));
#67=PRESENTATION_STYLE_ASSIGNMENT((#97));
#68=PRESENTATION_STYLE_ASSIGNMENT((#98));
#69=PRESENTATION_STYLE_ASSIGNMENT((#99));
#70=PRESENTATION_STYLE_ASSIGNMENT((#100));
#71=PRESENTATION_STYLE_ASSIGNMENT((#101));
#72=PRESENTATION_STYLE_ASSIGNMENT((#102));
#73=PRESENTATION_STYLE_ASSIGNMENT((#103));
#74=PRESENTATION_STYLE_ASSIGNMENT((#104));
#75=PRESENTATION_STYLE_ASSIGNMENT((#105));
#76=PRESENTATION_STYLE_ASSIGNMENT((#106));
#77=PRESENTATION_STYLE_ASSIGNMENT((#107));
#78=PRESENTATION_STYLE_ASSIGNMENT((#108));
#79=PRESENTATION_STYLE_ASSIGNMENT((#109));
#80=PRESENTATION_STYLE_ASSIGNMENT((#110));
#81=PRESENTATION_STYLE_ASSIGNMENT((#111));
#82=PRESENTATION_STYLE_ASSIGNMENT((#112));
#83=PRESENTATION_STYLE_ASSIGNMENT((#113));
#84=PRESENTATION_STYLE_ASSIGNMENT((#114));
#85=PRESENTATION_STYLE_ASSIGNMENT((#115));
#86=PRESENTATION_STYLE_ASSIGNMENT((#116));
#87=PRESENTATION_STYLE_ASSIGNMENT((#117));
#88=PRESENTATION_STYLE_ASSIGNMENT((#118));
#89=PRESENTATION_STYLE_ASSIGNMENT((#119));
#90=PRESENTATION_STYLE_ASSIGNMENT((#120));
#91=PRESENTATION_STYLE_ASSIGNMENT((#121));
#92=SURFACE_STYLE_USAGE(.BOTH.,#122);
#93=SURFACE_STYLE_USAGE(.BOTH.,#123);
#94=SURFACE_STYLE_USAGE(.BOTH.,#124);
#95=SURFACE_STYLE_USAGE(.BOTH.,#125);
#96=SURFACE_STYLE_USAGE(.BOTH.,#126);
#97=SURFACE_STYLE_USAGE(.BOTH.,#127);
#98=SURFACE_STYLE_USAGE(.BOTH.,#128);
#99=SURFACE_STYLE_USAGE(.BOTH.,#129);
#100=SURFACE_STYLE_USAGE(.BOTH.,#130);
#101=SURFACE_STYLE_USAGE(.BOTH.,#131);
#102=SURFACE_STYLE_USAGE(.BOTH.,#132);
#103=SURFACE_STYLE_USAGE(.BOTH.,#133);
#104=SURFACE_STYLE_USAGE(.BOTH.,#134);
#105=SURFACE_STYLE_USAGE(.BOTH.,#135);
#106=SURFACE_STYLE_USAGE(.BOTH.,#136);
#107=SURFACE_STYLE_USAGE(.BOTH.,#137);
#108=SURFACE_STYLE_USAGE(.BOTH.,#138);
#109=SURFACE_STYLE_USAGE(.BOTH.,#139);
#110=SURFACE_STYLE_USAGE(.BOTH.,#140);
#111=SURFACE_STYLE_USAGE(.BOTH.,#141);
#112=SURFACE_STYLE_USAGE(.BOTH.,#142);
#113=SURFACE_STYLE_USAGE(.BOTH.,#143);
#114=SURFACE_STYLE_USAGE(.BOTH.,#144);
#115=SURFACE_STYLE_USAGE(.BOTH.,#145);
#116=SURFACE_STYLE_USAGE(.BOTH.,#146);
#117=SURFACE_STYLE_USAGE(.BOTH.,#147);
#118=SURFACE_STYLE_USAGE(.BOTH.,#148);
#119=SURFACE_STYLE_USAGE(.BOTH.,#149);
#120=SURFACE_STYLE_USAGE(.BOTH.,#150);
#121=SURFACE_STYLE_USAGE(.BOTH.,#151);
#122=SURFACE_SIDE_STYLE('',(#152));
#123=SURFACE_SIDE_STYLE('',(#153));
#124=SURFACE_SIDE_STYLE('',(#154));
#125=SURFACE_SIDE_STYLE('',(#155));
#126=SURFACE_SIDE_STYLE('',(#156));
#127=SURFACE_SIDE_STYLE('',(#157));
#128=SURFACE_SIDE_STYLE('',(#158));
#129=SURFACE_SIDE_STYLE('',(#159));
#130=SURFACE_SIDE_STYLE('',(#160));
#131=SURFACE_SIDE_STYLE('',(#161));
#132=SURFACE_SIDE_STYLE('',(#162));
#133=SURFACE_SIDE_STYLE('',(#163));
#134=SURFACE_SIDE_STYLE('',(#164));
#135=SURFACE_SIDE_STYLE('',(#165));
#136=SURFACE_SIDE_STYLE('',(#166));
#137=SURFACE_SIDE_STYLE('',(#167));
#138=SURFACE_SIDE_STYLE('',(#168));
#139=SURFACE_SIDE_STYLE('',(#169));
#140=SURFACE_SIDE_STYLE('',(#170));
#141=SURFACE_SIDE_STYLE('',(#171));
#142=SURFACE_SIDE_STYLE('',(#172));
#143=SURFACE_SIDE_STYLE('',(#173));
#144=SURFACE_SIDE_STYLE('',(#174));
#145=SURFACE_SIDE_STYLE('',(#175));
#146=SURFACE_SIDE_STYLE('',(#176));
#147=SURFACE_SIDE_STYLE('',(#177));
#148=SURFACE_SIDE_STYLE('',(#178));
#149=SURFACE_SIDE_STYLE('',(#179));
#150=SURFACE_SIDE_STYLE('',(#180));
#151=SURFACE_SIDE_STYLE('',(#181));
#152=SURFACE_STYLE_FILL_AREA(#182);
#153=SURFACE_STYLE_FILL_AREA(#183);
#154=SURFACE_STYLE_FILL_AREA(#184);
#155=SURFACE_STYLE_FILL_AREA(#185);
#156=SURFACE_STYLE_FILL_AREA(#186);
#157=SURFACE_STYLE_FILL_AREA(#187);
#158=SURFACE_STYLE_FILL_AREA(#188);
#159=SURFACE_STYLE_FILL_AREA(#189);
#160=SURFACE_STYLE_FILL_AREA(#190);
#161=SURFACE_STYLE_FILL_AREA(#191);
#162=SURFACE_STYLE_FILL_AREA(#192);
#163=SURFACE_STYLE_FILL_AREA(#193);
#164=SURFACE_STYLE_FILL_AREA(#194);
#165=SURFACE_STYLE_FILL_AREA(#195);
#166=SURFACE_STYLE_FILL_AREA(#196);
#167=SURFACE_STYLE_FILL_AREA(#197);
#168=SURFACE_STYLE_FILL_AREA(#198);
#169=SURFACE_STYLE_FILL_AREA(#199);
#170=SURFACE_STYLE_FILL_AREA(#200);
#171=SURFACE_STYLE_FILL_AREA(#201);
#172=SURFACE_STYLE_FILL_AREA(#202);
#173=SURFACE_STYLE_FILL_AREA(#203);
#174=SURFACE_STYLE_FILL_AREA(#204);
#175=SURFACE_STYLE_FILL_AREA(#205);
#176=SURFACE_STYLE_FILL_AREA(#206);
#177=SURFACE_STYLE_FILL_AREA(#207);
#178=SURFACE_STYLE_FILL_AREA(#208);
#179=SURFACE_STYLE_FILL_AREA(#209);
#180=SURFACE_STYLE_FILL_AREA(#210);
#181=SURFACE_STYLE_FILL_AREA(#211);
#182=FILL_AREA_STYLE('',(#212));
#183=FILL_AREA_STYLE('',(#213));
#184=FILL_AREA_STYLE('',(#214));
#185=FILL_AREA_STYLE('',(#215));
#186=FILL_AREA_STYLE('',(#216));
#187=FILL_AREA_STYLE('',(#217));
#188=FILL_AREA_STYLE('',(#218));
#189=FILL_AREA_STYLE('',(#219));
#190=FILL_AREA_STYLE('',(#220));
#191=FILL_AREA_STYLE('',(#221));
#192=FILL_AREA_STYLE('',(#222));
#193=FILL_AREA_STYLE('',(#223));
#194=FILL_AREA_STYLE('',(#224));
#195=FILL_AREA_STYLE('',(#225));
#196=FILL_AREA_STYLE('',(#226));
#197=FILL_AREA_STYLE('',(#227));
#198=FILL_AREA_STYLE('',(#228));
#199=FILL_AREA_STYLE('',(#229));
#200=FILL_AREA_STYLE('',(#230));
#201=FILL_AREA_STYLE('',(#231));
#202=FILL_AREA_STYLE('',(#232));
#203=FILL_AREA_STYLE('',(#233));
#204=FILL_AREA_STYLE('',(#234));
#205=FILL_AREA_STYLE('',(#235));
#206=FILL_AREA_STYLE('',(#236));
#207=FILL_AREA_STYLE('',(#237));
#208=FILL_AREA_STYLE('',(#238));
#209=FILL_AREA_STYLE('',(#239));
#210=FILL_AREA_STYLE('',(#240));
#211=FILL_AREA_STYLE('',(#241));
#212=FILL_AREA_STYLE_COLOUR('',#242);
#213=FILL_AREA_STYLE_COLOUR('',#243);
#214=FILL_AREA_STYLE_COLOUR('',#243);
#215=FILL_AREA_STYLE_COLOUR('',#243);
#216=FILL_AREA_STYLE_COLOUR('',#243);
#217=FILL_AREA_STYLE_COLOUR('',#243);
#218=FILL_AREA_STYLE_COLOUR('',#243);
#219=FILL_AREA_STYLE_COLOUR('',#243);
#220=FILL_AREA_STYLE_COLOUR('',#243);
#221=FILL_AREA_STYLE_COLOUR('',#243);
#222=FILL_AREA_STYLE_COLOUR('',#243);
#223=FILL_AREA_STYLE_COLOUR('',#243);
#224=FILL_AREA_STYLE_COLOUR('',#243);
#225=FILL_AREA_STYLE_COLOUR('',#243);
#226=FILL_AREA_STYLE_COLOUR('',#243);
#227=FILL_AREA_STYLE_COLOUR('',#243);
#228=FILL_AREA_STYLE_COLOUR('',#243);
#229=FILL_AREA_STYLE_COLOUR('',#243);
#230=FILL_AREA_STYLE_COLOUR('',#243);
#231=FILL_AREA_STYLE_COLOUR('',#243);
#232=FILL_AREA_STYLE_COLOUR('',#243);
#233=FILL_AREA_STYLE_COLOUR('',#243);
#234=FILL_AREA_STYLE_COLOUR('',#243);
#235=FILL_AREA_STYLE_COLOUR('',#243);
#236=FILL_AREA_STYLE_COLOUR('',#243);
#237=FILL_AREA_STYLE_COLOUR('',#243);
#238=FILL_AREA_STYLE_COLOUR('',#243);
#239=FILL_AREA_STYLE_COLOUR('',#243);
#240=FILL_AREA_STYLE_COLOUR('',#243);
#241=FILL_AREA_STYLE_COLOUR('',#243);
#242=COLOUR_RGB('medium purple',0.447058823529412,0.415686274509804,1.);
#243=COLOUR_RGB('strong blue',0.2,0.2,1.);
#244=MANIFOLD_SOLID_BREP('',#245);
#245=CLOSED_SHELL('',(#277,#278,#279,#280,#281,#282,#283,#284,#285,#286,
#287,#288,#289,#290,#291,#292,#293,#294,#295,#296,#297,#298,#299,#300,#301,
#302,#303,#304,#305,#306,#307,#308));
#246=FACE_BOUND('',#361,.T.);
#247=FACE_BOUND('',#362,.T.);
#248=FACE_BOUND('',#363,.T.);
#249=FACE_BOUND('',#364,.T.);
#250=FACE_BOUND('',#365,.T.);
#251=FACE_BOUND('',#366,.T.);
#252=FACE_BOUND('',#367,.T.);
#253=FACE_BOUND('',#368,.T.);
#254=FACE_BOUND('',#369,.T.);
#255=FACE_BOUND('',#370,.T.);
#256=FACE_BOUND('',#371,.T.);
#257=PLANE('',#876);
#258=PLANE('',#880);
#259=PLANE('',#884);
#260=PLANE('',#888);
#261=PLANE('',#889);
#262=PLANE('',#890);
#263=PLANE('',#891);
#264=PLANE('',#895);
#265=PLANE('',#899);
#266=PLANE('',#903);
#267=PLANE('',#906);
#268=PLANE('',#909);
#269=PLANE('',#914);
#270=PLANE('',#915);
#271=PLANE('',#916);
#272=PLANE('',#917);
#273=PLANE('',#919);
#274=PLANE('',#921);
#275=PLANE('',#923);
#276=PLANE('',#925);
#277=ADVANCED_FACE('',(#321),#309,.F.);
#278=ADVANCED_FACE('',(#322),#257,.F.);
#279=ADVANCED_FACE('',(#323),#310,.F.);
#280=ADVANCED_FACE('',(#324),#258,.F.);
#281=ADVANCED_FACE('',(#325),#311,.T.);
#282=ADVANCED_FACE('',(#326),#259,.F.);
#283=ADVANCED_FACE('',(#327),#312,.T.);
#284=ADVANCED_FACE('',(#328),#260,.F.);
#285=ADVANCED_FACE('',(#329),#261,.F.);
#286=ADVANCED_FACE('',(#330),#262,.F.);
#287=ADVANCED_FACE('',(#331),#263,.F.);
#288=ADVANCED_FACE('',(#332),#313,.T.);
#289=ADVANCED_FACE('',(#333),#264,.F.);
#290=ADVANCED_FACE('',(#246,#247),#265,.T.);
#291=ADVANCED_FACE('',(#248,#249),#266,.F.);
#292=ADVANCED_FACE('',(#250,#251),#267,.F.);
#293=ADVANCED_FACE('',(#252,#253),#268,.F.);
#294=ADVANCED_FACE('',(#254,#255,#256),#269,.F.);
#295=ADVANCED_FACE('',(#334),#270,.F.);
#296=ADVANCED_FACE('',(#335),#271,.T.);
#297=ADVANCED_FACE('',(#336),#272,.F.);
#298=ADVANCED_FACE('',(#337),#314,.F.);
#299=ADVANCED_FACE('',(#338),#273,.F.);
#300=ADVANCED_FACE('',(#339),#315,.F.);
#301=ADVANCED_FACE('',(#340),#274,.F.);
#302=ADVANCED_FACE('',(#341),#316,.F.);
#303=ADVANCED_FACE('',(#342),#275,.F.);
#304=ADVANCED_FACE('',(#343),#317,.F.);
#305=ADVANCED_FACE('',(#344),#276,.F.);
#306=ADVANCED_FACE('',(#345),#318,.F.);
#307=ADVANCED_FACE('',(#346),#319,.T.);
#308=ADVANCED_FACE('',(#347),#320,.F.);
#309=CYLINDRICAL_SURFACE('',#875,0.75175);
#310=CYLINDRICAL_SURFACE('',#879,0.75175);
#311=CYLINDRICAL_SURFACE('',#883,1.08562809112451);
#312=CYLINDRICAL_SURFACE('',#887,1.08562809112451);
#313=CYLINDRICAL_SURFACE('',#894,1.08562809112451);
#314=CYLINDRICAL_SURFACE('',#918,0.097999999999999);
#315=CYLINDRICAL_SURFACE('',#920,0.097999999999999);
#316=CYLINDRICAL_SURFACE('',#922,0.097999999999999);
#317=CYLINDRICAL_SURFACE('',#924,0.0980000000000025);
#318=CYLINDRICAL_SURFACE('',#926,0.75);
#319=CYLINDRICAL_SURFACE('',#927,0.3);
#320=CYLINDRICAL_SURFACE('',#928,0.3);
#321=FACE_OUTER_BOUND('',#348,.T.);
#322=FACE_OUTER_BOUND('',#349,.T.);
#323=FACE_OUTER_BOUND('',#350,.T.);
#324=FACE_OUTER_BOUND('',#351,.T.);
#325=FACE_OUTER_BOUND('',#352,.T.);
#326=FACE_OUTER_BOUND('',#353,.T.);
#327=FACE_OUTER_BOUND('',#354,.T.);
#328=FACE_OUTER_BOUND('',#355,.T.);
#329=FACE_OUTER_BOUND('',#356,.T.);
#330=FACE_OUTER_BOUND('',#357,.T.);
#331=FACE_OUTER_BOUND('',#358,.T.);
#332=FACE_OUTER_BOUND('',#359,.T.);
#333=FACE_OUTER_BOUND('',#360,.T.);
#334=FACE_OUTER_BOUND('',#372,.T.);
#335=FACE_OUTER_BOUND('',#373,.T.);
#336=FACE_OUTER_BOUND('',#374,.T.);
#337=FACE_OUTER_BOUND('',#375,.T.);
#338=FACE_OUTER_BOUND('',#376,.T.);
#339=FACE_OUTER_BOUND('',#377,.T.);
#340=FACE_OUTER_BOUND('',#378,.T.);
#341=FACE_OUTER_BOUND('',#379,.T.);
#342=FACE_OUTER_BOUND('',#380,.T.);
#343=FACE_OUTER_BOUND('',#381,.T.);
#344=FACE_OUTER_BOUND('',#382,.T.);
#345=FACE_OUTER_BOUND('',#383,.T.);
#346=FACE_OUTER_BOUND('',#384,.T.);
#347=FACE_OUTER_BOUND('',#385,.T.);
#348=EDGE_LOOP('',(#518,#519,#520,#521));
#349=EDGE_LOOP('',(#522,#523,#524,#525));
#350=EDGE_LOOP('',(#526,#527,#528,#529));
#351=EDGE_LOOP('',(#530,#531,#532,#533));
#352=EDGE_LOOP('',(#534,#535,#536,#537));
#353=EDGE_LOOP('',(#538,#539,#540,#541));
#354=EDGE_LOOP('',(#542,#543,#544,#545));
#355=EDGE_LOOP('',(#546,#547,#548,#549));
#356=EDGE_LOOP('',(#550,#551,#552,#553));
#357=EDGE_LOOP('',(#554,#555,#556,#557,#558,#559,#560,#561));
#358=EDGE_LOOP('',(#562,#563,#564,#565));
#359=EDGE_LOOP('',(#566,#567,#568,#569));
#360=EDGE_LOOP('',(#570,#571,#572,#573));
#361=EDGE_LOOP('',(#574,#575,#576,#577,#578,#579,#580,#581,#582,#583,#584,
#585,#586,#587));
#362=EDGE_LOOP('',(#588,#589,#590,#591));
#363=EDGE_LOOP('',(#592,#593,#594,#595,#596,#597,#598,#599,#600,#601,#602,
#603,#604,#605));
#364=EDGE_LOOP('',(#606,#607,#608,#609));
#365=EDGE_LOOP('',(#610,#611,#612,#613));
#366=EDGE_LOOP('',(#614,#615,#616,#617));
#367=EDGE_LOOP('',(#618,#619,#620,#621));
#368=EDGE_LOOP('',(#622,#623,#624,#625));
#369=EDGE_LOOP('',(#626,#627,#628,#629));
#370=EDGE_LOOP('',(#630,#631,#632,#633));
#371=EDGE_LOOP('',(#634,#635,#636,#637));
#372=EDGE_LOOP('',(#638,#639,#640,#641,#642,#643,#644,#645));
#373=EDGE_LOOP('',(#646,#647,#648,#649));
#374=EDGE_LOOP('',(#650,#651,#652,#653));
#375=EDGE_LOOP('',(#654,#655,#656,#657));
#376=EDGE_LOOP('',(#658,#659,#660,#661));
#377=EDGE_LOOP('',(#662,#663,#664,#665));
#378=EDGE_LOOP('',(#666,#667,#668,#669));
#379=EDGE_LOOP('',(#670,#671,#672,#673));
#380=EDGE_LOOP('',(#674,#675,#676,#677));
#381=EDGE_LOOP('',(#678,#679,#680,#681));
#382=EDGE_LOOP('',(#682,#683,#684,#685));
#383=EDGE_LOOP('',(#686,#687,#688,#689));
#384=EDGE_LOOP('',(#690,#691,#692,#693));
#385=EDGE_LOOP('',(#694,#695,#696,#697));
#386=LINE('',#1113,#452);
#387=LINE('',#1117,#453);
#388=LINE('',#1119,#454);
#389=LINE('',#1121,#455);
#390=LINE('',#1123,#456);
#391=LINE('',#1127,#457);
#392=LINE('',#1131,#458);
#393=LINE('',#1134,#459);
#394=LINE('',#1136,#460);
#395=LINE('',#1138,#461);
#396=LINE('',#1142,#462);
#397=LINE('',#1146,#463);
#398=LINE('',#1148,#464);
#399=LINE('',#1150,#465);
#400=LINE('',#1154,#466);
#401=LINE('',#1158,#467);
#402=LINE('',#1160,#468);
#403=LINE('',#1162,#469);
#404=LINE('',#1164,#470);
#405=LINE('',#1167,#471);
#406=LINE('',#1169,#472);
#407=LINE('',#1171,#473);
#408=LINE('',#1173,#474);
#409=LINE('',#1176,#475);
#410=LINE('',#1178,#476);
#411=LINE('',#1180,#477);
#412=LINE('',#1182,#478);
#413=LINE('',#1184,#479);
#414=LINE('',#1186,#480);
#415=LINE('',#1188,#481);
#416=LINE('',#1190,#482);
#417=LINE('',#1193,#483);
#418=LINE('',#1195,#484);
#419=LINE('',#1197,#485);
#420=LINE('',#1202,#486);
#421=LINE('',#1203,#487);
#422=LINE('',#1206,#488);
#423=LINE('',#1208,#489);
#424=LINE('',#1217,#490);
#425=LINE('',#1219,#491);
#426=LINE('',#1221,#492);
#427=LINE('',#1226,#493);
#428=LINE('',#1229,#494);
#429=LINE('',#1231,#495);
#430=LINE('',#1233,#496);
#431=LINE('',#1238,#497);
#432=LINE('',#1241,#498);
#433=LINE('',#1243,#499);
#434=LINE('',#1245,#500);
#435=LINE('',#1250,#501);
#436=LINE('',#1253,#502);
#437=LINE('',#1258,#503);
#438=LINE('',#1261,#504);
#439=LINE('',#1263,#505);
#440=LINE('',#1265,#506);
#441=LINE('',#1267,#507);
#442=LINE('',#1268,#508);
#443=LINE('',#1269,#509);
#444=LINE('',#1273,#510);
#445=LINE('',#1274,#511);
#446=LINE('',#1276,#512);
#447=LINE('',#1278,#513);
#448=LINE('',#1281,#514);
#449=LINE('',#1282,#515);
#450=LINE('',#1284,#516);
#451=LINE('',#1286,#517);
#452=VECTOR('',#933,1.);
#453=VECTOR('',#936,1.);
#454=VECTOR('',#939,1.);
#455=VECTOR('',#940,1.);
#456=VECTOR('',#941,1.);
#457=VECTOR('',#946,1.);
#458=VECTOR('',#951,1.);
#459=VECTOR('',#952,1.);
#460=VECTOR('',#953,1.);
#461=VECTOR('',#954,1.);
#462=VECTOR('',#959,1.);
#463=VECTOR('',#964,1.);
#464=VECTOR('',#965,1.);
#465=VECTOR('',#966,1.);
#466=VECTOR('',#971,1.);
#467=VECTOR('',#976,1.);
#468=VECTOR('',#977,1.);
#469=VECTOR('',#978,1.);
#470=VECTOR('',#981,1.);
#471=VECTOR('',#982,1.);
#472=VECTOR('',#983,1.);
#473=VECTOR('',#984,1.);
#474=VECTOR('',#987,1.);
#475=VECTOR('',#988,1.);
#476=VECTOR('',#989,1.);
#477=VECTOR('',#990,1.);
#478=VECTOR('',#991,1.);
#479=VECTOR('',#992,1.);
#480=VECTOR('',#993,1.);
#481=VECTOR('',#994,1.);
#482=VECTOR('',#997,1.);
#483=VECTOR('',#998,1.);
#484=VECTOR('',#999,1.);
#485=VECTOR('',#1000,1.);
#486=VECTOR('',#1009,1.);
#487=VECTOR('',#1010,1.);
#488=VECTOR('',#1015,1.);
#489=VECTOR('',#1016,1.);
#490=VECTOR('',#1029,1.);
#491=VECTOR('',#1030,1.);
#492=VECTOR('',#1033,1.);
#493=VECTOR('',#1036,1.);
#494=VECTOR('',#1039,1.);
#495=VECTOR('',#1040,1.);
#496=VECTOR('',#1043,1.);
#497=VECTOR('',#1046,1.);
#498=VECTOR('',#1049,1.);
#499=VECTOR('',#1050,1.);
#500=VECTOR('',#1053,1.);
#501=VECTOR('',#1056,1.);
#502=VECTOR('',#1059,1.);
#503=VECTOR('',#1062,1.);
#504=VECTOR('',#1065,1.);
#505=VECTOR('',#1066,1.);
#506=VECTOR('',#1067,1.);
#507=VECTOR('',#1070,1.);
#508=VECTOR('',#1071,1.);
#509=VECTOR('',#1072,1.);
#510=VECTOR('',#1079,1.);
#511=VECTOR('',#1080,1.);
#512=VECTOR('',#1083,1.);
#513=VECTOR('',#1086,1.);
#514=VECTOR('',#1091,1.);
#515=VECTOR('',#1092,1.);
#516=VECTOR('',#1095,1.);
#517=VECTOR('',#1098,1.);
#518=ORIENTED_EDGE('',*,*,#758,.F.);
#519=ORIENTED_EDGE('',*,*,#759,.F.);
#520=ORIENTED_EDGE('',*,*,#760,.T.);
#521=ORIENTED_EDGE('',*,*,#761,.T.);
#522=ORIENTED_EDGE('',*,*,#762,.F.);
#523=ORIENTED_EDGE('',*,*,#763,.F.);
#524=ORIENTED_EDGE('',*,*,#764,.T.);
#525=ORIENTED_EDGE('',*,*,#759,.T.);
#526=ORIENTED_EDGE('',*,*,#765,.F.);
#527=ORIENTED_EDGE('',*,*,#766,.F.);
#528=ORIENTED_EDGE('',*,*,#767,.T.);
#529=ORIENTED_EDGE('',*,*,#763,.T.);
#530=ORIENTED_EDGE('',*,*,#768,.T.);
#531=ORIENTED_EDGE('',*,*,#769,.F.);
#532=ORIENTED_EDGE('',*,*,#770,.F.);
#533=ORIENTED_EDGE('',*,*,#771,.T.);
#534=ORIENTED_EDGE('',*,*,#772,.T.);
#535=ORIENTED_EDGE('',*,*,#773,.F.);
#536=ORIENTED_EDGE('',*,*,#774,.F.);
#537=ORIENTED_EDGE('',*,*,#769,.T.);
#538=ORIENTED_EDGE('',*,*,#775,.T.);
#539=ORIENTED_EDGE('',*,*,#776,.F.);
#540=ORIENTED_EDGE('',*,*,#777,.F.);
#541=ORIENTED_EDGE('',*,*,#773,.T.);
#542=ORIENTED_EDGE('',*,*,#778,.T.);
#543=ORIENTED_EDGE('',*,*,#779,.F.);
#544=ORIENTED_EDGE('',*,*,#780,.F.);
#545=ORIENTED_EDGE('',*,*,#776,.T.);
#546=ORIENTED_EDGE('',*,*,#781,.T.);
#547=ORIENTED_EDGE('',*,*,#782,.T.);
#548=ORIENTED_EDGE('',*,*,#783,.F.);
#549=ORIENTED_EDGE('',*,*,#779,.T.);
#550=ORIENTED_EDGE('',*,*,#784,.F.);
#551=ORIENTED_EDGE('',*,*,#785,.T.);
#552=ORIENTED_EDGE('',*,*,#786,.T.);
#553=ORIENTED_EDGE('',*,*,#787,.T.);
#554=ORIENTED_EDGE('',*,*,#788,.F.);
#555=ORIENTED_EDGE('',*,*,#789,.T.);
#556=ORIENTED_EDGE('',*,*,#790,.T.);
#557=ORIENTED_EDGE('',*,*,#791,.T.);
#558=ORIENTED_EDGE('',*,*,#792,.T.);
#559=ORIENTED_EDGE('',*,*,#793,.F.);
#560=ORIENTED_EDGE('',*,*,#794,.F.);
#561=ORIENTED_EDGE('',*,*,#795,.T.);
#562=ORIENTED_EDGE('',*,*,#796,.F.);
#563=ORIENTED_EDGE('',*,*,#797,.T.);
#564=ORIENTED_EDGE('',*,*,#798,.T.);
#565=ORIENTED_EDGE('',*,*,#799,.F.);
#566=ORIENTED_EDGE('',*,*,#800,.T.);
#567=ORIENTED_EDGE('',*,*,#771,.F.);
#568=ORIENTED_EDGE('',*,*,#801,.F.);
#569=ORIENTED_EDGE('',*,*,#799,.T.);
#570=ORIENTED_EDGE('',*,*,#802,.F.);
#571=ORIENTED_EDGE('',*,*,#761,.F.);
#572=ORIENTED_EDGE('',*,*,#803,.T.);
#573=ORIENTED_EDGE('',*,*,#766,.T.);
#574=ORIENTED_EDGE('',*,*,#784,.T.);
#575=ORIENTED_EDGE('',*,*,#804,.T.);
#576=ORIENTED_EDGE('',*,*,#788,.T.);
#577=ORIENTED_EDGE('',*,*,#805,.T.);
#578=ORIENTED_EDGE('',*,*,#806,.F.);
#579=ORIENTED_EDGE('',*,*,#807,.T.);
#580=ORIENTED_EDGE('',*,*,#796,.T.);
#581=ORIENTED_EDGE('',*,*,#801,.T.);
#582=ORIENTED_EDGE('',*,*,#770,.T.);
#583=ORIENTED_EDGE('',*,*,#774,.T.);
#584=ORIENTED_EDGE('',*,*,#777,.T.);
#585=ORIENTED_EDGE('',*,*,#780,.T.);
#586=ORIENTED_EDGE('',*,*,#783,.T.);
#587=ORIENTED_EDGE('',*,*,#808,.T.);
#588=ORIENTED_EDGE('',*,*,#760,.F.);
#589=ORIENTED_EDGE('',*,*,#764,.F.);
#590=ORIENTED_EDGE('',*,*,#767,.F.);
#591=ORIENTED_EDGE('',*,*,#803,.F.);
#592=ORIENTED_EDGE('',*,*,#790,.F.);
#593=ORIENTED_EDGE('',*,*,#809,.T.);
#594=ORIENTED_EDGE('',*,*,#786,.F.);
#595=ORIENTED_EDGE('',*,*,#810,.T.);
#596=ORIENTED_EDGE('',*,*,#781,.F.);
#597=ORIENTED_EDGE('',*,*,#778,.F.);
#598=ORIENTED_EDGE('',*,*,#775,.F.);
#599=ORIENTED_EDGE('',*,*,#772,.F.);
#600=ORIENTED_EDGE('',*,*,#768,.F.);
#601=ORIENTED_EDGE('',*,*,#800,.F.);
#602=ORIENTED_EDGE('',*,*,#798,.F.);
#603=ORIENTED_EDGE('',*,*,#811,.T.);
#604=ORIENTED_EDGE('',*,*,#812,.F.);
#605=ORIENTED_EDGE('',*,*,#813,.F.);
#606=ORIENTED_EDGE('',*,*,#758,.T.);
#607=ORIENTED_EDGE('',*,*,#802,.T.);
#608=ORIENTED_EDGE('',*,*,#765,.T.);
#609=ORIENTED_EDGE('',*,*,#762,.T.);
#610=ORIENTED_EDGE('',*,*,#814,.F.);
#611=ORIENTED_EDGE('',*,*,#815,.F.);
#612=ORIENTED_EDGE('',*,*,#816,.F.);
#613=ORIENTED_EDGE('',*,*,#817,.F.);
#614=ORIENTED_EDGE('',*,*,#791,.F.);
#615=ORIENTED_EDGE('',*,*,#813,.T.);
#616=ORIENTED_EDGE('',*,*,#818,.T.);
#617=ORIENTED_EDGE('',*,*,#819,.T.);
#618=ORIENTED_EDGE('',*,*,#820,.F.);
#619=ORIENTED_EDGE('',*,*,#821,.F.);
#620=ORIENTED_EDGE('',*,*,#822,.F.);
#621=ORIENTED_EDGE('',*,*,#823,.F.);
#622=ORIENTED_EDGE('',*,*,#805,.F.);
#623=ORIENTED_EDGE('',*,*,#795,.F.);
#624=ORIENTED_EDGE('',*,*,#824,.F.);
#625=ORIENTED_EDGE('',*,*,#825,.T.);
#626=ORIENTED_EDGE('',*,*,#826,.F.);
#627=ORIENTED_EDGE('',*,*,#827,.F.);
#628=ORIENTED_EDGE('',*,*,#828,.F.);
#629=ORIENTED_EDGE('',*,*,#829,.F.);
#630=ORIENTED_EDGE('',*,*,#830,.F.);
#631=ORIENTED_EDGE('',*,*,#831,.F.);
#632=ORIENTED_EDGE('',*,*,#832,.F.);
#633=ORIENTED_EDGE('',*,*,#833,.F.);
#634=ORIENTED_EDGE('',*,*,#834,.T.);
#635=ORIENTED_EDGE('',*,*,#835,.F.);
#636=ORIENTED_EDGE('',*,*,#836,.F.);
#637=ORIENTED_EDGE('',*,*,#793,.T.);
#638=ORIENTED_EDGE('',*,*,#818,.F.);
#639=ORIENTED_EDGE('',*,*,#812,.T.);
#640=ORIENTED_EDGE('',*,*,#837,.T.);
#641=ORIENTED_EDGE('',*,*,#806,.T.);
#642=ORIENTED_EDGE('',*,*,#825,.F.);
#643=ORIENTED_EDGE('',*,*,#838,.F.);
#644=ORIENTED_EDGE('',*,*,#835,.T.);
#645=ORIENTED_EDGE('',*,*,#839,.T.);
#646=ORIENTED_EDGE('',*,*,#824,.T.);
#647=ORIENTED_EDGE('',*,*,#794,.T.);
#648=ORIENTED_EDGE('',*,*,#836,.T.);
#649=ORIENTED_EDGE('',*,*,#838,.T.);
#650=ORIENTED_EDGE('',*,*,#819,.F.);
#651=ORIENTED_EDGE('',*,*,#839,.F.);
#652=ORIENTED_EDGE('',*,*,#834,.F.);
#653=ORIENTED_EDGE('',*,*,#792,.F.);
#654=ORIENTED_EDGE('',*,*,#831,.T.);
#655=ORIENTED_EDGE('',*,*,#840,.F.);
#656=ORIENTED_EDGE('',*,*,#821,.T.);
#657=ORIENTED_EDGE('',*,*,#841,.T.);
#658=ORIENTED_EDGE('',*,*,#832,.T.);
#659=ORIENTED_EDGE('',*,*,#841,.F.);
#660=ORIENTED_EDGE('',*,*,#820,.T.);
#661=ORIENTED_EDGE('',*,*,#842,.T.);
#662=ORIENTED_EDGE('',*,*,#833,.T.);
#663=ORIENTED_EDGE('',*,*,#842,.F.);
#664=ORIENTED_EDGE('',*,*,#823,.T.);
#665=ORIENTED_EDGE('',*,*,#843,.T.);
#666=ORIENTED_EDGE('',*,*,#830,.T.);
#667=ORIENTED_EDGE('',*,*,#843,.F.);
#668=ORIENTED_EDGE('',*,*,#822,.T.);
#669=ORIENTED_EDGE('',*,*,#840,.T.);
#670=ORIENTED_EDGE('',*,*,#827,.T.);
#671=ORIENTED_EDGE('',*,*,#844,.F.);
#672=ORIENTED_EDGE('',*,*,#815,.T.);
#673=ORIENTED_EDGE('',*,*,#845,.T.);
#674=ORIENTED_EDGE('',*,*,#828,.T.);
#675=ORIENTED_EDGE('',*,*,#845,.F.);
#676=ORIENTED_EDGE('',*,*,#814,.T.);
#677=ORIENTED_EDGE('',*,*,#846,.T.);
#678=ORIENTED_EDGE('',*,*,#829,.T.);
#679=ORIENTED_EDGE('',*,*,#846,.F.);
#680=ORIENTED_EDGE('',*,*,#817,.T.);
#681=ORIENTED_EDGE('',*,*,#847,.T.);
#682=ORIENTED_EDGE('',*,*,#826,.T.);
#683=ORIENTED_EDGE('',*,*,#847,.F.);
#684=ORIENTED_EDGE('',*,*,#816,.T.);
#685=ORIENTED_EDGE('',*,*,#844,.T.);
#686=ORIENTED_EDGE('',*,*,#808,.F.);
#687=ORIENTED_EDGE('',*,*,#782,.F.);
#688=ORIENTED_EDGE('',*,*,#810,.F.);
#689=ORIENTED_EDGE('',*,*,#785,.F.);
#690=ORIENTED_EDGE('',*,*,#804,.F.);
#691=ORIENTED_EDGE('',*,*,#787,.F.);
#692=ORIENTED_EDGE('',*,*,#809,.F.);
#693=ORIENTED_EDGE('',*,*,#789,.F.);
#694=ORIENTED_EDGE('',*,*,#807,.F.);
#695=ORIENTED_EDGE('',*,*,#837,.F.);
#696=ORIENTED_EDGE('',*,*,#811,.F.);
#697=ORIENTED_EDGE('',*,*,#797,.F.);
#698=VERTEX_POINT('',#1111);
#699=VERTEX_POINT('',#1112);
#700=VERTEX_POINT('',#1114);
#701=VERTEX_POINT('',#1116);
#702=VERTEX_POINT('',#1120);
#703=VERTEX_POINT('',#1122);
#704=VERTEX_POINT('',#1126);
#705=VERTEX_POINT('',#1128);
#706=VERTEX_POINT('',#1132);
#707=VERTEX_POINT('',#1133);
#708=VERTEX_POINT('',#1135);
#709=VERTEX_POINT('',#1137);
#710=VERTEX_POINT('',#1141);
#711=VERTEX_POINT('',#1143);
#712=VERTEX_POINT('',#1147);
#713=VERTEX_POINT('',#1149);
#714=VERTEX_POINT('',#1153);
#715=VERTEX_POINT('',#1155);
#716=VERTEX_POINT('',#1159);
#717=VERTEX_POINT('',#1161);
#718=VERTEX_POINT('',#1165);
#719=VERTEX_POINT('',#1166);
#720=VERTEX_POINT('',#1168);
#721=VERTEX_POINT('',#1170);
#722=VERTEX_POINT('',#1174);
#723=VERTEX_POINT('',#1175);
#724=VERTEX_POINT('',#1177);
#725=VERTEX_POINT('',#1179);
#726=VERTEX_POINT('',#1181);
#727=VERTEX_POINT('',#1183);
#728=VERTEX_POINT('',#1185);
#729=VERTEX_POINT('',#1187);
#730=VERTEX_POINT('',#1191);
#731=VERTEX_POINT('',#1192);
#732=VERTEX_POINT('',#1194);
#733=VERTEX_POINT('',#1196);
#734=VERTEX_POINT('',#1207);
#735=VERTEX_POINT('',#1209);
#736=VERTEX_POINT('',#1216);
#737=VERTEX_POINT('',#1218);
#738=VERTEX_POINT('',#1222);
#739=VERTEX_POINT('',#1223);
#740=VERTEX_POINT('',#1225);
#741=VERTEX_POINT('',#1227);
#742=VERTEX_POINT('',#1230);
#743=VERTEX_POINT('',#1234);
#744=VERTEX_POINT('',#1235);
#745=VERTEX_POINT('',#1237);
#746=VERTEX_POINT('',#1239);
#747=VERTEX_POINT('',#1242);
#748=VERTEX_POINT('',#1246);
#749=VERTEX_POINT('',#1247);
#750=VERTEX_POINT('',#1249);
#751=VERTEX_POINT('',#1251);
#752=VERTEX_POINT('',#1254);
#753=VERTEX_POINT('',#1255);
#754=VERTEX_POINT('',#1257);
#755=VERTEX_POINT('',#1259);
#756=VERTEX_POINT('',#1262);
#757=VERTEX_POINT('',#1264);
#758=EDGE_CURVE('',#698,#699,#848,.T.);
#759=EDGE_CURVE('',#700,#698,#386,.T.);
#760=EDGE_CURVE('',#700,#701,#849,.T.);
#761=EDGE_CURVE('',#701,#699,#387,.T.);
#762=EDGE_CURVE('',#702,#698,#388,.T.);
#763=EDGE_CURVE('',#703,#702,#389,.T.);
#764=EDGE_CURVE('',#703,#700,#390,.T.);
#765=EDGE_CURVE('',#704,#702,#850,.T.);
#766=EDGE_CURVE('',#705,#704,#391,.T.);
#767=EDGE_CURVE('',#705,#703,#851,.T.);
#768=EDGE_CURVE('',#706,#707,#392,.T.);
#769=EDGE_CURVE('',#708,#707,#393,.T.);
#770=EDGE_CURVE('',#709,#708,#394,.T.);
#771=EDGE_CURVE('',#709,#706,#395,.T.);
#772=EDGE_CURVE('',#707,#710,#852,.T.);
#773=EDGE_CURVE('',#711,#710,#396,.T.);
#774=EDGE_CURVE('',#708,#711,#853,.T.);
#775=EDGE_CURVE('',#710,#712,#397,.T.);
#776=EDGE_CURVE('',#713,#712,#398,.T.);
#777=EDGE_CURVE('',#711,#713,#399,.T.);
#778=EDGE_CURVE('',#712,#714,#854,.T.);
#779=EDGE_CURVE('',#715,#714,#400,.T.);
#780=EDGE_CURVE('',#713,#715,#855,.T.);
#781=EDGE_CURVE('',#714,#716,#401,.T.);
#782=EDGE_CURVE('',#716,#717,#402,.T.);
#783=EDGE_CURVE('',#715,#717,#403,.T.);
#784=EDGE_CURVE('',#718,#719,#404,.T.);
#785=EDGE_CURVE('',#718,#720,#405,.T.);
#786=EDGE_CURVE('',#720,#721,#406,.T.);
#787=EDGE_CURVE('',#721,#719,#407,.T.);
#788=EDGE_CURVE('',#722,#723,#408,.T.);
#789=EDGE_CURVE('',#722,#724,#409,.T.);
#790=EDGE_CURVE('',#724,#725,#410,.T.);
#791=EDGE_CURVE('',#725,#726,#411,.T.);
#792=EDGE_CURVE('',#726,#727,#412,.T.);
#793=EDGE_CURVE('',#728,#727,#413,.T.);
#794=EDGE_CURVE('',#729,#728,#414,.T.);
#795=EDGE_CURVE('',#729,#723,#415,.T.);
#796=EDGE_CURVE('',#730,#731,#416,.T.);
#797=EDGE_CURVE('',#730,#732,#417,.T.);
#798=EDGE_CURVE('',#732,#733,#418,.T.);
#799=EDGE_CURVE('',#731,#733,#419,.T.);
#800=EDGE_CURVE('',#733,#706,#856,.T.);
#801=EDGE_CURVE('',#731,#709,#857,.T.);
#802=EDGE_CURVE('',#699,#704,#420,.T.);
#803=EDGE_CURVE('',#701,#705,#421,.T.);
#804=EDGE_CURVE('',#719,#722,#858,.T.);
#805=EDGE_CURVE('',#723,#734,#422,.T.);
#806=EDGE_CURVE('',#735,#734,#423,.T.);
#807=EDGE_CURVE('',#735,#730,#859,.T.);
#808=EDGE_CURVE('',#717,#718,#860,.T.);
#809=EDGE_CURVE('',#724,#721,#861,.T.);
#810=EDGE_CURVE('',#720,#716,#862,.T.);
#811=EDGE_CURVE('',#732,#736,#863,.T.);
#812=EDGE_CURVE('',#737,#736,#424,.T.);
#813=EDGE_CURVE('',#725,#737,#425,.T.);
#814=EDGE_CURVE('',#738,#739,#426,.T.);
#815=EDGE_CURVE('',#740,#738,#864,.T.);
#816=EDGE_CURVE('',#741,#740,#427,.T.);
#817=EDGE_CURVE('',#739,#741,#865,.T.);
#818=EDGE_CURVE('',#737,#742,#428,.T.);
#819=EDGE_CURVE('',#742,#726,#429,.T.);
#820=EDGE_CURVE('',#743,#744,#430,.T.);
#821=EDGE_CURVE('',#745,#743,#866,.T.);
#822=EDGE_CURVE('',#746,#745,#431,.T.);
#823=EDGE_CURVE('',#744,#746,#867,.T.);
#824=EDGE_CURVE('',#747,#729,#432,.T.);
#825=EDGE_CURVE('',#747,#734,#433,.T.);
#826=EDGE_CURVE('',#748,#749,#434,.T.);
#827=EDGE_CURVE('',#750,#748,#868,.T.);
#828=EDGE_CURVE('',#751,#750,#435,.T.);
#829=EDGE_CURVE('',#749,#751,#869,.T.);
#830=EDGE_CURVE('',#752,#753,#436,.T.);
#831=EDGE_CURVE('',#754,#752,#870,.T.);
#832=EDGE_CURVE('',#755,#754,#437,.T.);
#833=EDGE_CURVE('',#753,#755,#871,.T.);
#834=EDGE_CURVE('',#727,#756,#438,.T.);
#835=EDGE_CURVE('',#757,#756,#439,.T.);
#836=EDGE_CURVE('',#728,#757,#440,.T.);
#837=EDGE_CURVE('',#736,#735,#441,.T.);
#838=EDGE_CURVE('',#757,#747,#442,.T.);
#839=EDGE_CURVE('',#756,#742,#443,.T.);
#840=EDGE_CURVE('',#745,#752,#444,.T.);
#841=EDGE_CURVE('',#743,#754,#445,.T.);
#842=EDGE_CURVE('',#744,#755,#446,.T.);
#843=EDGE_CURVE('',#746,#753,#447,.T.);
#844=EDGE_CURVE('',#740,#748,#448,.T.);
#845=EDGE_CURVE('',#738,#750,#449,.T.);
#846=EDGE_CURVE('',#739,#751,#450,.T.);
#847=EDGE_CURVE('',#741,#749,#451,.T.);
#848=CIRCLE('',#873,0.75175);
#849=CIRCLE('',#874,0.75175);
#850=CIRCLE('',#877,0.75175);
#851=CIRCLE('',#878,0.75175);
#852=CIRCLE('',#881,1.08562809112451);
#853=CIRCLE('',#882,1.08562809112451);
#854=CIRCLE('',#885,1.08562809112451);
#855=CIRCLE('',#886,1.08562809112451);
#856=CIRCLE('',#892,1.08562809112451);
#857=CIRCLE('',#893,1.08562809112451);
#858=CIRCLE('',#896,0.3);
#859=CIRCLE('',#897,0.3);
#860=CIRCLE('',#898,0.75);
#861=CIRCLE('',#900,0.3);
#862=CIRCLE('',#901,0.75);
#863=CIRCLE('',#902,0.3);
#864=CIRCLE('',#904,0.097999999999999);
#865=CIRCLE('',#905,0.0980000000000025);
#866=CIRCLE('',#907,0.097999999999999);
#867=CIRCLE('',#908,0.097999999999999);
#868=CIRCLE('',#910,0.097999999999999);
#869=CIRCLE('',#911,0.0980000000000025);
#870=CIRCLE('',#912,0.097999999999999);
#871=CIRCLE('',#913,0.097999999999999);
#872=AXIS2_PLACEMENT_3D('',#1109,#929,#930);
#873=AXIS2_PLACEMENT_3D('',#1110,#931,#932);
#874=AXIS2_PLACEMENT_3D('',#1115,#934,#935);
#875=AXIS2_PLACEMENT_3D('',#1118,#937,#938);
#876=AXIS2_PLACEMENT_3D('',#1124,#942,#943);
#877=AXIS2_PLACEMENT_3D('',#1125,#944,#945);
#878=AXIS2_PLACEMENT_3D('',#1129,#947,#948);
#879=AXIS2_PLACEMENT_3D('',#1130,#949,#950);
#880=AXIS2_PLACEMENT_3D('',#1139,#955,#956);
#881=AXIS2_PLACEMENT_3D('',#1140,#957,#958);
#882=AXIS2_PLACEMENT_3D('',#1144,#960,#961);
#883=AXIS2_PLACEMENT_3D('',#1145,#962,#963);
#884=AXIS2_PLACEMENT_3D('',#1151,#967,#968);
#885=AXIS2_PLACEMENT_3D('',#1152,#969,#970);
#886=AXIS2_PLACEMENT_3D('',#1156,#972,#973);
#887=AXIS2_PLACEMENT_3D('',#1157,#974,#975);
#888=AXIS2_PLACEMENT_3D('',#1163,#979,#980);
#889=AXIS2_PLACEMENT_3D('',#1172,#985,#986);
#890=AXIS2_PLACEMENT_3D('',#1189,#995,#996);
#891=AXIS2_PLACEMENT_3D('',#1198,#1001,#1002);
#892=AXIS2_PLACEMENT_3D('',#1199,#1003,#1004);
#893=AXIS2_PLACEMENT_3D('',#1200,#1005,#1006);
#894=AXIS2_PLACEMENT_3D('',#1201,#1007,#1008);
#895=AXIS2_PLACEMENT_3D('',#1204,#1011,#1012);
#896=AXIS2_PLACEMENT_3D('',#1205,#1013,#1014);
#897=AXIS2_PLACEMENT_3D('',#1210,#1017,#1018);
#898=AXIS2_PLACEMENT_3D('',#1211,#1019,#1020);
#899=AXIS2_PLACEMENT_3D('',#1212,#1021,#1022);
#900=AXIS2_PLACEMENT_3D('',#1213,#1023,#1024);
#901=AXIS2_PLACEMENT_3D('',#1214,#1025,#1026);
#902=AXIS2_PLACEMENT_3D('',#1215,#1027,#1028);
#903=AXIS2_PLACEMENT_3D('',#1220,#1031,#1032);
#904=AXIS2_PLACEMENT_3D('',#1224,#1034,#1035);
#905=AXIS2_PLACEMENT_3D('',#1228,#1037,#1038);
#906=AXIS2_PLACEMENT_3D('',#1232,#1041,#1042);
#907=AXIS2_PLACEMENT_3D('',#1236,#1044,#1045);
#908=AXIS2_PLACEMENT_3D('',#1240,#1047,#1048);
#909=AXIS2_PLACEMENT_3D('',#1244,#1051,#1052);
#910=AXIS2_PLACEMENT_3D('',#1248,#1054,#1055);
#911=AXIS2_PLACEMENT_3D('',#1252,#1057,#1058);
#912=AXIS2_PLACEMENT_3D('',#1256,#1060,#1061);
#913=AXIS2_PLACEMENT_3D('',#1260,#1063,#1064);
#914=AXIS2_PLACEMENT_3D('',#1266,#1068,#1069);
#915=AXIS2_PLACEMENT_3D('',#1270,#1073,#1074);
#916=AXIS2_PLACEMENT_3D('',#1271,#1075,#1076);
#917=AXIS2_PLACEMENT_3D('',#1272,#1077,#1078);
#918=AXIS2_PLACEMENT_3D('',#1275,#1081,#1082);
#919=AXIS2_PLACEMENT_3D('',#1277,#1084,#1085);
#920=AXIS2_PLACEMENT_3D('',#1279,#1087,#1088);
#921=AXIS2_PLACEMENT_3D('',#1280,#1089,#1090);
#922=AXIS2_PLACEMENT_3D('',#1283,#1093,#1094);
#923=AXIS2_PLACEMENT_3D('',#1285,#1096,#1097);
#924=AXIS2_PLACEMENT_3D('',#1287,#1099,#1100);
#925=AXIS2_PLACEMENT_3D('',#1288,#1101,#1102);
#926=AXIS2_PLACEMENT_3D('',#1289,#1103,#1104);
#927=AXIS2_PLACEMENT_3D('',#1290,#1105,#1106);
#928=AXIS2_PLACEMENT_3D('',#1291,#1107,#1108);
#929=DIRECTION('',(0.,0.,1.));
#930=DIRECTION('',(1.,0.,0.));
#931=DIRECTION('',(-7.90119532621062E-18,-1.82625510946394E-16,1.));
#932=DIRECTION('',(-0.707106781186546,0.707106781186549,0.));
#933=DIRECTION('',(7.90119532621063E-18,1.82625510946394E-16,-1.));
#934=DIRECTION('',(-7.90119532621062E-18,-1.82625510946394E-16,1.));
#935=DIRECTION('',(-0.707106781186546,0.707106781186549,0.));
#936=DIRECTION('',(7.90119532621063E-18,1.82625510946394E-16,-1.));
#937=DIRECTION('',(7.90119532621063E-18,1.82625510946394E-16,-1.));
#938=DIRECTION('',(0.,1.,0.));
#939=DIRECTION('',(0.707106781186545,-0.70710678118655,0.));
#940=DIRECTION('',(7.90119532621063E-18,1.82625510946394E-16,-1.));
#941=DIRECTION('',(0.707106781186545,-0.70710678118655,0.));
#942=DIRECTION('',(-0.70710678118655,-0.707106781186545,-1.34722726002496E-16));
#943=DIRECTION('',(0.707106781186545,-0.70710678118655,0.));
#944=DIRECTION('',(-7.90119532621062E-18,-1.82625510946394E-16,1.));
#945=DIRECTION('',(-0.707106781186546,0.707106781186549,0.));
#946=DIRECTION('',(7.90119532621063E-18,1.82625510946394E-16,-1.));
#947=DIRECTION('',(-7.90119532621062E-18,-1.82625510946394E-16,1.));
#948=DIRECTION('',(-0.707106781186546,0.707106781186549,0.));
#949=DIRECTION('',(7.90119532621063E-18,1.82625510946394E-16,-1.));
#950=DIRECTION('',(0.,1.,0.));
#951=DIRECTION('',(0.707106781186545,-0.70710678118655,0.));
#952=DIRECTION('',(7.90119532621063E-18,1.82625510946394E-16,-1.));
#953=DIRECTION('',(0.707106781186545,-0.70710678118655,0.));
#954=DIRECTION('',(7.90119532621063E-18,1.82625510946394E-16,-1.));
#955=DIRECTION('',(0.70710678118655,0.707106781186545,1.34722726002496E-16));
#956=DIRECTION('',(-0.707106781186545,0.70710678118655,0.));
#957=DIRECTION('',(-7.90119532621065E-18,-1.82625510946394E-16,1.));
#958=DIRECTION('',(-0.707106781186546,0.707106781186549,0.));
#959=DIRECTION('',(7.90119532621063E-18,1.82625510946394E-16,-1.));
#960=DIRECTION('',(-7.90119532621065E-18,-1.82625510946394E-16,1.));
#961=DIRECTION('',(-0.707106781186546,0.707106781186549,0.));
#962=DIRECTION('',(7.90119532621063E-18,1.82625510946394E-16,-1.));
#963=DIRECTION('',(0.,1.,0.));
#964=DIRECTION('',(0.707106781186549,0.707106781186546,0.));
#965=DIRECTION('',(7.90119532621063E-18,1.82625510946394E-16,-1.));
#966=DIRECTION('',(0.707106781186549,0.707106781186546,0.));
#967=DIRECTION('',(-0.707106781186546,0.707106781186549,1.23548748413211E-16));
#968=DIRECTION('',(-0.707106781186549,-0.707106781186546,0.));
#969=DIRECTION('',(-7.90119532621065E-18,-1.82625510946394E-16,1.));
#970=DIRECTION('',(-0.707106781186546,0.707106781186549,0.));
#971=DIRECTION('',(7.90119532621063E-18,1.82625510946394E-16,-1.));
#972=DIRECTION('',(-7.90119532621065E-18,-1.82625510946394E-16,1.));
#973=DIRECTION('',(-0.707106781186546,0.707106781186549,0.));
#974=DIRECTION('',(7.90119532621063E-18,1.82625510946394E-16,-1.));
#975=DIRECTION('',(0.,1.,0.));
#976=DIRECTION('',(-0.707106781186544,0.707106781186551,0.));
#977=DIRECTION('',(-7.90119532621062E-18,-1.82625510946394E-16,1.));
#978=DIRECTION('',(-0.707106781186546,0.707106781186549,0.));
#979=DIRECTION('',(-0.707106781186551,-0.707106781186544,-1.34722726002496E-16));
#980=DIRECTION('',(0.707106781186544,-0.707106781186551,0.));
#981=DIRECTION('',(0.70710678118655,0.707106781186545,0.));
#982=DIRECTION('',(7.90119532621064E-18,1.82625510946394E-16,-1.));
#983=DIRECTION('',(0.70710678118655,0.707106781186545,0.));
#984=DIRECTION('',(-7.90119532621064E-18,-1.82625510946394E-16,1.));
#985=DIRECTION('',(-0.707106781186545,0.70710678118655,1.23548748413211E-16));
#986=DIRECTION('',(-0.70710678118655,-0.707106781186545,0.));
#987=DIRECTION('',(-0.707106781186547,0.707106781186548,0.));
#988=DIRECTION('',(7.90119532621062E-18,1.82625510946394E-16,-1.));
#989=DIRECTION('',(-0.707106781186547,0.707106781186548,0.));
#990=DIRECTION('',(7.90119532621063E-18,1.82625510946394E-16,-1.));
#991=DIRECTION('',(-0.707106781186546,0.707106781186549,0.));
#992=DIRECTION('',(7.90119532621063E-18,1.82625510946394E-16,-1.));
#993=DIRECTION('',(-0.707106781186546,0.707106781186549,0.));
#994=DIRECTION('',(7.90119532621063E-18,1.82625510946394E-16,-1.));
#995=DIRECTION('',(-0.707106781186548,-0.707106781186547,-1.34722726002496E-16));
#996=DIRECTION('',(0.707106781186547,-0.707106781186548,0.));
#997=DIRECTION('',(-0.707106781186549,-0.707106781186545,0.));
#998=DIRECTION('',(7.90119532621065E-18,1.82625510946394E-16,-1.));
#999=DIRECTION('',(-0.70710678118655,-0.707106781186545,0.));
#1000=DIRECTION('',(7.90119532621063E-18,1.82625510946394E-16,-1.));
#1001=DIRECTION('',(0.707106781186545,-0.70710678118655,-1.23548748413211E-16));
#1002=DIRECTION('',(0.70710678118655,0.707106781186545,0.));
#1003=DIRECTION('',(-7.90119532621065E-18,-1.82625510946394E-16,1.));
#1004=DIRECTION('',(-0.707106781186546,0.707106781186549,0.));
#1005=DIRECTION('',(-7.90119532621065E-18,-1.82625510946394E-16,1.));
#1006=DIRECTION('',(-0.707106781186546,0.707106781186549,0.));
#1007=DIRECTION('',(7.90119532621063E-18,1.82625510946394E-16,-1.));
#1008=DIRECTION('',(0.,1.,0.));
#1009=DIRECTION('',(-0.707106781186545,0.70710678118655,0.));
#1010=DIRECTION('',(-0.707106781186545,0.70710678118655,0.));
#1011=DIRECTION('',(0.70710678118655,0.707106781186545,1.34722726002496E-16));
#1012=DIRECTION('',(-0.707106781186545,0.70710678118655,0.));
#1013=DIRECTION('',(-7.90119532621065E-18,-1.82625510946394E-16,1.));
#1014=DIRECTION('',(0.,-1.,0.));
#1015=DIRECTION('',(-0.707106781186549,-0.707106781186545,0.));
#1016=DIRECTION('',(0.707106781186546,-0.70710678118655,-1.23548748413211E-16));
#1017=DIRECTION('',(7.90119532621065E-18,1.82625510946394E-16,-1.));
#1018=DIRECTION('',(0.,-1.,0.));
#1019=DIRECTION('',(7.90119532621065E-18,1.82625510946394E-16,-1.));
#1020=DIRECTION('',(0.,-1.,0.));
#1021=DIRECTION('',(-7.90119532621065E-18,-1.82625510946394E-16,1.));
#1022=DIRECTION('',(0.,-1.,-2.22044604925031E-16));
#1023=DIRECTION('',(7.90119532621065E-18,1.82625510946394E-16,-1.));
#1024=DIRECTION('',(0.,-1.,0.));
#1025=DIRECTION('',(-7.90119532621065E-18,-1.82625510946394E-16,1.));
#1026=DIRECTION('',(0.,-1.,0.));
#1027=DIRECTION('',(-7.90119532621065E-18,-1.82625510946394E-16,1.));
#1028=DIRECTION('',(0.,-1.,0.));
#1029=DIRECTION('',(-0.707106781186546,0.70710678118655,1.23548748413211E-16));
#1030=DIRECTION('',(-0.70710678118655,-0.707106781186545,0.));
#1031=DIRECTION('',(-7.90119532621065E-18,-1.82625510946394E-16,1.));
#1032=DIRECTION('',(0.,-1.,-1.66533453693773E-16));
#1033=DIRECTION('',(0.707106781186531,0.707106781186564,0.));
#1034=DIRECTION('',(0.707106781186539,-0.707106781186556,-1.23548748413212E-16));
#1035=DIRECTION('',(0.707106781186556,0.70710678118654,0.));
#1036=DIRECTION('',(-0.707106781186531,-0.707106781186564,0.));
#1037=DIRECTION('',(0.707106781186539,-0.707106781186556,-1.23548748413212E-16));
#1038=DIRECTION('',(0.707106781186556,0.707106781186539,0.));
#1039=DIRECTION('',(7.90119532621063E-18,1.82625510946394E-16,-1.));
#1040=DIRECTION('',(0.707106781186549,0.707106781186545,0.));
#1041=DIRECTION('',(-0.707106781186546,0.70710678118655,1.23548748413211E-16));
#1042=DIRECTION('',(-0.70710678118655,-0.707106781186546,0.));
#1043=DIRECTION('',(0.707106781186531,0.707106781186564,0.));
#1044=DIRECTION('',(0.707106781186539,-0.707106781186556,-1.23548748413212E-16));
#1045=DIRECTION('',(0.707106781186556,0.70710678118654,0.));
#1046=DIRECTION('',(-0.707106781186531,-0.707106781186564,0.));
#1047=DIRECTION('',(0.707106781186539,-0.707106781186556,-1.23548748413212E-16));
#1048=DIRECTION('',(0.707106781186555,0.70710678118654,0.));
#1049=DIRECTION('',(0.707106781186549,0.707106781186545,0.));
#1050=DIRECTION('',(7.90119532621063E-18,1.82625510946394E-16,-1.));
#1051=DIRECTION('',(-0.707106781186546,0.70710678118655,1.23548748413211E-16));
#1052=DIRECTION('',(-0.70710678118655,-0.707106781186546,0.));
#1053=DIRECTION('',(0.70710678118655,0.707106781186545,-3.25405123403667E-30));
#1054=DIRECTION('',(-0.707106781186545,0.70710678118655,1.23548748413211E-16));
#1055=DIRECTION('',(0.707106781186551,0.707106781186545,0.));
#1056=DIRECTION('',(-0.70710678118655,-0.707106781186545,3.19242147581628E-30));
#1057=DIRECTION('',(-0.707106781186545,0.70710678118655,1.23548748413211E-16));
#1058=DIRECTION('',(0.70710678118655,0.707106781186545,0.));
#1059=DIRECTION('',(0.70710678118655,0.707106781186545,-3.2417252823926E-30));
#1060=DIRECTION('',(-0.707106781186545,0.70710678118655,1.23548748413211E-16));
#1061=DIRECTION('',(0.707106781186551,0.707106781186545,0.));
#1062=DIRECTION('',(-0.70710678118655,-0.707106781186545,3.2417252823926E-30));
#1063=DIRECTION('',(-0.707106781186545,0.70710678118655,1.23548748413211E-16));
#1064=DIRECTION('',(0.707106781186551,0.707106781186545,0.));
#1065=DIRECTION('',(-0.70710678118655,-0.707106781186545,0.));
#1066=DIRECTION('',(7.90119532621063E-18,1.82625510946394E-16,-1.));
#1067=DIRECTION('',(-0.70710678118655,-0.707106781186545,0.));
#1068=DIRECTION('',(0.707106781186545,-0.70710678118655,-1.23548748413211E-16));
#1069=DIRECTION('',(0.70710678118655,0.707106781186545,0.));
#1070=DIRECTION('',(-7.90119532621063E-18,-1.82625510946394E-16,1.));
#1071=DIRECTION('',(0.707106781186545,-0.707106781186549,0.));
#1072=DIRECTION('',(0.707106781186545,-0.707106781186549,0.));
#1073=DIRECTION('',(0.70710678118655,0.707106781186546,1.34722726002496E-16));
#1074=DIRECTION('',(-0.707106781186546,0.70710678118655,0.));
#1075=DIRECTION('',(0.,0.,1.));
#1076=DIRECTION('',(1.,0.,0.));
#1077=DIRECTION('',(0.,0.,1.));
#1078=DIRECTION('',(1.,0.,0.));
#1079=DIRECTION('',(-0.707106781186539,0.707106781186556,1.23548748413212E-16));
#1080=DIRECTION('',(-0.707106781186539,0.707106781186556,1.23548748413212E-16));
#1081=DIRECTION('',(0.707106781186539,-0.707106781186556,-1.23548748413212E-16));
#1082=DIRECTION('',(0.707106781186554,0.707106781186537,0.));
#1083=DIRECTION('',(-0.707106781186539,0.707106781186556,1.23548748413212E-16));
#1084=DIRECTION('',(-8.73621578100949E-17,8.73621578100908E-17,-1.));
#1085=DIRECTION('',(-1.,0.,1.11022302462516E-16));
#1086=DIRECTION('',(-0.707106781186539,0.707106781186556,1.23548748413212E-16));
#1087=DIRECTION('',(0.707106781186539,-0.707106781186556,-1.23548748413212E-16));
#1088=DIRECTION('',(0.707106781186554,0.707106781186537,0.));
#1089=DIRECTION('',(8.73621578100949E-17,-8.73621578100908E-17,1.));
#1090=DIRECTION('',(1.,0.,-1.11022302462516E-16));
#1091=DIRECTION('',(-0.707106781186539,0.707106781186556,1.23548748413212E-16));
#1092=DIRECTION('',(-0.707106781186539,0.707106781186556,1.23548748413212E-16));
#1093=DIRECTION('',(0.707106781186539,-0.707106781186556,-1.23548748413212E-16));
#1094=DIRECTION('',(0.707106781186554,0.707106781186537,0.));
#1095=DIRECTION('',(-0.707106781186539,0.707106781186556,1.23548748413212E-16));
#1096=DIRECTION('',(-8.73621578100948E-17,8.73621578100909E-17,-1.));
#1097=DIRECTION('',(-1.,0.,1.11022302462516E-16));
#1098=DIRECTION('',(-0.707106781186539,0.707106781186556,1.23548748413212E-16));
#1099=DIRECTION('',(0.707106781186539,-0.707106781186556,-1.23548748413212E-16));
#1100=DIRECTION('',(0.707106781186556,0.707106781186539,0.));
#1101=DIRECTION('',(8.73621578100949E-17,-8.73621578100908E-17,1.));
#1102=DIRECTION('',(1.,0.,-1.11022302462516E-16));
#1103=DIRECTION('',(-7.90119532621064E-18,-1.82625510946394E-16,1.));
#1104=DIRECTION('',(0.,-1.,0.));
#1105=DIRECTION('',(7.90119532621065E-18,1.82625510946394E-16,-1.));
#1106=DIRECTION('',(0.,1.,0.));
#1107=DIRECTION('',(-7.90119532621064E-18,-1.82625510946394E-16,1.));
#1108=DIRECTION('',(0.,-1.,0.));
#1109=CARTESIAN_POINT('',(0.,0.,0.));
#1110=CARTESIAN_POINT('',(-1.34149944574288,-0.71639960733287,19.4117594256882));
#1111=CARTESIAN_POINT('',(-1.87306696849986,-1.24796713008986,19.4117594256882));
#1112=CARTESIAN_POINT('',(-0.809931922985887,-0.184832084575884,19.4117594256882));
#1113=CARTESIAN_POINT('',(-1.87306696849986,-1.24796713008986,19.9117594256882));
#1114=CARTESIAN_POINT('',(-1.87306696849986,-1.24796713008986,19.9117594256882));
#1115=CARTESIAN_POINT('',(-1.34149944574288,-0.71639960733287,19.9117594256882));
#1116=CARTESIAN_POINT('',(-0.809931922985887,-0.184832084575885,19.9117594256882));
#1117=CARTESIAN_POINT('',(-0.809931922985887,-0.184832084575885,19.9117594256882));
#1118=CARTESIAN_POINT('',(-1.34149944574288,-0.71639960733287,19.9117594256882));
#1119=CARTESIAN_POINT('',(-1.87306696849986,-1.24796713008986,19.4117594256882));
#1120=CARTESIAN_POINT('',(-2.22662035909314,-0.894413739496582,19.4117594256882));
#1121=CARTESIAN_POINT('',(-2.22662035909314,-0.894413739496582,19.9117594256882));
#1122=CARTESIAN_POINT('',(-2.22662035909314,-0.894413739496582,19.9117594256882));
#1123=CARTESIAN_POINT('',(-1.87306696849986,-1.24796713008986,19.9117594256882));
#1124=CARTESIAN_POINT('',(-1.87306696849986,-1.24796713008986,19.9117594256882));
#1125=CARTESIAN_POINT('',(-1.69505283633615,-0.362846216739597,19.4117594256882));
#1126=CARTESIAN_POINT('',(-1.16348531357916,0.168721306017389,19.4117594256882));
#1127=CARTESIAN_POINT('',(-1.16348531357916,0.168721306017389,19.9117594256882));
#1128=CARTESIAN_POINT('',(-1.16348531357916,0.168721306017389,19.9117594256882));
#1129=CARTESIAN_POINT('',(-1.69505283633615,-0.362846216739597,19.9117594256882));
#1130=CARTESIAN_POINT('',(-1.69505283633615,-0.362846216739597,19.9117594256882));
#1131=CARTESIAN_POINT('',(-2.46270782141689,-1.13050120182034,19.4117594256882));
#1132=CARTESIAN_POINT('',(-2.46270782141689,-1.13050120182034,19.4117594256882));
#1133=CARTESIAN_POINT('',(-2.10915443082362,-1.48405459241361,19.4117594256882));
#1134=CARTESIAN_POINT('',(-2.10915443082362,-1.48405459241361,19.9117594256882));
#1135=CARTESIAN_POINT('',(-2.10915443082362,-1.48405459241361,19.9117594256882));
#1136=CARTESIAN_POINT('',(-2.46270782141689,-1.13050120182034,19.9117594256882));
#1137=CARTESIAN_POINT('',(-2.46270782141689,-1.13050120182034,19.9117594256882));
#1138=CARTESIAN_POINT('',(-2.46270782141689,-1.13050120182034,19.9117594256882));
#1139=CARTESIAN_POINT('',(-2.46270782141689,-1.13050120182034,19.9117594256882));
#1140=CARTESIAN_POINT('',(-1.34149944574288,-0.71639960733287,19.4117594256882));
#1141=CARTESIAN_POINT('',(-0.88626066018654,-1.70196847877912,19.4117594256882));
#1142=CARTESIAN_POINT('',(-0.88626066018654,-1.70196847877912,19.9117594256882));
#1143=CARTESIAN_POINT('',(-0.88626066018654,-1.70196847877912,19.9117594256882));
#1144=CARTESIAN_POINT('',(-1.34149944574288,-0.71639960733287,19.9117594256882));
#1145=CARTESIAN_POINT('',(-1.34149944574288,-0.71639960733287,19.9117594256882));
#1146=CARTESIAN_POINT('',(-0.88626066018654,-1.70196847877912,19.4117594256882));
#1147=CARTESIAN_POINT('',(-0.355930574296629,-1.17163839288921,19.4117594256882));
#1148=CARTESIAN_POINT('',(-0.355930574296629,-1.17163839288921,19.9117594256882));
#1149=CARTESIAN_POINT('',(-0.355930574296629,-1.17163839288921,19.9117594256882));
#1150=CARTESIAN_POINT('',(-0.88626066018654,-1.70196847877912,19.9117594256882));
#1151=CARTESIAN_POINT('',(-0.88626066018654,-1.70196847877912,19.9117594256882));
#1152=CARTESIAN_POINT('',(-1.34149944574288,-0.716399607332869,19.4117594256882));
#1153=CARTESIAN_POINT('',(-0.573844460662128,0.0512553777478732,19.4117594256882));
#1154=CARTESIAN_POINT('',(-0.573844460662128,0.0512553777478731,19.9117594256882));
#1155=CARTESIAN_POINT('',(-0.573844460662128,0.0512553777478731,19.9117594256882));
#1156=CARTESIAN_POINT('',(-1.34149944574288,-0.716399607332869,19.9117594256882));
#1157=CARTESIAN_POINT('',(-1.34149944574288,-0.716399607332869,19.9117594256882));
#1158=CARTESIAN_POINT('',(-0.927397851255399,0.404808768341146,19.4117594256882));
#1159=CARTESIAN_POINT('',(-0.846524698912289,0.323935615998035,19.4117594256882));
#1160=CARTESIAN_POINT('',(-0.846524698912289,0.323935615998035,19.9117594256882));
#1161=CARTESIAN_POINT('',(-0.846524698912289,0.323935615998035,19.9117594256882));
#1162=CARTESIAN_POINT('',(-0.573844460662128,0.0512553777478731,19.9117594256882));
#1163=CARTESIAN_POINT('',(-0.927397851255399,0.404808768341146,19.9117594256882));
#1164=CARTESIAN_POINT('',(-1.3768547848022,0.854265701887947,19.9117594256882));
#1165=CARTESIAN_POINT('',(-0.846524698912285,1.38459578777786,19.9117594256882));
#1166=CARTESIAN_POINT('',(-0.744329183222123,1.48679130346802,19.9117594256882));
#1167=CARTESIAN_POINT('',(-0.846524698912285,1.38459578777786,19.4117594256882));
#1168=CARTESIAN_POINT('',(-0.846524698912285,1.38459578777786,19.4117594256882));
#1169=CARTESIAN_POINT('',(-1.3768547848022,0.854265701887947,19.4117594256882));
#1170=CARTESIAN_POINT('',(-0.744329183222123,1.48679130346802,19.4117594256882));
#1171=CARTESIAN_POINT('',(-0.744329183222123,1.48679130346802,19.9117594256882));
#1172=CARTESIAN_POINT('',(-1.3768547848022,0.854265701887947,19.9117594256882));
#1173=CARTESIAN_POINT('',(-0.532197148866158,1.69892333782398,19.9117594256882));
#1174=CARTESIAN_POINT('',(-0.744329183222122,1.91105537217995,19.9117594256882));
#1175=CARTESIAN_POINT('',(-0.850395200400105,2.01712138935793,19.9117594256882));
#1176=CARTESIAN_POINT('',(-0.744329183222122,1.91105537217995,19.9117594256882));
#1177=CARTESIAN_POINT('',(-0.744329183222122,1.91105537217995,19.4117594256882));
#1178=CARTESIAN_POINT('',(-0.532197148866158,1.69892333782398,19.4117594256882));
#1179=CARTESIAN_POINT('',(-0.850395200400105,2.01712138935793,19.4117594256882));
#1180=CARTESIAN_POINT('',(-0.850395200400105,2.01712138935793,20.6617594256882));
#1181=CARTESIAN_POINT('',(-0.850395200400105,2.01712138935793,17.4117594256882));
#1182=CARTESIAN_POINT('',(-0.850395200400104,2.01712138935793,17.4117594256882));
#1183=CARTESIAN_POINT('',(-1.11556024334506,2.28228643230288,17.4117594256882));
#1184=CARTESIAN_POINT('',(-1.11556024334506,2.28228643230288,20.6617594256882));
#1185=CARTESIAN_POINT('',(-1.11556024334506,2.28228643230288,20.6617594256882));
#1186=CARTESIAN_POINT('',(-0.850395200400104,2.01712138935793,20.6617594256882));
#1187=CARTESIAN_POINT('',(-0.850395200400105,2.01712138935793,20.6617594256882));
#1188=CARTESIAN_POINT('',(-0.850395200400105,2.01712138935793,20.6617594256882));
#1189=CARTESIAN_POINT('',(-0.532197148866158,1.69892333782398,19.9117594256882));
#1190=CARTESIAN_POINT('',(-0.850395200400104,2.01712138935793,19.9117594256882));
#1191=CARTESIAN_POINT('',(-2.29996410183279,0.567552487925252,19.9117594256882));
#1192=CARTESIAN_POINT('',(-2.46270782141689,0.404808768341152,19.9117594256882));
#1193=CARTESIAN_POINT('',(-2.29996410183279,0.567552487925252,19.4117594256882));
#1194=CARTESIAN_POINT('',(-2.29996410183279,0.567552487925252,19.4117594256882));
#1195=CARTESIAN_POINT('',(-2.08783206747682,0.779684522281215,19.4117594256882));
#1196=CARTESIAN_POINT('',(-2.46270782141689,0.404808768341152,19.4117594256882));
#1197=CARTESIAN_POINT('',(-2.46270782141689,0.404808768341152,19.9117594256882));
#1198=CARTESIAN_POINT('',(-2.08783206747682,0.779684522281215,19.9117594256882));
#1199=CARTESIAN_POINT('',(-1.69505283633615,-0.362846216739597,19.4117594256882));
#1200=CARTESIAN_POINT('',(-1.69505283633615,-0.362846216739597,19.9117594256882));
#1201=CARTESIAN_POINT('',(-1.69505283633615,-0.362846216739597,19.9117594256882));
#1202=CARTESIAN_POINT('',(-1.16348531357916,0.168721306017389,19.4117594256882));
#1203=CARTESIAN_POINT('',(-1.16348531357916,0.168721306017389,19.9117594256882));
#1204=CARTESIAN_POINT('',(-1.16348531357916,0.168721306017389,19.9117594256882));
#1205=CARTESIAN_POINT('',(-0.956461217578087,1.69892333782398,19.9117594256882));
#1206=CARTESIAN_POINT('',(-0.850395200400104,2.01712138935793,19.9117594256882));
#1207=CARTESIAN_POINT('',(-2.08783206747682,0.779684522281215,19.9117594256882));
#1208=CARTESIAN_POINT('',(-2.35299711042178,1.04484956522617,19.9117594256882));
#1209=CARTESIAN_POINT('',(-2.29996410183279,0.99181655663718,19.9117594256882));
#1210=CARTESIAN_POINT('',(-2.51209613618875,0.779684522281217,19.9117594256882));
#1211=CARTESIAN_POINT('',(-0.316194613022376,0.854265701887943,19.9117594256882));
#1212=CARTESIAN_POINT('',(-1.34149944574288,-0.71639960733287,19.9117594256882));
#1213=CARTESIAN_POINT('',(-0.956461217578087,1.69892333782398,19.4117594256882));
#1214=CARTESIAN_POINT('',(-0.316194613022376,0.854265701887943,19.4117594256882));
#1215=CARTESIAN_POINT('',(-2.51209613618875,0.779684522281217,19.4117594256882));
#1216=CARTESIAN_POINT('',(-2.29996410183279,0.99181655663718,19.4117594256882));
#1217=CARTESIAN_POINT('',(-0.966623691802809,-0.341523853392806,19.4117594256882));
#1218=CARTESIAN_POINT('',(-2.08783206747682,0.779684522281215,19.4117594256882));
#1219=CARTESIAN_POINT('',(-2.08783206747682,0.779684522281215,19.4117594256882));
#1220=CARTESIAN_POINT('',(-1.34149944574288,-0.71639960733287,19.4117594256882));
#1221=CARTESIAN_POINT('',(-1.8933777026504,0.974138887107649,17.7637594256882));
#1222=CARTESIAN_POINT('',(-1.89337770265042,0.974138887107669,17.7637594256882));
#1223=CARTESIAN_POINT('',(-1.04484956522656,1.82266702453152,17.7637594256882));
#1224=CARTESIAN_POINT('',(-1.89337770265042,0.974138887107669,17.8617594256882));
#1225=CARTESIAN_POINT('',(-1.89337770265042,0.974138887107669,17.9597594256882));
#1226=CARTESIAN_POINT('',(-1.04484956522656,1.82266702453152,17.9597594256882));
#1227=CARTESIAN_POINT('',(-1.04484956522655,1.82266702453148,17.9597594256882));
#1228=CARTESIAN_POINT('',(-1.04484956522655,1.82266702453151,17.8617594256882));
#1229=CARTESIAN_POINT('',(-2.08783206747682,0.779684522281215,20.6617594256882));
#1230=CARTESIAN_POINT('',(-2.08783206747682,0.779684522281216,17.4117594256882));
#1231=CARTESIAN_POINT('',(-2.08783206747682,0.779684522281216,17.4117594256882));
#1232=CARTESIAN_POINT('',(-2.08783206747682,0.779684522281215,20.6617594256882));
#1233=CARTESIAN_POINT('',(-1.8933777026504,0.974138887107649,20.1137594256882));
#1234=CARTESIAN_POINT('',(-1.89337770265043,0.974138887107677,20.1137594256882));
#1235=CARTESIAN_POINT('',(-1.04484956522656,1.82266702453152,20.1137594256882));
#1236=CARTESIAN_POINT('',(-1.89337770265043,0.974138887107677,20.2117594256882));
#1237=CARTESIAN_POINT('',(-1.89337770265043,0.974138887107677,20.3097594256882));
#1238=CARTESIAN_POINT('',(-1.04484956522656,1.82266702453152,20.3097594256882));
#1239=CARTESIAN_POINT('',(-1.04484956522656,1.82266702453147,20.3097594256882));
#1240=CARTESIAN_POINT('',(-1.04484956522656,1.82266702453152,20.2117594256882));
#1241=CARTESIAN_POINT('',(-2.08783206747682,0.779684522281215,20.6617594256882));
#1242=CARTESIAN_POINT('',(-2.08783206747682,0.779684522281215,20.6617594256882));
#1243=CARTESIAN_POINT('',(-2.08783206747682,0.779684522281215,20.6617594256882));
#1244=CARTESIAN_POINT('',(-2.08783206747682,0.779684522281215,20.6617594256882));
#1245=CARTESIAN_POINT('',(-1.31001460817147,2.08783206747648,17.9597594256882));
#1246=CARTESIAN_POINT('',(-2.15854274559535,1.2393039300526,17.9597594256882));
#1247=CARTESIAN_POINT('',(-1.31001460817149,2.08783206747646,17.9597594256882));
#1248=CARTESIAN_POINT('',(-2.15854274559535,1.2393039300526,17.8617594256882));
#1249=CARTESIAN_POINT('',(-2.15854274559534,1.2393039300526,17.7637594256882));
#1250=CARTESIAN_POINT('',(-2.15854274559532,1.23930393005262,17.7637594256882));
#1251=CARTESIAN_POINT('',(-1.31001460817149,2.08783206747646,17.7637594256882));
#1252=CARTESIAN_POINT('',(-1.31001460817149,2.08783206747646,17.8617594256882));
#1253=CARTESIAN_POINT('',(-1.31001460817147,2.08783206747648,20.3097594256882));
#1254=CARTESIAN_POINT('',(-2.15854274559535,1.2393039300526,20.3097594256882));
#1255=CARTESIAN_POINT('',(-1.31001460817149,2.08783206747646,20.3097594256882));
#1256=CARTESIAN_POINT('',(-2.15854274559535,1.2393039300526,20.2117594256882));
#1257=CARTESIAN_POINT('',(-2.15854274559535,1.2393039300526,20.1137594256882));
#1258=CARTESIAN_POINT('',(-2.15854274559532,1.23930393005262,20.1137594256882));
#1259=CARTESIAN_POINT('',(-1.31001460817149,2.08783206747646,20.1137594256882));
#1260=CARTESIAN_POINT('',(-1.31001460817149,2.08783206747646,20.2117594256882));
#1261=CARTESIAN_POINT('',(-1.11556024334506,2.28228643230288,17.4117594256882));
#1262=CARTESIAN_POINT('',(-2.35299711042178,1.04484956522617,17.4117594256882));
#1263=CARTESIAN_POINT('',(-2.35299711042178,1.04484956522617,20.6617594256882));
#1264=CARTESIAN_POINT('',(-2.35299711042178,1.04484956522617,20.6617594256882));
#1265=CARTESIAN_POINT('',(-1.11556024334506,2.28228643230288,20.6617594256882));
#1266=CARTESIAN_POINT('',(-1.11556024334506,2.28228643230288,20.6617594256882));
#1267=CARTESIAN_POINT('',(-2.29996410183279,0.99181655663718,19.9117594256882));
#1268=CARTESIAN_POINT('',(-2.35299711042178,1.04484956522617,20.6617594256882));
#1269=CARTESIAN_POINT('',(-2.35299711042178,1.04484956522617,17.4117594256882));
#1270=CARTESIAN_POINT('',(-2.35299711042178,1.04484956522617,20.6617594256882));
#1271=CARTESIAN_POINT('',(-9.87649415776329E-18,-2.28281888682993E-16,20.6617594256882));
#1272=CARTESIAN_POINT('',(1.58023906524213E-17,3.65251021892788E-16,17.4117594256882));
#1273=CARTESIAN_POINT('',(-4.51851162780512,3.59927281226243,20.3097594256882));
#1274=CARTESIAN_POINT('',(-4.51851162780512,3.59927281226243,20.1137594256882));
#1275=CARTESIAN_POINT('',(-4.51851162780512,3.59927281226243,20.2117594256882));
#1276=CARTESIAN_POINT('',(-3.66998349038125,4.44780094968628,20.1137594256882));
#1277=CARTESIAN_POINT('',(-4.51851162780509,3.5992728122624,20.1137594256882));
#1278=CARTESIAN_POINT('',(-3.66998349038125,4.44780094968627,20.3097594256882));
#1279=CARTESIAN_POINT('',(-3.66998349038125,4.44780094968627,20.2117594256882));
#1280=CARTESIAN_POINT('',(-3.66998349038125,4.44780094968628,20.3097594256882));
#1281=CARTESIAN_POINT('',(-4.51851162780511,3.59927281226242,17.9597594256882));
#1282=CARTESIAN_POINT('',(-4.51851162780511,3.59927281226242,17.7637594256882));
#1283=CARTESIAN_POINT('',(-4.51851162780511,3.59927281226242,17.8617594256882));
#1284=CARTESIAN_POINT('',(-3.66998349038125,4.44780094968628,17.7637594256882));
#1285=CARTESIAN_POINT('',(-4.51851162780509,3.5992728122624,17.7637594256882));
#1286=CARTESIAN_POINT('',(-3.66998349038124,4.44780094968627,17.9597594256882));
#1287=CARTESIAN_POINT('',(-3.66998349038124,4.44780094968627,17.8617594256882));
#1288=CARTESIAN_POINT('',(-3.66998349038125,4.44780094968628,17.9597594256882));
#1289=CARTESIAN_POINT('',(-0.316194613022376,0.854265701887943,19.9117594256882));
#1290=CARTESIAN_POINT('',(-0.956461217578087,1.69892333782398,19.9117594256882));
#1291=CARTESIAN_POINT('',(-2.51209613618875,0.779684522281217,19.9117594256882));
#1292=MECHANICAL_DESIGN_GEOMETRIC_PRESENTATION_REPRESENTATION('',(#61,#31,
#32,#33,#34,#35,#36,#37,#38,#39,#40,#41,#42,#43,#44,#45,#46,#47,#48,#49,
#50,#51,#52,#53,#54,#55,#56,#57,#58,#59),#1293);
#1293=(
GEOMETRIC_REPRESENTATION_CONTEXT(3)
GLOBAL_UNCERTAINTY_ASSIGNED_CONTEXT((#1294))
GLOBAL_UNIT_ASSIGNED_CONTEXT((#1299,#1296,#1295))
REPRESENTATION_CONTEXT('actuator_mount','TOP_LEVEL_ASSEMBLY_PART')
);
#1294=UNCERTAINTY_MEASURE_WITH_UNIT(LENGTH_MEASURE(7.8740157480315E-7),
#1299,'DISTANCE_ACCURACY_VALUE','Maximum Tolerance applied to model');
#1295=(
NAMED_UNIT(*)
SI_UNIT($,.STERADIAN.)
SOLID_ANGLE_UNIT()
);
#1296=(
CONVERSION_BASED_UNIT('DEGREE',#1297)
NAMED_UNIT(#1301)
PLANE_ANGLE_UNIT()
);
#1297=PLANE_ANGLE_MEASURE_WITH_UNIT(PLANE_ANGLE_MEASURE(0.0174532925),#1298);
#1298=(
NAMED_UNIT(*)
PLANE_ANGLE_UNIT()
SI_UNIT($,.RADIAN.)
);
#1299=(
CONVERSION_BASED_UNIT('INCH',#1302)
LENGTH_UNIT()
NAMED_UNIT(#1300)
);
#1300=DIMENSIONAL_EXPONENTS(1.,0.,0.,0.,0.,0.,0.);
#1301=DIMENSIONAL_EXPONENTS(0.,0.,0.,0.,0.,0.,0.);
#1302=LENGTH_MEASURE_WITH_UNIT(LENGTH_MEASURE(25.4),#1303);
#1303=(
LENGTH_UNIT()
NAMED_UNIT(*)
SI_UNIT(.MILLI.,.METRE.)
);
ENDSEC;
END-ISO-10303-21;
